/* XPM */
static char *_721b3cdd86740dfd6a8439215a5c30btIZkZh1Auo7IEkLi[] = {
/* columns rows colors chars-per-pixel */
"64 64 139 2 ",
"   c None",
".  c #050402",
"X  c #090605",
"o  c #0B0807",
"O  c #0D0B0A",
"+  c #110E0B",
"@  c #14110E",
"#  c #1B140E",
"$  c #151312",
"%  c #1A1612",
"&  c #1D1914",
"*  c #181718",
"=  c #1C1B1B",
"-  c #21170D",
";  c #23190E",
":  c #2B1E0E",
">  c #3B1F09",
",  c #221C13",
"<  c #291E12",
"1  c #241E19",
"2  c #1E201D",
"3  c #36250F",
"4  c #272017",
"5  c #2C2215",
"6  c #25211B",
"7  c #2B241C",
"8  c #322313",
"9  c #3B2711",
"0  c #352814",
"q  c #392916",
"w  c #312519",
"e  c #35291B",
"r  c #3D2C1A",
"t  c #3D311F",
"y  c #232323",
"u  c #2B2724",
"i  c #272826",
"p  c #2E2922",
"a  c #272828",
"s  c #2B2C2C",
"d  c #322B23",
"f  c #3A2E21",
"g  c #352F29",
"h  c #3C3225",
"j  c #34312C",
"k  c #3B3329",
"l  c #3D382E",
"z  c #2E3032",
"x  c #343333",
"c  c #383633",
"v  c #3B3937",
"b  c #36393A",
"n  c #3D3C3A",
"m  c #442B0F",
"M  c #422C14",
"N  c #4C2C13",
"B  c #433011",
"V  c #4B351D",
"C  c #503011",
"Z  c #553A13",
"A  c #593A11",
"S  c #52361B",
"D  c #533C1B",
"F  c #613D16",
"G  c #423424",
"H  c #4C3722",
"J  c #473825",
"K  c #413629",
"L  c #463A2E",
"P  c #4C3E2D",
"I  c #5F3D20",
"U  c #403E3D",
"Y  c #64431C",
"T  c #6E4D1D",
"R  c #754E1C",
"E  c #73541B",
"W  c #7C5219",
"Q  c #4C422F",
"!  c #4C4034",
"~  c #44403E",
"^  c #4A4339",
"/  c #504031",
"(  c #5C4730",
")  c #5B513C",
"_  c #674326",
"`  c #624923",
"'  c #3C4043",
"]  c #444343",
"[  c #484746",
"{  c #4A4846",
"}  c #43474A",
"|  c #4D4C4B",
" . c #514E44",
".. c #5E5442",
"X. c #52514F",
"o. c #59524A",
"O. c #545253",
"+. c #585655",
"@. c #5C5853",
"#. c #5D5B5C",
"$. c #615D51",
"%. c #605D5E",
"&. c #615F60",
"*. c #656364",
"=. c #686566",
"-. c #66656A",
";. c #69676B",
":. c #6B686B",
">. c #6B696B",
",. c #6F6C6F",
"<. c #706C6C",
"1. c #6F6D72",
"2. c #6F6D74",
"3. c #706D72",
"4. c #706E74",
"5. c #706C70",
"6. c #727070",
"7. c #737071",
"8. c #737175",
"9. c #727077",
"0. c #767474",
"q. c #777576",
"w. c #757175",
"e. c #75727A",
"r. c #757479",
"t. c #77747A",
"y. c #79777D",
"u. c #7B787F",
"i. c #7D7A7D",
"p. c #87501A",
"a. c #7D7981",
"s. c #7F7B81",
"d. c #7F7B82",
"f. c #817D81",
"g. c #807E86",
"h. c #828087",
"j. c #888489",
"k. c #8D8A93",
"l. c #8F8C97",
/* pixels */
"                                                                                                                                ",
"                                                                                                                                ",
"                                                                                                                                ",
"                                                                                                                                ",
"                                                                                                                                ",
"                                                                                                                                ",
"                                                                                7                                               ",
"                                                                                1                                               ",
"                                                                          w ,   -                                               ",
"                                                                          q -   ;                                               ",
"                                                                          G 3 ; < r                                             ",
"                                                                          q 5 3 3 H                                             ",
"                                                                          M <   < < u                                           ",
"                                                                            8 7 p k d K o.  L P                                 ",
"                                                                            q 5 q f w U $.p G L                                 ",
"                                                                              G M - $ , 1 , f L k                               ",
"                                                                              d f 7 O @ @ 6 K L K k                             ",
"                                                                                h 5 # # % % 7 / K p                             ",
"      l.k.                                                                      r 7 4 5 @ & 6 G h e                             ",
"      g.y.;.r.h.#.                                                              7 4 , @ & ; 5 7 k h                             ",
"        1.| ] O.| c j p                                                          .d 7 , # , 7 7 f h                             ",
"        2.*.O.| | O.O.] n v j                                                   k v h % 6 7 7 7 < p                             ",
"          e.9.-.4.r.9.>.=.#.O.n x U ~                                         < 4 ) _ D V e 6 , 6 1                             ",
"                    y.h.a.#.&.O.U ] | *.<.*.                                  # # ! S p.W C H V q ,                             ",
"                          a.a.3.X.{ { #.q.0.+.{ c u                           # # # w R T m S R A # $                           ",
"                                3.:.*.*.7.7.+.{ n j g g             , ,     % # + O 4 Y Y 3 Z Z - + + +                         ",
"                                      f.f.i.*.| U U | | U j 4 1 6 1 &       % + @ 6 5 Y m > m q & + + .                         ",
"                                            3.=.%.+.O.+.| ] x i 2 + +       @ + % l ; 0 m 9 9 , 1 , o X X                       ",
"                                                  3.w.w.*.{ v x 6 O $ s 6 % % , ; 5 ^ 6 # # 4 g p % o X . X                     ",
"                                                        j.=.{ v 6 +     % % & & 5 0 ..@.h 4 % 5 , % o X . X                     ",
"                                                              | g @       6 6 1 J ( J w e 2 % 7 & , @ X . . O                   ",
"                                                                  + +         e ) P 5 ; & 0 ` D 5 ; @ o X X X                   ",
"                                                                  @ +           % @ O = , T E t & * @ O . . X o                 ",
"                                                                                O . O 7 5 B s 6 * 2 2 O . . X .                 ",
"                                                                                * O O , ; q i 2 4 w ; @ X . X . X               ",
"                                                                            s s a $ $ 6 & B w : 5 ; @ @ X . . . . .             ",
"                                                                        a s i = y $ $ p 1 5 < & 2 * $   X X . . . . o           ",
"                                                                        * * * $ $ O o & 7 * % = 2 $ O   o . . X X X X           ",
"                                                                          @ O O O o o @ p @ $ = 2 $ O   o o . . o o X           ",
"                                                                                      $ d 1 + + = * $   O O X . o O O           ",
"                                                                                          4 & & = $ $ $ $ o o X . O             ",
"                                                                                            = y = = * $ $ O O   o               ",
"                                                                                              z z y = $ $ $ O                   ",
"                                                                                                ' y $ = $ $                     ",
"                                                                                              ' } z $ $ $ O                     ",
"                                                                                            b x z i * O $                       ",
"                                                                                          b b y * $ $ O                         ",
"                                                                                            * $ + @                             ",
"                                                                                                                                ",
"                                                                                                                                ",
"                                                                                                                                ",
"                                                                                                                                ",
"                                                                                                                                ",
"                                                                                                                                ",
"                                                                                                                                ",
"                                                                                                                                ",
"                                                                                                                                ",
"                                                                                                                                ",
"                                                                                                                                ",
"                                                                                                                                ",
"                                                                                                                                ",
"                                                                                                                                ",
"                                                                                                                                ",
"                                                                                                                                "
};
