/* XPM */
static char *a62871c220714aad9cc614d3cdeed45e1XzFCaPPZ7oYSJeC[] = {
/* columns rows colors chars-per-pixel */
"64 64 142 2 ",
"   c None",
".  c #060402",
"X  c #090705",
"o  c #0C0907",
"O  c #0D0B0A",
"+  c #120E0B",
"@  c #14110E",
"#  c #1A150E",
"$  c #151412",
"%  c #1A1613",
"&  c #1D1914",
"*  c #1C1B1A",
"=  c #201607",
"-  c #21160C",
";  c #24190E",
":  c #2B1C0F",
">  c #231C14",
",  c #291E12",
"<  c #221E1A",
"1  c #32200E",
"2  c #3D220B",
"3  c #272017",
"4  c #2C2114",
"5  c #25211B",
"6  c #2B241B",
"7  c #332514",
"8  c #382714",
"9  c #352813",
"0  c #3C2A13",
"q  c #31271A",
"w  c #32291D",
"e  c #3A2B1B",
"r  c #1F2020",
"t  c #242423",
"y  c #2B2621",
"u  c #2E2B26",
"i  c #262A2A",
"p  c #2B2B2B",
"a  c #322A22",
"s  c #3A2E22",
"d  c #3B3225",
"f  c #36312C",
"g  c #3F362A",
"h  c #3E392C",
"j  c #2F3132",
"k  c #343433",
"l  c #3D3936",
"z  c #3C3C3B",
"x  c #432D14",
"c  c #492D11",
"v  c #4A3112",
"b  c #45321F",
"n  c #49331B",
"m  c #513612",
"M  c #5E3A14",
"N  c #573A1C",
"B  c #603B13",
"V  c #443423",
"C  c #4E3A21",
"Z  c #43362A",
"A  c #443B2C",
"S  c #4B3A2A",
"D  c #583B22",
"F  c #513F2A",
"G  c #413C32",
"H  c #433E38",
"J  c #54421F",
"K  c #5B411A",
"L  c #644416",
"P  c #65461A",
"I  c #744B16",
"U  c #7B5719",
"Y  c #564427",
"T  c #5D4021",
"R  c #5A442C",
"E  c #474133",
"W  c #4E4031",
"Q  c #44413D",
"!  c #4B433A",
"~  c #5B4933",
"^  c #644624",
"/  c #6B4E27",
"(  c #6E532B",
")  c #634A33",
"_  c #7A643C",
"`  c #393D40",
"'  c #3F4246",
"]  c #424344",
"[  c #494744",
"{  c #4D4D4C",
"}  c #544D44",
"|  c #585040",
" . c #53514E",
".. c #5C5849",
"X. c #535353",
"o. c #585655",
"O. c #5B5B5B",
"+. c #6C5E44",
"@. c #605F5E",
"#. c #7C6A46",
"$. c #71684F",
"%. c #6D685F",
"&. c #636263",
"*. c #6B6C6C",
"=. c #747061",
"-. c #6E6E70",
";. c #737274",
":. c #737278",
">. c #7A7A7D",
",. c #81561E",
"<. c #8C5222",
"1. c #875B21",
"2. c #84755A",
"3. c #8C7B5E",
"4. c #7D7C80",
"5. c #818183",
"6. c #87878A",
"7. c #88878D",
"8. c #8A8A8D",
"9. c #8C8C92",
"0. c #908F95",
"q. c #929295",
"w. c #95949B",
"e. c #9C9AA3",
"r. c #9F9DA8",
"t. c #A09FA7",
"y. c #A19FAA",
"u. c #A1A0A6",
"i. c #A2A0AA",
"p. c #A3A1AD",
"a. c #A4A2AD",
"s. c #A5A3AF",
"d. c #A7A7AE",
"f. c #A8A6AF",
"g. c #A7A5B0",
"h. c #A8A6B1",
"j. c #B0AEB9",
"k. c #B5B3BD",
"l. c #B5B3BF",
"z. c #BAB9C2",
"x. c #BCB9C7",
"c. c #CCCAD8",
/* pixels */
"                                                                                                                                ",
"                                                                                                                                ",
"                                                                                                                                ",
"                                                                                                                                ",
"                                                                                                                                ",
"                                                                                                                                ",
"                                                                                                                                ",
"                                                                                                                                ",
"                                                                                                                                ",
"                                                                                                                                ",
"                                              6                                                                                 ",
"                                              ;                                                                                 ",
"                                            > -   , 7                                                                           ",
"                                            , ; & ;                                                                             ",
"                                            0 ; ; 7 V                                                                           ",
"                                            n 1 8 6 e                                                                           ",
"                                          6 7 ,   > 0                                                                           ",
"                                g     } a a 6 y   4                                                                             ",
"                            v N S V d %.! , e e 4 9                                                                             ",
"                          4 c V Z # < a < % , 8 d                                                                               ",
"                        6 ; d W Z @ > % # + , s a                                                                               ",
"                      6 3 & w A V $ % # # + , s                                                                                 ",
"                      5 & & 6 A s + o + > > , d                                                                                 ",
"                      # # # q d , 6 > $ + > 6 y                                                                                 ",
"                      @ o + e s < > # % > 3 u                                                                       c.          ",
"                      @ o + q w 6 q , % > E ~                                                                 z.k.k.x.          ",
"                      # o + 9 L ( ) ^ P b g 3.2.                                                          O.s.0.-.9.h.          ",
"                    > @ + @ 0 I / D ^ ,.<.S #._                                                     f H { %.*.O.*.w.r.          ",
"                    # O o + # v P n D 1.B N Y                                                   z } o.-.>.5.7.q.i.s.            ",
"                    @ O O + @ 2 m x c B b 3 7                                             l l X.-.5.8.u.f.h.s.                  ",
"                      + + o + : x 2 c v 3 >                                           O.O.X.o.;.*.:.k.l.y.                      ",
"                        + X o ; v x N / A 6                                       6.6.*.O.o.O.w.w.p.p.                          ",
"                        o . o # & , q ..G >                                 Q O.>.q.7.*.&.;.7.r.                                ",
"                        . . o # & @ Q =.V 4 q                           u k { O.;.q.8.6.9.9.                                    ",
"                      o . . # > & a G s C ~ d ,       > 6           f Q [ ] [ X.:.w.r.r.                                        ",
"                      o . o > 4 w A h ; : F R A *     % , 6 6 6 a z  .&.O.X.@.:.9.w.                                            ",
"                      . . O * < 9 K Y , 4 7 +.$.6       @ # i p Q { O.*.:.4.4.                                                  ",
"                    o . . @ t % < C U : @ > d E & < t % $ @ i k ' X.4.w.7.                                                      ",
"                  X X . . ; q < * u 0 = @ % + # @ & *     + t z { ;.w.                                                          ",
"                o . . . o & 6 6 5 u q & > 5 > & 5 < <     # y { &.                                                              ",
"                . . . . O % * > 4 0 e & & * 6 5 a f       # y                                                                   ",
"              o . X . X O $ r * & q f 5 5 w 6 & i         O                                                                     ",
"              o o X . X O $ r r @ * t 6 5 w 5 r p p                                                                             ",
"              o o . . o + $ $ $ # & 5 6 5 * $ $ * t i p                                                                         ",
"              + X . X o $ * % % >   5 5 & O O $ $ $ * *                                                                         ",
"                X X o $ % * t %     * @ O X o O O O $                                                                           ",
"                $ O X $ r t i                                                                                                   ",
"                * $ $ * * j `                                                                                                   ",
"                $ $ * $ $ j ' '                                                                                                 ",
"                  O $ O * i i p z                                                                                               ",
"                      O $ $ $ * t j                                                                                             ",
"                            O $ $                                                                                               ",
"                                                                                                                                ",
"                                                                                                                                ",
"                                                                                                                                ",
"                                                                                                                                ",
"                                                                                                                                ",
"                                                                                                                                ",
"                                                                                                                                ",
"                                                                                                                                ",
"                                                                                                                                ",
"                                                                                                                                ",
"                                                                                                                                ",
"                                                                                                                                "
};
