/* XPM */
static char *_017e69039054fa6aa11feef452c323c4BbgcN6sdcHvXm2X[] = {
/* columns rows colors chars-per-pixel */
"64 64 194 2 ",
"   c None",
".  c #040302",
"X  c #090605",
"o  c #0C0907",
"O  c #0D0B0A",
"+  c #1A0E07",
"@  c #120E0B",
"#  c #15110D",
"$  c #1A140E",
"%  c #151412",
"&  c #1A1612",
"*  c #1D1913",
"=  c #181718",
"-  c #1C1C1A",
";  c #22150C",
":  c #251A0D",
">  c #2A1B0B",
",  c #331F0B",
"<  c #231C15",
"1  c #2A1D12",
"2  c #221E1A",
"3  c #2E220B",
"4  c #382107",
"5  c #34220C",
"6  c #3B250F",
"7  c #3D280B",
"8  c #262016",
"9  c #2B2115",
"0  c #25211B",
"q  c #2B241B",
"w  c #2F281E",
"e  c #332414",
"r  c #3A2712",
"t  c #352815",
"y  c #3B2912",
"u  c #33261A",
"i  c #32291E",
"p  c #3B2B1A",
"a  c #242322",
"s  c #2A2621",
"d  c #272825",
"f  c #2C2A24",
"g  c #272728",
"h  c #2B2B2B",
"j  c #342D23",
"k  c #392D20",
"l  c #322D29",
"z  c #373025",
"x  c #3C3124",
"c  c #33312A",
"v  c #3C342B",
"b  c #3E3B2E",
"n  c #2D2F30",
"m  c #2F3134",
"M  c #353535",
"N  c #3C3732",
"B  c #3D3935",
"V  c #343739",
"C  c #373A3B",
"Z  c #3C3C3B",
"A  c #442C0E",
"S  c #482B06",
"D  c #4F3306",
"F  c #583808",
"G  c #56380A",
"H  c #432E14",
"J  c #482F11",
"K  c #412F1D",
"L  c #473214",
"P  c #4E3516",
"I  c #42321D",
"U  c #4C351A",
"Y  c #49381F",
"T  c #523513",
"R  c #563A15",
"E  c #5D3D14",
"W  c #53371C",
"Q  c #5A3B18",
"!  c #613D0C",
"~  c #613C15",
"^  c #613819",
"/  c #6D3B1B",
"(  c #412E21",
")  c #433424",
"_  c #4D3C23",
"`  c #41362B",
"'  c #443A2C",
"]  c #4B3D2B",
"[  c #543C23",
"{  c #513D28",
"}  c #453C33",
"|  c #493E31",
" . c #413E3A",
".. c #623C20",
"X. c #5D441B",
"o. c #704B0E",
"O. c #66451C",
"+. c #6B4B1D",
"@. c #664715",
"#. c #734915",
"$. c #76491B",
"%. c #7E5618",
"&. c #765319",
"*. c #564122",
"=. c #55432C",
"-. c #584028",
";. c #4D4234",
":. c #46433D",
">. c #4A443B",
",. c #49463A",
"<. c #534633",
"1. c #534A36",
"2. c #584832",
"3. c #53483D",
"4. c #5B4E3A",
"5. c #5A503C",
"6. c #684A23",
"7. c #774E2A",
"8. c #6F5220",
"9. c #735225",
"0. c #7B5828",
"q. c #67543B",
"w. c #6E5A3F",
"e. c #735933",
"r. c #715C3E",
"t. c #3A3D40",
"y. c #464645",
"u. c #414548",
"i. c #4B4B4A",
"p. c #544C42",
"a. c #554E47",
"s. c #5B5444",
"d. c #58544E",
"f. c #545453",
"g. c #575858",
"h. c #5A5A5A",
"j. c #64594A",
"k. c #615846",
"l. c #5D6054",
"z. c #7C6D4F",
"x. c #626255",
"c. c #696658",
"v. c #6C6857",
"b. c #777055",
"n. c #7C715C",
"m. c #7C7253",
"M. c #646563",
"N. c #6B6C63",
"B. c #676668",
"V. c #6A6A6B",
"C. c #696665",
"Z. c #757365",
"A. c #727273",
"S. c #76767A",
"D. c #7A7B7C",
"F. c #85581C",
"G. c #94561B",
"H. c #804C25",
"J. c #805B28",
"K. c #855B20",
"L. c #9D5A22",
"P. c #956220",
"I. c #826438",
"U. c #946F3C",
"Y. c #A97E39",
"T. c #8D6F43",
"R. c #8C7244",
"E. c #977746",
"W. c #827353",
"Q. c #927B59",
"!. c #847961",
"~. c #B28536",
"^. c #978257",
"/. c #95805A",
"(. c #A18856",
"). c #8E8D7C",
"_. c #7F7E82",
"`. c #848486",
"'. c #838389",
"]. c #88878F",
"[. c #8E8C8F",
"{. c #8C8B92",
"}. c #918F93",
"|. c #929195",
" X c #94939B",
".X c #99979E",
"XX c #9C9AA4",
"oX c #9895A0",
"OX c #A19FA8",
"+X c #A5A3AE",
"@X c #ACAAB4",
"#X c #B0AEB8",
"$X c #B4B2BC",
"%X c #B9B6C3",
/* pixels */
"                                                                                                                                ",
"                                                                                                                                ",
"                                                                                                                                ",
"                                                                                                                                ",
"                                                                                                                                ",
"                                                                                  `                                             ",
"                                            z b                       4.          x                                             ",
"                                            j p           2.3.` >.s.} ] _         y                                             ",
"                                            ) y     | ` H 2.a.i v p.} ) U u   $ : p                                             ",
"                                              y : * k I T ( s v z q k K T T < > y                                               ",
"                                                y 9 : Q O., $ } l $ : , R 6.6 u                                                 ",
"                                            R q 9 q 9 U T : &  .p.2 @ , H e 1 r u                                               ",
"                                          6.H 9 9 < 0 @ $ < < | p.} u < 2 + < u L W                                             ",
"                                        X.W u 9 * $ < # $ j ] ' | | | < < $ < s O.%.6.                                          ",
"                                      e H W p w < # < < * < i 1.j.` u 2 1 $ 2 j 9.G.#.L                                         ",
"                                    e H [ 0.X.i < $ $ 8 < q x b ` ` k 2 q ; 2 k 7.G.$.[                                         ",
"                                    6 O.J.K.F.k w & * q 0 0 x =.{ ) q 0 q < < q 7.~ E _ d.                                      ",
"                                  r A T G.#.L._ w 8 ;.;.w 8 < p { < 0 j ' i < r ~ w e ;.v.                                      ",
"                                  j O.E $.~ L.[ 8 z ;.<.k.c * i I 2 f | [ i 8 e e 2 B a.;.]                                     ",
"                                N.x.-.R r e T / 3 x * # k.5.c z v j =.q.e.[ u $ - l x.:.: ]                                     ",
"                                s.v.3.>.l a 2 , $ k ' k !.R.e.s.M.s.R.U.I.X.< # @ 9 b v ; ) <.                                  ",
"                              e z.) w :.l.l g = $ 3 5.z.E.E./.n.N.n.Q.e.! F 9   @ < < < : x )                                   ",
"                              e q.p + q :.q     8 > L @.8.R.~.^.).^.~.&.: :     % $ $ + 2 e )                                   ",
"                              x q.k ; 1 9 q     8 $ ; 9 _ %.K.W.Z.4.T S > *       * # & ; > 1.                                  ",
"                              u { k j : ; *     & < $ > 4 3 3 0 f 8 $ : > + @       & * $ ; p                                   ",
"                              ) -., u < <     o % < $ e 5 8 8 0 f 0 0 * $ O X @       & $ $ &                                   ",
"                              ;.m.] > $ *   O . o * $ ; 8 2 2 2 0 * * e 9 $ o X %     & < $ @ -                                 ",
"                              b b.k > $ - O X . @ < < t t * - a f h 0 9 8 9 @ X o     < 9 & & <                                 ",
"                            & 0 v < * < # X . . : 9 $ * * w d w q d 2 $ * y $ X X @ & & < # * *                                 ",
"                              $ @ @ $ & X X . . 5 R i * & * & 3 : % & * $ P < X o o # # - % 8 s                                 ",
"                            2 & @ * < @ o X . X q &.&.9 * $ # 2 * # $ # p 8.0 O o o O # & < z                                   ",
"                              * $ < 8 $ e @ . X a *.o.G 8 @ $ a a 2 * : X.X.0 # X o O @ 8 j                                     ",
"                              * % f < q ( @ . # a f A D 3 X = 0 d a % 7 X.7 a * O o O O @                                       ",
"                              < $ - & i u o O % a z 7 y * . = - * 0 O 3 7 7 p : = @ @ % O                                       ",
"                                & O % 1 $ o   9 q L 6 * @ . % g d a @ % < y L : -     % %                                       ",
"                                O @ ; s 2     < 5 L 0 @ % o % C C * % & @ * q 2 -                                               ",
"                              % O * a 2 s     - 8 0 - % & O @ f d $ * * % % = = a                                               ",
"                              & & f B 9 2     & & - @ & < o # $ $ q w 8 0 & % %                                                 ",
"                            # * l t.y.B f   a - X O @ 0 < o $ 0 q w w 8 w w <                                                   ",
"                              & y.i.f.g.N a = % X # q j * o * x z w q * q w 8                                                   ",
"                                  A.B.V.:.s & = # < j i + % < j j 8 9 * 2 h 2                                                   ",
"                                  |.'.h.y. .a - 2 2 q 2 & q q q 9 0 w d h m -                                                   ",
"                                     Xh.i.g.B - - * * 2 & s q j 0 0 f 2 V n                                                     ",
"                                    '.V.f.A.B.2 - g g - % s a a 2 = % - h u.h                                                   ",
"                                      S.V.{.{. .a V m % O           O - h u.n                                                   ",
"                                      '.|.|.'.d.Z t.a O o           O - g m h -                                                 ",
"                                        XXD.B.f.Z V - @             O = g C C a                                                 ",
"                                        XXS.g.i.l h g %               % - g V -                                                 ",
"                                        {.'.g.f. .M a %               @ % = a -                                                 ",
"                                          ].A.A.a.h - %                                                                         ",
"                                          ].XX].M.l &                                                                           ",
"                                            +X|.V.} 2                                                                           ",
"                                            XX#X`.d. .                                                                          ",
"                                              @X|.V..X                                                                          ",
"                                              oXXXV.@XOX                                                                        ",
"                                                 XB._.$X                                                                        ",
"                                                {.A.S.%X                                                                        ",
"                                                XX XXX+X                                                                        ",
"                                                  +XoX                                                                          ",
"                                                                                                                                ",
"                                                                                                                                ",
"                                                                                                                                ",
"                                                                                                                                ",
"                                                                                                                                "
};
