/* XPM */
static char *ae7f392c5d6e4d6d83d357869dd1e205hzez7Ii0C9LcX2Jc[] = {
/* columns rows colors chars-per-pixel */
"64 64 111 2 ",
"   c None",
".  c #050302",
"X  c #090604",
"o  c #0B0806",
"O  c #0D0A09",
"+  c #120E0C",
"@  c #1A1307",
"#  c #15110D",
"$  c #1A140E",
"%  c #1D180F",
"&  c #151413",
"*  c #1B1611",
"=  c #1D1913",
"-  c #1D1B19",
";  c #20170F",
":  c #2B1C0B",
">  c #311F0D",
",  c #381F0B",
"<  c #231C15",
"1  c #281E13",
"2  c #231E19",
"3  c #301F13",
"4  c #33220D",
"5  c #3C250B",
"6  c #3E2B0F",
"7  c #272017",
"8  c #2B2216",
"9  c #26211C",
"0  c #2B241B",
"q  c #352415",
"w  c #3A2615",
"e  c #372813",
"r  c #3D2A16",
"t  c #31271C",
"y  c #322A1E",
"u  c #3B2D1E",
"i  c #212120",
"p  c #2D2A27",
"a  c #352C23",
"s  c #392F23",
"d  c #352E29",
"f  c #373327",
"g  c #3C3225",
"h  c #3B332A",
"j  c #3C382A",
"k  c #55370F",
"l  c #56390F",
"z  c #432C13",
"x  c #422C1A",
"c  c #4A3314",
"v  c #45301C",
"b  c #4D361B",
"n  c #533713",
"m  c #573A10",
"M  c #5C3F15",
"N  c #503D1D",
"B  c #443521",
"V  c #423629",
"C  c #45392C",
"Z  c #4B3D2E",
"A  c #553D24",
"S  c #433B32",
"D  c #4A3E32",
"F  c #413D3A",
"G  c #664413",
"H  c #6C4B1E",
"J  c #714A17",
"K  c #5F4120",
"L  c #4E4032",
"P  c #4F4032",
"I  c #4B4036",
"U  c #4F4234",
"Y  c #4F4336",
"T  c #44403C",
"R  c #4B4238",
"E  c #4B493B",
"W  c #504231",
"Q  c #504132",
"!  c #514132",
"~  c #524232",
"^  c #534232",
"/  c #514336",
"(  c #554434",
")  c #544435",
"_  c #574635",
"`  c #544536",
"'  c #574737",
"]  c #5C4837",
"[  c #6B4B24",
"{  c #634728",
"}  c #64503D",
"|  c #464340",
" . c #4A4643",
".. c #4C4A4A",
"X. c #514C47",
"o. c #524C46",
"O. c #545344",
"+. c #56504C",
"@. c #54514F",
"#. c #5D564C",
"$. c #585649",
"%. c #595653",
"&. c #656261",
"*. c #696767",
"=. c #726D65",
"-. c #7C7870",
";. c #737278",
":. c #94601C",
">. c #7D7C80",
",. c #848486",
"<. c #868589",
/* pixels */
"                                                                                                                                ",
"                                                                                                                                ",
"                                                                ;.                                                              ",
"                                                                <.                                                              ",
"                                                                ,.>.                                                            ",
"                                                                  >.                                                            ",
"                                                                  +.o.                                                          ",
"                                                        t 0       V y                                                           ",
"                                                        <           0 <                                                         ",
"                                              i       < =           t ;                                                         ",
"                                              2 2     < *           d $       <                                                 ",
"                                              < <     $ <             ; 2     *                                                 ",
"                                                * 1   $ <             ; <   1 <                                                 ",
"                                                  1 q w w           u w w q <                                                   ",
"                                                    1 q x x 0 d d 8 x x a 2                                                     ",
"                                                        ; < d a 0 d < d @.                                                      ",
"                                                          p =.#.Y -.h   %.                                                      ",
"                                                          < S S s R i   X.*.                                                    ",
"                                                          = < * = 2 2   F &.                                                    ",
"                                                        d a a 0 t t s S h o.                                                    ",
"                                                      V ~ ( D Z D D C Z Z D ..                                                  ",
"                                                      ] ~ L / ( D ` D Z _ } F                                                   ",
"                                                    g ~ Z L Z ' Z ( D ( C D h A A                                               ",
"                                                { N y V C V C C V D Z V s a a B G s                                             ",
"                                              x [ :.b a C C g y t s V C V s 8 0 H r                                             ",
"                                            q c n n l B W C y y 2 s s Z Z s < r J M z                                           ",
"                                            , l G : : 4 g V y y 1 s s V g 0 7 z 5 l 5                                           ",
"                                            , 4 4 ; $ @ 8 g s 7 2 a V s a 7 : : % > c u                                         ",
"                                          w c M > - - # % y t % $ 7 0 7 < % @ # i 7 c u                                         ",
"                                          C g e % & & & $ 0 f 7 = 0 t % < % + - - = % < y                                       ",
"                                        O.0 & & & # * # + % 0 * # 8 7 # $ = # & = = # 7 a                                       ",
"                                        $.f # * 7 < $ # # $ = # + = 7 # # = # # = 7 < 0 E                                       ",
"                                      t y E f = < $ $ # + + $ + + $ $ + # -   + + $ $ =                                         ",
"                                      : g O.j $ $ + < $ # + $ # # # # # * 8     # # $ +                                         ",
"                                      q u t $ # + 2 < $ $ & $ # # * & + * 9     & # = =                                         ",
"                                    u y ; $ + #     + X X X X o o X X X + &       = # -                                         ",
"                                    Z 1 ; $ +       O X . . . o X . . . X &         & &                                         ",
"                                    a $ # +       O X X . . . . . . . . X X &       2 2                                         ",
"                                    = # # &     O o X . . . . . . . . . X X O &     p |                                         ",
"                                  = + $ * *   & o X . . . . . . . . . . . o X + -                                               ",
"                                  2 * = 2     O X X . . . . . . . X X . . . X X & -                                             ",
"                                    8 = &   & X . . . . X X X . X X o . . . . X O -                                             ",
"                                    0 = # - O X X . . . o o X . X X o X . . X . X & &                                           ",
"                                        2 + . X . . . . o o X . . X o X . . . X X o &                                           ",
"                                        & o o X . . . X X X . . . X o o . . . X o X O                                           ",
"                                      & o o o X . . . X o X . . . . X o . . . . o o X &                                         ",
"                                      + O O o . . . . o o . . . . . X o . . . . o o O O                                         ",
"                                      o + o O . . . X o X . . . . . X o . . . . o o O o +                                       ",
"                                      o & X X . . . X o . . . . . . X o X . . . o o O O O                                       ",
"                                    & + O o o . . X o o X . . . . . . o O . . . o O O O                                         ",
"                                      & & & + X . o o O . . . . . . X o O X . . o     +                                         ",
"                                              X X O o O . . . . . . . O o O X X                                                 ",
"                                              o o + O O o . X o . . X o O & X O                                                 ",
"                                                      + o X o O X X o O                                                         ",
"                                                                                                                                ",
"                                                                                                                                ",
"                                                                                                                                ",
"                                                                                                                                ",
"                                                                                                                                ",
"                                                                                                                                ",
"                                                                                                                                ",
"                                                                                                                                ",
"                                                                                                                                ",
"                                                                                                                                "
};
