/* XPM */
static char *result[] = {
/* columns rows colors chars-per-pixel */
"64 64 227 2 ",
"   c #070606",
".  c #090605",
"X  c #060906",
"o  c #090906",
"O  c #060709",
"+  c #04090C",
"@  c #0C0B0B",
"#  c #0C0708",
"$  c #150D03",
"%  c #16140B",
"&  c #19170C",
"*  c #030C13",
"=  c #030E1C",
"-  c #0C0F14",
";  c #0A1214",
":  c #04111C",
">  c #0A161C",
",  c #0E1A1D",
"<  c #051317",
"1  c #151413",
"2  c #1D1B14",
"3  c #161A18",
"4  c #2A1C0D",
"5  c #23180A",
"6  c #251D16",
"7  c #1B221D",
"8  c #24241E",
"9  c #2A231C",
"0  c #292516",
"q  c #322A1C",
"w  c #352719",
"e  c #2A200F",
"r  c #040F21",
"t  c #051322",
"y  c #0B1B22",
"u  c #061829",
"i  c #161A26",
"p  c #051E32",
"a  c #0D222D",
"s  c #1B2324",
"d  c #1A242C",
"f  c #182728",
"g  c #192A34",
"h  c #102F3B",
"j  c #222423",
"k  c #2B2B24",
"l  c #2A2928",
"z  c #312A25",
"x  c #2B322E",
"c  c #3C3425",
"v  c #37352A",
"b  c #232A33",
"n  c #2B3B35",
"m  c #24343C",
"M  c #2A383C",
"N  c #2A3537",
"B  c #333A35",
"V  c #3A3A34",
"C  c #363835",
"Z  c #42351E",
"A  c #413424",
"S  c #443C2C",
"D  c #493C2B",
"F  c #4E3826",
"G  c #433D33",
"H  c #533F31",
"J  c #3E4033",
"K  c #3C433D",
"L  c #494335",
"P  c #44423B",
"I  c #4C463E",
"U  c #4D483C",
"Y  c #434234",
"T  c #5A4B35",
"R  c #544B3C",
"E  c #584938",
"W  c #534738",
"Q  c #4A402F",
"!  c #1E3841",
"~  c #203A42",
"^  c #2F4545",
"/  c #3D4A4C",
"(  c #384645",
")  c #3A4D53",
"_  c #4A4443",
"`  c #4C4C46",
"'  c #424B4B",
"]  c #4B4C4C",
"[  c #474743",
"{  c #5C4F43",
"}  c #544E4A",
"|  c #544E42",
" . c #4D514C",
".. c #535447",
"X. c #5C5444",
"o. c #5C544A",
"O. c #5E594C",
"+. c #595944",
"@. c #424D52",
"#. c #4C5453",
"$. c #475659",
"%. c #5C5C54",
"&. c #525B5B",
"*. c #555654",
"=. c #635444",
"-. c #6C5B4A",
";. c #665847",
":. c #715E4B",
">. c #6B5E52",
",. c #655951",
"<. c #57605D",
"1. c #6D624C",
"2. c #71614D",
"3. c #696153",
"4. c #63645D",
"5. c #6C645C",
"6. c #686557",
"7. c #746653",
"8. c #756A5B",
"9. c #7A6C5C",
"0. c #756858",
"q. c #7C715D",
"w. c #485C66",
"e. c #505C60",
"r. c #5A6867",
"t. c #5E7378",
"y. c #566A69",
"u. c #756C61",
"i. c #6B746B",
"p. c #6C7067",
"a. c #7C786A",
"s. c #657576",
"d. c #7C7C74",
"f. c #757D77",
"g. c #87765E",
"h. c #826F5F",
"j. c #847463",
"k. c #8A7766",
"l. c #847965",
"z. c #8A7B65",
"x. c #847B6C",
"c. c #8A7D6B",
"v. c #8A776A",
"b. c #907F6B",
"n. c #957D64",
"m. c #857C72",
"M. c #7B807A",
"N. c #94836C",
"B. c #9B856B",
"V. c #9D8367",
"C. c #8A8375",
"Z. c #878479",
"A. c #928573",
"S. c #988673",
"D. c #9A8B75",
"F. c #948A7B",
"G. c #97897A",
"H. c #8F8067",
"J. c #A4927B",
"K. c #A4957A",
"L. c #A48972",
"P. c #778284",
"I. c #888C89",
"U. c #949686",
"Y. c #A49683",
"T. c #A59B86",
"R. c #AD9B84",
"E. c #AA9A8A",
"W. c #B49E84",
"Q. c #B09E8E",
"!. c #A79D92",
"~. c #ACA18B",
"^. c #B5A58B",
"/. c #A8A497",
"(. c #B3A692",
"). c #B6A996",
"_. c #BBAB94",
"`. c #B4AC9A",
"'. c #BBAD9B",
"]. c #B9A693",
"[. c #BCB197",
"{. c #A7AAA7",
"}. c #AEB2A9",
"|. c #B3B5A7",
" X c #BBB5A4",
".X c #AFB8B5",
"XX c #C3AE96",
"oX c #CDBA9B",
"OX c #C4B29C",
"+X c #D1BA9C",
"@X c #C4B8A8",
"#X c #D2BFA2",
"$X c #C6BFB3",
"%X c #B4C4BA",
"&X c #CBC2AB",
"*X c #D3C3AB",
"=X c #D6C4A8",
"-X c #CDC6B7",
";X c #D7CAB8",
":X c #E4D4BD",
">X c #F1DBBD",
",X c #BFC5C3",
"<X c #D4CDC1",
"1X c #DCD5CC",
"2X c #D5D3C9",
"3X c #CDD9D5",
"4X c #D5DAD5",
"5X c #C8CFCA",
"6X c #E7DAC7",
"7X c #E6DFD6",
"8X c #D9E2DB",
"9X c #E4E2DF",
"0X c #F3E5D2",
"qX c #F5E9D4",
"wX c #F5EBDB",
"eX c #F8EBDC",
"rX c #FCF1DF",
"tX c #D8E5E9",
"yX c #D9F0F1",
"uX c #E3EAE7",
"iX c #FCEEE2",
"pX c #E1F1ED",
"aX c #E9F3EE",
"sX c #FDF1E5",
"dX c #F6F3EA",
"fX c #E8F4F0",
"gX c None",
/* pixels */
"gXgXgXgXgXgXgXgXgXgXgXgXgXgXgXgXgXgXgXgXgXgXgXgXgXgXgXgXgXgXgXgXgXgXgXgXgXgXgXgXgXgXgXgXgXgXgXgXgXgXgXgXgXgXgXgXgXgXgXgXgXgXgXgX",
"gXgXgXgXgXgXgXgXgXgXgXgXgXgXgXgXgXgXgXgXgXgXgXgXgXgXgXgXgXgXgXgXgXgXgXgXgXgXgXgXgXgXgXgXgXgXgXgXgXgXgXgXgXgXgXgXgXgXgXgXgXgXgXgX",
"gXgXgXgXgXgXgXgXgXgXgXgXgXgXgXgXgXgXgXgXgXgXgXgXgXgXgXgXgXgXgXgX}.8XfXfXpXgXgXgXgXgXgXgXgXgXgXgXgXgXgXgXgXgXgXgXgXgXgXgXgXgXgXgX",
"gXgXgXgXgXgXgXgXgXgXgXgXgXgXgXgXgXgXgXgXgXgXgXgXgXgXgXgXgXgX.X}. X*X6XdXdXpXyXgXgXgXgXgXgXgXgXgXgXgXgXgXgXgXgXgXgXgXgXgXgXgXgXgX",
"gXgXgXgXgXgXgXgXgXgXgXgXgXgXgXgXgXgXgXgXgXgXgXgXgXgXgXgXgXgX|.#XoXoX*X6XdXdXaXgXgXgXgXgXgXgXgXgXgXgXgXgXgXgXgXgXgXgXgXgXgXgXgXgX",
"gXgXgXgXgXgXgXgXgXgXgXgXgXgXgXgXgXgXgXgXgXgXgXgXgXgXgXgXgX%X&X#X=X+XoX=XqXsXdXpXgXgXgXgXgXgXgXgXgXgXgXgXgXgXgXgXgXgXgXgXgXgXgXgX",
"gXgXgXgXgXgXgXgXgXgXgXgXgXgXgXgXgXgXgXgXgXgXgXgXgXgXgXgXgXuXrXwX0X=XoXoX=X6XwXpXgXgXgXgXgXgXgXgXgXgXgXgXgXgXgXgXgXgXgXgXgXgXgXgX",
"gXgXgXgXgXgXgXgXgXgXgXgXgXgXgXgXgXgXgXgXgXgXgXgXgXgXgXgXgXs.<X-X8.=.B.+XoX:XwXaXgXgXgXgXgXgXgXgXgXgXgXgXgXgXgXgXgXgXgXgXgXgXgXgX",
"gXgXgXgXgXgXgXgXgXgXgXgXgXgXgXgXgXgXgXgXgXgXgXgXgXgXgXgXgX3 /./.$ $ 7.#X+X*X;X4XgXgXgXgXgXgXgXgXgXgXgXgXgXgXgXgXgXgXgXgXgXgXgXgX",
"gXgXgXgXgXgXgXgXgXgXgXgXgXgXgXgXgXgXgXgXgXgXgXgXgXgXgXgXgXs F.F.e 5 z.>X+XJ.m.P.gXgXgXgXgXgXgXgXgXgXgXgXgXgXgXgXgXgXgXgXgXgXgXgX",
"gXgXgXgXgXgXgXgXgXgXgXgXgXgXgXgXgXgXgXgXgXgXgXgXgXgXgXgXgXI.X.7.].].#X#XJ.c.a.gXgXgXgXgXgXgXgXgXgXgXgXgXgXgXgXgXgXgXgXgXgXgXgXgX",
"gXgXgXgXgXgXgXgXgXgXgXgXgXgXgXgXgXgXgXgXgXgXgXgXgXgXgXgXgX{.8.z.*X@X(.A.X.r.gXgXgXgXgXgXgXgXgXgXgXgXgXgXgXgXgXgXgXgXgXgXgXgXgXgX",
"gXgXgXgXgXgXgXgXgXgXgXgXgXgXgXgXgXgXgXgXgXgXgXgXgXgXgXgXgXI./.^.K.-.{ W % gXgXgXgXgXgXgXgXgXgXgXgXgXgXgXgXgXgXgXgXgXgXgXgXgXgXgX",
"gXgXgXgXgXgXgXgXgXgXgXgXgXgXgXgXgXgXgXgXgXgXgXgXgXgXgXgXgXgXB U j.q 5 w L gXgXgXgXgXgXgXgXgXgXgXgXgXgXgXgXgXgXgXgXgXgXgXgXgXgXgX",
"gXgXgXgXgXgXgXgXgXgXgXgXgXgXgXgXgXgXgXgXgXgXgXgXgXgXgXgXgXgX, c j.2.2.g.Y.5XgXgXgXgXgXgXgXgXgXgXgXgXgXgXgXgXgXgXgXgXgXgXgXgXgXgX",
"gXgXgXgXgXgXgXgXgXgXgXgXgXgXgXgXgXgXgXgXgXgXgXgXgXgXgXgXgXgXx E H.K.K.~.'.;X3XgXgXgXgXgXgXgXgXgXgXgXgXgXgXgXgXgXgXgXgXgXgXgXgXgX",
"gXgXgXgXgXgXgXgXgXgXgXgXgXgXgXgXgXgXgXgXgXgXgXgXgXgXgXgXgXa C._.K.c.T Z D.(. X8XgXgXgXgXgXgXgXgXgXgXgXgXgXgXgXgXgXgXgXgXgXgXgXgX",
"gXgXgXgXgXgXgXgXgXgXgXgXgXgXgXgXgXgXgXgXgXgXgXgXgXgXgXgXgXp.V.V.n.H 4 4 0.c.~.-X3XgXgXgXgXgXgXgXgXgXgXgXgXgXgXgXgXgXgXgXgXgXgXgX",
"gXgXgXgXgXgXgXgXgXgXgXgXgXgXgXgXgXgXgXgXgXgXgXgXgXgXgXgXgX/.L.n.V.T D Q Q -.N.].;X3XgXgXgXgXgXgXgXgXgXgXgXgXgXgXgXgXgXgXgXgXgXgX",
"gXgXgXgXgXgXgXgXgXgXgXgXgXgXgXgXgXgXgXgXt.e.< * + = * s +.OXK.XXXXJ.D.a.8 Y -.k.].;XtXgXgXgXgXgXgXgXgXgXgXgXgXgXgXgXgXgXgXgXgXgX",
"gXgXgXgXgXgXgXgXgXgXgXgXgXgXgXgXgXgXgXgXM 3 O X X O . G g.W.B.n.n.F w q gXd C 3.c. XtXgXgXgXgXgXgXgXgXgXgXgXgXgXgXgXgXgXgXgXgXgX",
"gXgXgXgXgXgXgXgXgXgXgXgXgXgXgXgXgXgXgX/ j X X X o # k { q.S.J.R.J.:.T ` s.^ b V { 0.m.gXgXgXgXgXgXgXgXgXgXgXgXgXgXgXgXgXgXgXgXgX",
"gXgXgXgXgXgXgXgXgXgXgXgXgXgXgXgXgXgXgXN 3 X X X @ 8 O.,.;.0.R.XXR.S.g.8.i.gXgXy c c G f.gXgXgXgXgXgXgXgXgXgXgXgXgXgXgXgXgXgXgXgX",
"gXgXgXgXgXgXgXgXgXgXgXgXgXgXgXgXgXgX$.3 o o X X 8 o.m.p.U e >.2.0 4 4 0 B gXgXgXp.G.OX1XgXgXgXgXgXgXgXgXgXgXgXgXgXgXgXgXgXgXgXgX",
"gXgXgXgXgXgXgXgXgXgXgXgXgXgXgXgXgX! d @ O   o z O.j.u.I j gXO.>.;.c.X.q x gXgXgXf.l.B.1XgXgXgXgXgXgXgXgXgXgXgXgXgXgXgXgXgXgXgXgX",
"gXgXgXgXgXgXgXgXgXgXgXgXgXgXgXgXgX~ * X # @ 8 =.j.j.R 7 = gXgX..j.G.,.w l gXgXgXi.9.z.$X,XgXgXgXgXgXgXgXgXgXgXgXgXgXgXgXgXgXgXgX",
"gXgXgXgXgXgXgXgXgXgXgXgXgXgXgXgXw.~ + O # 6 ,.m.a.| % O = gX> 9 =.0 5 & 2 gXgXgXgXI.`.A..XtXgXgXgXgXgXgXgXgXgXgXgXgXgXgXgXgXgXgX",
"gXgXgXgXgXgXgXgXgXgXgXgXgXgXgXgXg - O   z { v.h.W 2 @ O = gX< x x.X.S 9 & f gXgXgXgXC.(.6XuXgXgXgXgXgXgXgXgXgXgXgXgXgXgXgXgXgXgX",
"gXgXgXgXgXgXgXgXgXgXgXgXgXgXgXgXr # @ j { h.h._ 9   O O r gXt l 3.T Q q 0 k x gXgXgXgX~.).}.gXgXgXgXgXgXgXgXgXgXgXgXgXgXgXgXgXgX",
"gXgXgXgXgXgXgXgXgXgXgXgXgXgXgXgXr @ 6 o.v.b.=.2 .   O + = gXu i v A A A S A v J gXgXgXZ.5.x.4XgXgXgXgXgXgXgXgXgXgXgXgXgXgXgXgXgX",
"gXgXgXgXgXgXgXgXgXgXgXgXgXgXgXgXr l o.c.G.b.=.6   # + + = gXgXgXn R R 2.H.1.W q n gXgXgX%.c.6X.XgXgXgXgXgXgXgXgXgXgXgXgXgXgXgXgX",
"gXgXgXgXgXgXgXgXgXgXgXgXgXgXgXgXr j I X.=.E z 1   X + d m gXgXgXK Y T ;.7.A.H.R [ gXgXgX*.u.Q.-X,XgXgXgXgXgXgXgXgXgXgXgXgXgXgXgX",
"gXgXgXgXgXgXgXgXgXgXgXgXgXgXgXgXr 1 z L A 6     O O + m gXgXgXgX^ J =.9.:.B.S.1.%.gXgXgX .,.k.;X2XgXgXgXgXgXgXgXgXgXgXgXgXgXgXgX",
"gXgXgXgXgXgXgXgXgXgXgXgXgXgXgXgXu * 2 a.L $ @ O @ O - a gXgXgXgXK +.S.[.g.T T l.6.gXgXd.| E B.;X XgXgXgXgXgXgXgXgXgXgXgXgXgXgXgX",
"gXgXgXgXgXgXgXgXgXgXgXgXgXgXgXgXgXy - k 3.F.Y.j.G # C gXgXgXgXgX .K.K.N.1.1.g.(.0.Z.&X~.j.g.XX=X!.r.gXgXgXgXgXgXgXgXgXgXgXgXgXgX",
"gXgXgXgXgXgXgXgXgXgXgXgXgXgXgXgXgXgX+ o _ A.@X^.G.5.Z.{.gXgXgXZ.M.^.^.K.A.~.[.;XT.[.;XXXV.n.^.(.I.gXgXgXgXgXgXgXgXgXgXgXgXgXgXgX",
"gXgXgXgXgXgXgXgXgXgXgXgXgXgXgXgXgXgX: + o 9 v.Q.-X7X1X9X9X|.`.)._._.#X:X0XwXsXrXqX:X=XK.N.l.a.M.s.gXgXgXgXgXgXgXgXgXgXgXgXgXgXgX",
"gXgXgXgXgXgXgXgXgXgXgXgXgXgXgXgXgXgXgX= + @ 6 6 Y M.4XdXdXwX0X0XqXwXiXiXiXsXsXrX&X~.F.+.4.f.gXgXgXgXgXgXgXgXgXgXgXgXgXgXgXgXgXgX",
"gXgXgXgXgXgXgXgXgXgXgXgXgXgXgXgXgXgXgXgX< ; 7 V ' gXgX}.`.:X*X'.!.Z.d.C.!.F.m.a.C.i.s.gXgXgXgXgXgXgXgXgXgXgXgXgXgXgXgXgXgXgXgXgX",
"gXgXgXgXgXgXgXgXgXgXgXgXgXgXgXgXgXgXgXgXgXy n t.gXgXgXd.z.[.D.8.( s < s G 9 % 2 ( gXgXgXgXgXgXgXgXgXgXgXgXgXgXgXgXgXgXgXgXgXgXgX",
"gXgXgXgXgXgXgXgXgXgXgXgXgXgXgXgXgXgXgXgXgXgXgXgXgXgX3X-X_.D.0.Y > gXgXgX3 & 7 x gXgXgXgXgXgXgXgXgXgXgXgXgXgXgXgXgXgXgXgXgXgXgXgX",
"gXgXgXgXgXgXgXgXgXgXgXgXgXgXgXgXgXgXgXgXgXgXgXgXgX3X`.E.S.8.J f gXgXgXgX, q c B gXgXgXgXgXgXgXgXgXgXgXgXgXgXgXgXgXgXgXgXgXgXgXgX",
"gXgXgXgXgXgXgXgXgXgXgXgXgXgXgXgXgXgXgXgXgXgXgXgXs./.q.7.5.V g gXgXgXgXgXa v L K gXgXgXgXgXgXgXgXgXgXgXgXgXgXgXgXgXgXgXgXgXgXgXgX",
"gXgXgXgXgXgXgXgXgXgXgXgXgXgXgXgXgXgXgXgXgXgXgXa 8 S Z W _ , gXgXgXgXgXgX, v R  .gXgXgXgXgXgXgXgXgXgXgXgXgXgXgXgXgXgXgXgXgXgXgXgX",
"gXgXgXgXgXgXgXgXgXgXgXgXgXgXgXgXgXgXgXgXgXgXgXs.Z.K.;.Q C gXgXgXgXgXgXgXy G ..#.gXgXgXgXgXgXgXgXgXgXgXgXgXgXgXgXgXgXgXgXgXgXgXgX",
"gXgXgXgXgXgXgXgXgXgXgXgXgXgXgXgXgXgXgXgXgXgXgXy.C.[.1.Q n gXgXgXgXgXgXgX, I 3.#.gXgXgXgXgXgXgXgXgXgXgXgXgXgXgXgXgXgXgXgXgXgXgXgX",
"gXgXgXgXgXgXgXgXgXgXgXgXgXgXgXgXgXgXgXgXgXgXgX~ 4.T.+.K m gXgXgXgXgXgXgXu [ 5.#.gXgXgXgXgXgXgXgXgXgXgXgXgXgXgXgXgXgXgXgXgXgXgXgX",
"gXgXgXgXgXgXgXgXgXgXgXgXgXgXgXgXgXgXgXgXgXgXgXgX[ Y P / gXgXgXgXgXgXgXgXgXg N / gXgXgXgXgXgXgXgXgXgXgXgXgXgXgXgXgXgXgXgXgXgXgXgX",
"gXgXgXgXgXgXgXgXgXgXgXgXgXgXgXgXgXgXgXgXgXgXgXgX%.O.x gXgXgXgXgXgXgXgXgXgXgXM / w.gXgXgXgXgXgXgXgXgXgXgXgXgXgXgXgXgXgXgXgXgXgXgX",
"gXgXgXgXgXgXgXgXgXgXgXgXgXgXgXgXgXgXgXgXgXgXgX&.5.9.7 gXgXgXgXgXgXgXgXgXgXgXgX/ &.w.gXgXgXgXgXgXgXgXgXgXgXgXgXgXgXgXgXgXgXgXgXgX",
"gXgXgXgXgXgXgXgXgXgXgXgXgXgXgXgXgXgXgXgXgXgXgX&.8.u.s gXgXgXgXgXgXgXgXgXgXgXgX' *.w.gXgXgXgXgXgXgXgXgXgXgXgXgXgXgXgXgXgXgXgXgXgX",
"gXgXgXgXgXgXgXgXgXgXgXgXgXgXgXgXgXgXgXgXgXgXgX&.d.T.k gXgXgXgXgXgXgXgXgXgXgXgX@.] #.gXgXgXgXgXgXgXgXgXgXgXgXgXgXgXgXgXgXgXgXgXgX",
"gXgXgXgXgXgXgXgXgXgXgXgXgXgXgXgXgXgXgXgXgXgXgX*.C.).k gXgXgXgXgXgXgXgXgXgXgXgX) ' ] &.gXgXgXgXgXgXgXgXgXgXgXgXgXgXgXgXgXgXgXgXgX",
"gXgXgXgXgXgXgXgXgXgXgXgXgXgXgXgXgXgXgXgXgXgXgX&.x.~.k gXgXgXgXgXgXgXgXgXgXgXgXgX@.} *.gXgXgXgXgXgXgXgXgXgXgXgXgXgXgXgXgXgXgXgXgX",
"gXgXgXgXgXgXgXgXgXgXgXgXgXgXgXgXgXgXgXgXgXgXgXr.9.l.j gXgXgXgXgXgXgXgXgXgXgXgXgX) ' ] &.gXgXgXgXgXgXgXgXgXgXgXgXgXgXgXgXgXgXgXgX",
"gXgXgXgXgXgXgXgXgXgXgXgXgXgXgXgXgXgXgXgXgXgXgX<.a.K.k gXgXgXgXgXgXgXgXgXgXgXgXgXgX) ' *.$.gXgXgXgXgXgXgXgXgXgXgXgXgXgXgXgXgXgXgX",
"gXgXgXgXgXgXgXgXgXgXgXgXgXgXgXgXgXgXgXgXgXgXgX&.C._.x gXgXgXgXgXgXgXgXgXgXgXgXgXgXgX@.*.] @.gXgXgXgXgXgXgXgXgXgXgXgXgXgXgXgXgXgX",
"gXgXgXgXgXgXgXgXgXgXgXgXgXgXgXgXgXgXgXgXgXgXgX .c.].x gXgXgXgXgXgXgXgXgXgXgXgXgXgXgXgX] ..*.@.gXgXgXgXgXgXgXgXgXgXgXgXgXgXgXgXgX",
"gXgXgXgXgXgXgXgXgXgXgXgXgXgXgXgXgXgXgXgXgXgXgXj T H.f gXgXgXgXgXgXgXgXgXgXgXgXgXgXgXgX@.{ o._ d gXgXgXgXgXgXgXgXgXgXgXgXgXgXgXgX",
"gXgXgXgXgXgXgXgXgXgXgXgXgXgXgXgXgXgXgXgXs.U.d.-.;.6.M gXgXgXgXgXgXgXgXgXgXgXgXgXgXgXgX$.O.o.G i r gXgXgXgXgXgXgXgXgXgXgXgXgXgXgX",
"gXgXgXgXgXgXgXgXgXgXgXgXgXgXgXgXgXgXgXa d.@X@XOXD...$.gXgXgXgXgXgXgXgXgXgXgXgXgXgXgXw.&.,.*.] i gXgXgXgXgXgXgXgXgXgXgXgXgXgXgXgX",
"gXgXgXgXgXgXgXgXgXgXgXgXgXgXgXgXgXgX( 4.v.b.n.b.9.| @.gXgXgXgXgXgXgXgXgXgXgXgXgXgXgXw.%.{ _ @.gXgXgXgXgXgXgXgXgXgXgXgXgXgXgXgXgX",
"gXgXgXgXgXgXgXgXgXgXgXgXgXgXgXgXgXa i V V V V v v l g gXgXgXgXgXgXgXgXgXgXgXgXgXgXg b l l b gXgXgXgXgXgXgXgXgXgXgXgXgXgXgXgXgXgX",
"gXgXgXgXgXgXgXgXgXgXgXgXgXgXgXgXp t = - - * * * * < t gXgXgXgXgXgXgXgXgXgXgXgXgXp t * = r r gXgXgXgXgXgXgXgXgXgXgXgXgXgXgXgXgXgX"
};
