/* XPM */
static char *result[] = {
/* columns rows colors chars-per-pixel */
"64 64 229 2 ",
"   c #040605",
".  c #0B0504",
"X  c #050807",
"o  c #050609",
"O  c #090709",
"+  c #06090B",
"@  c #0B0B0A",
"#  c #0D0C07",
"$  c #140D0A",
"%  c #1A130D",
"&  c #17140E",
"*  c #030B13",
"=  c #0A0E19",
"-  c #051414",
";  c #0B1316",
":  c #04131C",
">  c #0B131B",
",  c #0D191C",
"<  c #151615",
"1  c #1B1A15",
"2  c #171A1A",
"3  c #100C12",
"4  c #24170B",
"5  c #271E14",
"6  c #1E221A",
"7  c #2E231B",
"8  c #28281C",
"9  c #342A19",
"0  c #3C2D1D",
"q  c #342614",
"w  c #28210F",
"e  c #041322",
"r  c #0C1D25",
"t  c #051C2A",
"y  c #051627",
"u  c #121D25",
"i  c #0A222A",
"p  c #0F2023",
"a  c #1B2224",
"s  c #1C262D",
"d  c #122127",
"f  c #1F2E3B",
"g  c #222623",
"h  c #2D2E2D",
"j  c #272826",
"k  c #322B24",
"l  c #382D26",
"z  c #2B332E",
"x  c #323026",
"c  c #34322A",
"v  c #3C352D",
"b  c #3B3626",
"n  c #252E32",
"m  c #2C3234",
"M  c #293739",
"N  c #3A3A35",
"B  c #333D3B",
"V  c #3C3C3B",
"C  c #333835",
"Z  c #413423",
"A  c #453A26",
"S  c #443C2D",
"D  c #493B2B",
"F  c #4B3F33",
"G  c #423D37",
"H  c #412F20",
"J  c #3E423A",
"K  c #4C4335",
"L  c #44443D",
"P  c #4C443A",
"I  c #46473B",
"U  c #544632",
"Y  c #544C3D",
"T  c #584938",
"R  c #54452F",
"E  c #614F3E",
"W  c #62523D",
"Q  c #293C44",
"!  c #333D46",
"~  c #3B4343",
"^  c #3D4B4D",
"/  c #374646",
"(  c #3D4D54",
")  c #3A4955",
"_  c #2C4243",
"`  c #454646",
"'  c #4B4E4B",
"]  c #484947",
"[  c #534E45",
"{  c #5A4E43",
"}  c #514E49",
"|  c #4F524C",
" . c #5C5244",
".. c #5E594B",
"X. c #555249",
"o. c #434D56",
"O. c #425252",
"+. c #4B5B5C",
"@. c #4F5659",
"#. c #535553",
"$. c #545C5B",
"%. c #5D5D5A",
"&. c #565854",
"*. c #645443",
"=. c #645B4D",
"-. c #6B5B4C",
";. c #675847",
":. c #645C52",
">. c #685C51",
",. c #615B56",
"<. c #725F4C",
"1. c #5B625F",
"2. c #75634D",
"3. c #656254",
"4. c #6B6354",
"5. c #63635C",
"6. c #6D655A",
"7. c #6E6B5F",
"8. c #736553",
"9. c #746957",
"0. c #766A5B",
"q. c #7C6C5C",
"w. c #796855",
"e. c #7A725A",
"r. c #485D67",
"t. c #746F64",
"y. c #7C7364",
"u. c #7E786C",
"i. c #66787C",
"p. c #727774",
"a. c #74797B",
"s. c #787E74",
"d. c #6D6F67",
"f. c #83725C",
"g. c #8A775F",
"h. c #837465",
"j. c #8A7A64",
"k. c #847B6B",
"l. c #8A7D6A",
"z. c #897667",
"x. c #907D69",
"c. c #917B65",
"v. c #816F64",
"b. c #79877F",
"n. c #8E806A",
"m. c #94826B",
"M. c #99866B",
"N. c #878375",
"B. c #938673",
"V. c #9A8771",
"C. c #968974",
"Z. c #9A8A74",
"A. c #928B7B",
"S. c #9A8C7D",
"D. c #9C927A",
"F. c #A28D76",
"G. c #AA947B",
"H. c #AA997E",
"J. c #A4927A",
"K. c #647885",
"L. c #9D9584",
"P. c #9A9B8F",
"I. c #8D958D",
"U. c #A49582",
"Y. c #AB9B84",
"T. c #A29B8B",
"R. c #AC9985",
"E. c #B29F89",
"W. c #96A09E",
"Q. c #ACA38D",
"!. c #B4A28C",
"~. c #BAA78B",
"^. c #AAA697",
"/. c #B3A594",
"(. c #BBAE9C",
"). c #B9AA95",
"_. c #BDB29C",
"`. c #B4B09B",
"'. c #98A9AA",
"]. c #9DBABF",
"[. c #AEACA5",
"{. c #B8B7A8",
"}. c #AABAB7",
"|. c #B6BBB5",
" X c #A9B2A9",
".X c #C1AC95",
"XX c #C6B39B",
"oX c #CBBB9A",
"OX c #CCB79A",
"+X c #CBBCAC",
"@X c #C7BAA3",
"#X c #D2BEA6",
"$X c #D5C4A8",
"%X c #C6C0B3",
"&X c #CDC5B3",
"*X c #CEC9BC",
"=X c #CBC5BA",
"-X c #D8CAB6",
";X c #DDD2BC",
":X c #D8D0B9",
">X c #CDC0A8",
",X c #E2D3BC",
"<X c #B7BFC4",
"1X c #BFCBC9",
"2X c #CFCEC3",
"3X c #C8D3CB",
"4X c #DCD8C8",
"5X c #C7D8DA",
"6X c #D8DBD3",
"7X c #EADCC7",
"8X c #E6DBC8",
"9X c #EADDCB",
"0X c #E5D8C3",
"qX c #E6DCD4",
"wX c #D8E0D4",
"eX c #F1E2CE",
"rX c #EDE3D3",
"tX c #E3E5DA",
"yX c #F6E9D6",
"uX c #E9E0CC",
"iX c #C3E4E8",
"pX c #D6E7E8",
"aX c #E4ECE9",
"sX c #F9EEE4",
"dX c #FDF3E4",
"fX c #F4F2E9",
"gX c #F8F3EB",
"hX c #EFF5F2",
"jX c None",
/* pixels */
"jXjXjXjXjXjXjXjXjXjXjXjXjXjXjXjXjXjXjXjXjXjXjXjXjXjXjXjXjXjXjXjXjXjXjXjXjXjXjXjXjXjXjXjXjXjXjXjXjXjXjXjXjXjXjXjXjXjXjXjXjXjXjXjX",
"jXjXjXjXjXjXjXjXjXjXjXjXjXjXjXjXjXjXjXjXjXjXjXjXjXjXjXjXiXpXaXaX1X].jXjXjXjXjXjXjXjXjXjXjXjXjXjXjXjXjXjXjXjXjXjXjXjXjXjXjXjXjXjX",
"jXjXjXjXjXjXjXjXjXjXjXjXjXjXjXjXjXjXjXjXjXjXjXjXjXjXjXjXaXgXdXuX&X`. XjXjXjXjXjXjXjXjXjXjXjXjXjXjXjXjXjXjXjXjXjXjXjXjXjXjXjXjXjX",
"jXjXjXjXjXjXjXjXjXjXjXjXjXjXjXjXjXjXjXjXjXjXjXjXjXjXjXhXgXdXeX#XoXoX{.jXjXjXjXjXjXjXjXjXjXjXjXjXjXjXjXjXjXjXjXjXjXjXjXjXjXjXjXjX",
"jXjXjXjXjXjXjXjXjXjXjXjXjXjXjXjXjXjXjXjXjXjXjXjXjXiXaXfXdX7X#XoXoXoX@X|.].jXjXjXjXjXjXjXjXjXjXjXjXjXjXjXjXjXjXjXjXjXjXjXjXjXjXjX",
"jXjXjXjXjXjXjXjXjXjXjXjXjXjXjXjXjXjXjXjXjXjXjXjXjXpXfXyX7X$XoXoX:X7X8X4XiXjXjXjXjXjXjXjXjXjXjXjXjXjXjXjXjXjXjXjXjXjXjXjXjXjXjXjX",
"jXjXjXjXjXjXjXjXjXjXjXjXjXjXjXjXjXjXjXjXjXjXjXjXjXpXfXeX$XOXOXH.Q.*XsX2X}.jXjXjXjXjXjXjXjXjXjXjXjXjXjXjXjXjXjXjXjXjXjXjXjXjXjXjX",
"jXjXjXjXjXjXjXjXjXjXjXjXjXjXjXjXjXjXjXjXjXjXjXjXjXpXaX7X$X#X.XH 4 K qX5.d jXjXjXjXjXjXjXjXjXjXjXjXjXjXjXjXjXjXjXjXjXjXjXjXjXjXjX",
"jXjXjXjXjXjXjXjXjXjXjXjXjXjXjXjXjXjXjXjXjXjXjXjXjXjXP.U..X$X-XH $ b +XY , jXjXjXjXjXjXjXjXjXjXjXjXjXjXjXjXjXjXjXjXjXjXjXjXjXjXjX",
"jXjXjXjXjXjXjXjXjXjXjXjXjXjXjXjXjXjXjXjXjXjXjXjXjXjXi.k.G.OX-Xz.2.w.h.3.r.jXjXjXjXjXjXjXjXjXjXjXjXjXjXjXjXjXjXjXjXjXjXjXjXjXjXjX",
"jXjXjXjXjXjXjXjXjXjXjXjXjXjXjXjXjXjXjXjXjXjXjXjXjXjXjXa.t.V.XX,X7X@XZ A.}.jXjXjXjXjXjXjXjXjXjXjXjXjXjXjXjXjXjXjXjXjXjXjXjXjXjXjX",
"jXjXjXjXjXjXjXjXjXjXjXjXjXjXjXjXjXjXjXjXjXjXjXjXjXjXjXjXg b 2.w.Z.E.^.P.I.jXjXjXjXjXjXjXjXjXjXjXjXjXjXjXjXjXjXjXjXjXjXjXjXjXjXjX",
"jXjXjXjXjXjXjXjXjXjXjXjXjXjXjXjXjXjXjXjXjXjXjXjXjXjXjXjXz z 0 0 -.x.4.d.jXjXjXjXjXjXjXjXjXjXjXjXjXjXjXjXjXjXjXjXjXjXjXjXjXjXjXjX",
"jXjXjXjXjXjXjXjXjXjXjXjXjXjXjXjXjXjXjXjXjXjXjXjXjXjXjXjXb...Z 0 *.8.1 jXjXjXjXjXjXjXjXjXjXjXjXjXjXjXjXjXjXjXjXjXjXjXjXjXjXjXjXjX",
"jXjXjXjXjXjXjXjXjXjXjXjXjXjXjXjXjXjXjXjXjXjXjXjXjXjXjXwX$X_./.J.x.2.1 jXjXjXjXjXjXjXjXjXjXjXjXjXjXjXjXjXjXjXjXjXjXjXjXjXjXjXjXjX",
"jXjXjXjXjXjXjXjXjXjXjXjXjXjXjXjXjXjXjXjXjXjXjXjXjXjX3X@X~.n.T j.F.F.A.` jXjXjXjXjXjXjXjXjXjXjXjXjXjXjXjXjXjXjXjXjXjXjXjXjXjXjXjX",
"jXjXjXjXjXjXjXjXjXjXjXjXjXjXjXjXjXjXjXjXjXjXjXjXjX3X=XH.M.*.4 T f.J.!.3./ jXjXjXjXjXjXjXjXjXjXjXjXjXjXjXjXjXjXjXjXjXjXjXjXjXjXjX",
"jXjXjXjXjXjXjXjXjXjXjXjXjXjXjXjXjXjXjXjXjXjXjXjX6X-X/.z.-.K 5 5 W n.j.D.I.jXjXjXjXjXjXjXjXjXjXjXjXjXjXjXjXjXjXjXjXjXjXjXjXjXjXjX",
"jXjXjXjXjXjXjXjXjXjXjXjXjXjXjXjXjXjXjXjXjXjXjX5X=XR.c.>.x P B.B.H..XG..XS.m > : : e : f K.jXjXjXjXjXjXjXjXjXjXjXjXjXjXjXjXjXjXjX",
"jXjXjXjXjXjXjXjXjXjXjXjXjXjXjXjXjXjXjXjXjXjXjXqX!.x.>.C m G  .W g.G.M.~.J.Y %     o   < ` +.jXjXjXjXjXjXjXjXjXjXjXjXjXjXjXjXjXjX",
"jXjXjXjXjXjXjXjXjXjXjXjXjXjXjXjXjXjXjXjXjXjXW.{.h.=.L u ( ` 7 q W M.m.F.x.t.k .   X     # ~ jXjXjXjXjXjXjXjXjXjXjXjXjXjXjXjXjXjX",
"jXjXjXjXjXjXjXjXjXjXjXjXjXjXjXjXjXjXjXjXjXK.#.9 b 8 r jXi.p.y.C.~.XX.XM.w.-.*.k   X X X X n ! jXjXjXjXjXjXjXjXjXjXjXjXjXjXjXjXjX",
"jXjXjXjXjXjXjXjXjXjXjXjXjXjXjXjXjXjXjXjXjX<X^.l.4.' jXjXO.I b R T *.m.T G  .v.:.c @ O O o < M jXjXjXjXjXjXjXjXjXjXjXjXjXjXjXjXjX",
"jXjXjXjXjXjXjXjXjXjXjXjXjXjXjXjXjXjXjXjXjXpX-XR.N.jXjXjXM 8 w A Z A 9.V j F q.h.3.8 & + O o a _ jXjXjXjXjXjXjXjXjXjXjXjXjXjXjXjX",
"jXjXjXjXjXjXjXjXjXjXjXjXjXjXjXjXjXjXjXjXjX6X/.<.y.jXjXjXM x I Y.Z.8.&.jXjX< F 9.k.>.k O O O O - jXjXjXjXjXjXjXjXjXjXjXjXjXjXjXjX",
"jXjXjXjXjXjXjXjXjXjXjXjXjXjXjXjXjXjXjXjX5XT.R.R.t.jXjXjXp 2 w A D F a jXjX= < S 8.l.=.v O + O = o.jXjXjXjXjXjXjXjXjXjXjXjXjXjXjX",
"jXjXjXjXjXjXjXjXjXjXjXjXjXjXjXjXjXjXjXjXpX).U.^.jXjXjXjX6 & 4 0 T X.; jXjX* X 5 F q.v.>.k @ O 3 M jXjXjXjXjXjXjXjXjXjXjXjXjXjXjX",
"jXjXjXjXjXjXjXjXjXjXjXjXjXjXjXjXjXjXjXjX:X@X/.jXjXjXjXz w % q R 9.7.2 jXjX* o o $ P y.k.>.j @ @ * jXjXjXjXjXjXjXjXjXjXjXjXjXjXjX",
"jXjXjXjXjXjXjXjXjXjXjXjXjXjXjXjXjXjX5X|.e.B.I.jXjXjXM x 9 q q q b x r jXjX* + + O $ K 8.l.-.c O * jXjXjXjXjXjXjXjXjXjXjXjXjXjXjX",
"jXjXjXjXjXjXjXjXjXjXjXjXjXjXjXjXjX'.3X%X=.d.jXjXM B b K W W A K b m jXjXjX* + + o X N 9.B.l.-.c ; jXjXjXjXjXjXjXjXjXjXjXjXjXjXjX",
"jXjXjXjXjXjXjXjXjXjXjXjXjXjXjXjXjX|.&X/.%.&.jXjX_ I U 2.f.2.U U J jXjXjXjX> + + o X k { f.q.2.P ; jXjXjXjXjXjXjXjXjXjXjXjXjXjXjX",
"jXjXjXjXjXjXjXjXjXjXjXjXjXjXjXjXjX4X!.q...jXjXjX&. .w.~.2.U T A B jXjXjXjXjX; + O O . % b A b k > jXjXjXjXjXjXjXjXjXjXjXjXjXjXjX",
"jXjXjXjXjXjXjXjXjXjXjXjXjXjXjXjXjX9X!.2.S jXjXjXjX-.<.<.<.j.G.*.N jXjXjXjXjX- X O . . . % -.{ $ * jXjXjXjXjXjXjXjXjXjXjXjXjXjXjX",
"jXjXjXjXjXjXjXjXjXjXjXjXjXjXjXjXa.-X.Xj.*.k.T.jX>.h.x.E W f.R.x...J jXjXjXjX6 2 $ N { *.Y =.v * y jXjXjXjXjXjXjXjXjXjXjXjXjXjXjX",
"jXjXjXjXjXjXjXjXjXjXjXjXjXjXjXjXjX@XXX!.j.D._.&Xh.T.(.z.w.f.x..XC.3.jXjXjXjXjX] v x.@X+XU.l + e jXjXjXjXjXjXjXjXjXjXjXjXjXjXjXjX",
"jXjXjXjXjXjXjXjXjXjXjXjXjXjXjXjXjXb.N.n.g.H.OX,X8XrXeX7X,X$X#X).!.Q.^.^.|.tX2X:X2X@XE.z.5 3 * e jXjXjXjXjXjXjXjXjXjXjXjXjXjXjXjX",
"jXjXjXjXjXjXjXjXjXjXjXjXjXjXjXjXjXjXi.p.u.9.n._.&XrXdXdXyXyXeX0X;X,X,X;X8XfXtX&XL.3.[ l # + : jXjXjXjXjXjXjXjXjXjXjXjXjXjXjXjXjX",
"jXjXjXjXjXjXjXjXjXjXjXjXjXjXjXjXjXjXjXjXa.J @.N.L.[.&X%X*X*X*X=X*X4X0XeXuX8XaX|.L a < # + t jXjXjXjXjXjXjXjXjXjXjXjXjXjXjXjXjXjX",
"jXjXjXjXjXjXjXjXjXjXjXjXjXjXjXjXjXjXjXjXjXjXjXjX1.N 1 w G V a a G 6.S.).~.jXjXjXjXi.( s e jXjXjXjXjXjXjXjXjXjXjXjXjXjXjXjXjXjXjX",
"jXjXjXjXjXjXjXjXjXjXjXjXjXjXjXjXjXjXjXjXjXjXjXjXjXB 8 % 5 n jXjXs m 6.V.Y.{.6XjXjXjXjXjXjXjXjXjXjXjXjXjXjXjXjXjXjXjXjXjXjXjXjXjX",
"jXjXjXjXjXjXjXjXjXjXjXjXjXjXjXjXjXjXjXjXjXjXjXjXjXB x 7 2 r jXjXjXd V 8.V.~.+X<XjXjXjXjXjXjXjXjXjXjXjXjXjXjXjXjXjXjXjXjXjXjXjXjX",
"jXjXjXjXjXjXjXjXjXjXjXjXjXjXjXjXjXjXjXjXjXjXjXjXjXQ N K a i jXjXjXjXr J 4.g.c.[.5XjXjXjXjXjXjXjXjXjXjXjXjXjXjXjXjXjXjXjXjXjXjXjX",
"jXjXjXjXjXjXjXjXjXjXjXjXjXjXjXjXjXjXjXjXjXjXjXjXjXjX} P 8 i jXjXjXjXjXd c =.U P ] , jXjXjXjXjXjXjXjXjXjXjXjXjXjXjXjXjXjXjXjXjXjX",
"jXjXjXjXjXjXjXjXjXjXjXjXjXjXjXjXjXjXjXjXjXjXjXjXjXjX%.X.g i jXjXjXjXjXjXs I K ;.e.X.jXjXjXjXjXjXjXjXjXjXjXjXjXjXjXjXjXjXjXjXjXjX",
"jXjXjXjXjXjXjXjXjXjXjXjXjXjXjXjXjXjXjXjXjXjXjXjXjXjX%.,.h t jXjXjXjXjXjXjXC { C._.N.jXjXjXjXjXjXjXjXjXjXjXjXjXjXjXjXjXjXjXjXjXjX",
"jXjXjXjXjXjXjXjXjXjXjXjXjXjXjXjXjXjXjXjXjXjXjXjXjXjX%.t.m i jXjXjXjXjXjXjXM [ B.Q./ jXjXjXjXjXjXjXjXjXjXjXjXjXjXjXjXjXjXjXjXjXjX",
"jXjXjXjXjXjXjXjXjXjXjXjXjXjXjXjXjXjXjXjXjXjXjXjXjXO.' C f jXjXjXjXjXjXjXjXjX'  ...J jXjXjXjXjXjXjXjXjXjXjXjXjXjXjXjXjXjXjXjXjXjX",
"jXjXjXjXjXjXjXjXjXjXjXjXjXjXjXjXjXjXjXjXjXjXjXjXjXo./ i jXjXjXjXjXjXjXjXjXjXB S Y +.jXjXjXjXjXjXjXjXjXjXjXjXjXjXjXjXjXjXjXjXjXjX",
"jXjXjXjXjXjXjXjXjXjXjXjXjXjXjXjXjXjXjXjXjXjXjXjXjX| ( jXjXjXjXjXjXjXjXjXjXjX, K y.$.jXjXjXjXjXjXjXjXjXjXjXjXjXjXjXjXjXjXjXjXjXjX",
"jXjXjXjXjXjXjXjXjXjXjXjXjXjXjXjXjXjXjXjXjXjXjXjX$.| ^ jXjXjXjXjXjXjXjXjXjXjX, K h.%.jXjXjXjXjXjXjXjXjXjXjXjXjXjXjXjXjXjXjXjXjXjX",
"jXjXjXjXjXjXjXjXjXjXjXjXjXjXjXjXjXjXjXjXjXjXjXr.#.' ( jXjXjXjXjXjXjXjXjXjXjX, X.S.5.jXjXjXjXjXjXjXjXjXjXjXjXjXjXjXjXjXjXjXjXjXjX",
"jXjXjXjXjXjXjXjXjXjXjXjXjXjXjXjXjXjXjXjXjXjXjX+.' o.) jXjXjXjXjXjXjXjXjXjXjX, 4._.5.jXjXjXjXjXjXjXjXjXjXjXjXjXjXjXjXjXjXjXjXjXjX",
"jXjXjXjXjXjXjXjXjXjXjXjXjXjXjXjXjXjXjXjXjXjXr.$.] ( jXjXjXjXjXjXjXjXjXjXjXjX; 4.(.5.jXjXjXjXjXjXjXjXjXjXjXjXjXjXjXjXjXjXjXjXjXjX",
"jXjXjXjXjXjXjXjXjXjXjXjXjXjXjXjXjXjXjXjXjXjX+.[ ^ jXjXjXjXjXjXjXjXjXjXjXjXjX;  .A.%.jXjXjXjXjXjXjXjXjXjXjXjXjXjXjXjXjXjXjXjXjXjX",
"jXjXjXjXjXjXjXjXjXjXjXjXjXjXjXjXjXjXjXjXjX+.| ] ^ jXjXjXjXjXjXjXjXjXjXjXjXjX; [ B.%.jXjXjXjXjXjXjXjXjXjXjXjXjXjXjXjXjXjXjXjXjXjX",
"jXjXjXjXjXjXjXjXjXjXjXjXjXjXjXjXjXjXjXjX( #.| ^ jXjXjXjXjXjXjXjXjXjXjXjXjXjX- 4.`.5.jXjXjXjXjXjXjXjXjXjXjXjXjXjXjXjXjXjXjXjXjXjX",
"jXjXjXjXjXjXjXjXjXjXjXjXjXjXjXjXjXjXjXo.#.} O.jXjXjXjXjXjXjXjXjXjXjXjXjXjXjX- 6._.5.jXjXjXjXjXjXjXjXjXjXjXjXjXjXjXjXjXjXjXjXjXjX",
"jXjXjXjXjXjXjXjXjXjXjXjXjXjXjXjXjXjX/ ' =.] jXjXjXjXjXjXjXjXjXjXjXjXjXjXjXjX- ..L.P / jXjXjXjXjXjXjXjXjXjXjXjXjXjXjXjXjXjXjXjXjX",
"jXjXjXjXjXjXjXjXjXjXjXjXjXjXjXjXjX: h [ =.} jXjXjXjXjXjXjXjXjXjXjXjXjXjXjXjXt ` 0.l } jXjXjXjXjXjXjXjXjXjXjXjXjXjXjXjXjXjXjXjXjX",
"jXjXjXjXjXjXjXjXjXjXjXjXjXjXjXjXjX: h [ *.&.jXjXjXjXjXjXjXjXjXjXjXjXjXjXjXjXjX#.6.E.(.{. XB t jXjXjXjXjXjXjXjXjXjXjXjXjXjXjXjXjX",
"jXjXjXjXjXjXjXjXjXjXjXjXjXjXjXjXjXjX_ ] } =.%.jXjXjXjXjXjXjXjXjXjXjXjXjXjXjXjX@.6.U.U.U.U.:./ jXjXjXjXjXjXjXjXjXjXjXjXjXjXjXjXjX",
"jXjXjXjXjXjXjXjXjXjXjXjXjXjXjXjXjXjXjX^ N P ` ) jXjXjXjXjXjXjXjXjXjXjXjXjXjXQ ~ } >.4.>.:.,.] n jXjXjXjXjXjXjXjXjXjXjXjXjXjXjXjX",
"jXjXjXjXjXjXjXjXjXjXjXjXjXjXjXjXjXjXjXjXe = = e t jXjXjXjXjXjXjXjXjXjXjXjXjXy e = > > ; > ; > : y jXjXjXjXjXjXjXjXjXjXjXjXjXjXjX",
"jXjXjXjXjXjXjXjXjXjXjXjXjXjXjXjXjXjXjXjXjXjXjXjXjXjXjXjXjXjXjXjXjXjXjXjXjXjXjXjXjXjXjXjXjXjXjXjXjXjXjXjXjXjXjXjXjXjXjXjXjXjXjXjX"
};
