/* XPM */
static char *result[] = {
/* columns rows colors chars-per-pixel */
"64 64 229 2 ",
"   c #0A0A05",
".  c #0D0D0B",
"X  c #020C0C",
"o  c #140E0B",
"O  c #140D04",
"+  c #09100E",
"@  c #15120D",
"#  c #1C130B",
"$  c #181106",
"%  c #030D15",
"&  c #060F17",
"*  c #0B1213",
"=  c #04131C",
"-  c #071B1E",
";  c #0A1B1D",
":  c #0A1319",
">  c #1C1513",
",  c #1C1914",
"<  c #131C1E",
"1  c #171816",
"2  c #22190E",
"3  c #231B13",
"4  c #271C16",
"5  c #1A211D",
"6  c #2C241C",
"7  c #282419",
"8  c #32251C",
"9  c #332B1E",
"0  c #36291A",
"q  c #0B1C2A",
"w  c #081824",
"e  c #151B23",
"r  c #020F20",
"t  c #09202B",
"y  c #132223",
"u  c #1B2424",
"i  c #15252B",
"p  c #1D272C",
"a  c #162932",
"s  c #1E3336",
"d  c #252E2C",
"f  c #292726",
"g  c #332C23",
"h  c #3A2E24",
"j  c #342B25",
"k  c #29322E",
"l  c #3E3223",
"z  c #3C332A",
"x  c #3B382D",
"c  c #353428",
"v  c #283639",
"b  c #3C3B35",
"n  c #383634",
"m  c #222E33",
"M  c #44392C",
"N  c #473927",
"B  c #4A3E34",
"V  c #443B34",
"C  c #3F453F",
"Z  c #434235",
"A  c #4C4336",
"S  c #42423B",
"D  c #4C443C",
"F  c #4F4F3F",
"G  c #53453A",
"H  c #544A3D",
"J  c #574838",
"K  c #544734",
"L  c #63523C",
"P  c #3D4647",
"I  c #3B525B",
"U  c #484843",
"Y  c #534B43",
"T  c #594D41",
"R  c #524741",
"E  c #4B534A",
"W  c #5D544C",
"Q  c #5D594D",
"!  c #595347",
"~  c #494B51",
"^  c #4C5453",
"/  c #4A595E",
"(  c #595B56",
")  c #62554B",
"_  c #635C4C",
"`  c #685848",
"'  c #705D4A",
"]  c #635C53",
"[  c #6C5D51",
"{  c #605350",
"}  c #604E41",
"|  c #746149",
" . c #6C6053",
".. c #6C645A",
"X. c #6D685B",
"o. c #63645D",
"O. c #736355",
"+. c #736955",
"@. c #7A6C54",
"#. c #73665B",
"$. c #756A5D",
"%. c #7B6B5D",
"&. c #786751",
"*. c #7C725E",
"=. c #69604F",
"-. c #4B5B64",
";. c #565D61",
":. c #5C6667",
">. c #4F666C",
",. c #6A6B68",
"<. c #736C61",
"1. c #7C6D60",
"2. c #7E7264",
"3. c #74726A",
"4. c #7B746D",
"5. c #7C7869",
"6. c #6C7874",
"7. c #647576",
"8. c #797872",
"9. c #676D71",
"0. c #84735E",
"q. c #87765A",
"w. c #806F5E",
"e. c #837564",
"r. c #8B7A64",
"t. c #837B6C",
"y. c #8B7C6A",
"u. c #817664",
"i. c #937D64",
"p. c #917D6A",
"a. c #887D75",
"s. c #7D806F",
"d. c #8C806C",
"f. c #93836C",
"g. c #9B856C",
"h. c #98856A",
"j. c #8A8375",
"k. c #89847A",
"l. c #938472",
"z. c #9C8B72",
"x. c #988976",
"c. c #9D937C",
"v. c #A48E74",
"b. c #A39176",
"n. c #A5937C",
"m. c #AC977C",
"M. c #A58C6E",
"N. c #677C81",
"B. c #737981",
"V. c #7B8581",
"C. c #888A86",
"Z. c #928C81",
"A. c #89948D",
"S. c #9B9386",
"D. c #98968A",
"F. c #889593",
"G. c #939B96",
"H. c #AC9C83",
"J. c #A29D8C",
"K. c #A69884",
"L. c #B19E86",
"P. c #A49E94",
"I. c #9AA29C",
"U. c #ABA28C",
"Y. c #ADA085",
"T. c #B8A48A",
"R. c #ABA593",
"E. c #A7A799",
"W. c #BAAC95",
"Q. c #BBAD9B",
"!. c #B3A997",
"~. c #BCB39C",
"^. c #B6B29A",
"/. c #96A7A1",
"(. c #AAADA5",
"). c #A9B4AB",
"_. c #A8B3AA",
"`. c #BBB3A3",
"'. c #BABBAA",
"]. c #B9B6AA",
"[. c #A8B9B5",
"{. c #B5BBB4",
"}. c #BBBCB2",
"|. c #B5ADA2",
" X c #C4AE93",
".X c #C2B195",
"XX c #C3B49B",
"oX c #CBB69A",
"OX c #CDB99C",
"+X c #CCB596",
"@X c #D2B89E",
"#X c #C4BDAC",
"$X c #C8B9A5",
"%X c #D1BEA5",
"&X c #D4BFAA",
"*X c #C4BDB1",
"=X c #B9C7BF",
"-X c #CCC2AA",
";X c #D4C2A8",
":X c #CCC7B6",
">X c #DBCCB6",
",X c #D4C8B6",
"<X c #D3D0BD",
"1X c #E3D2BC",
"2X c #E2CEB8",
"3X c #BEC4C1",
"4X c #ADD7E5",
"5X c #C3CAC4",
"6X c #C6CFC9",
"7X c #D4CEC4",
"8X c #DCD2C5",
"9X c #D8D5CA",
"0X c #C9DCDC",
"qX c #D6DCD8",
"wX c #CCD5CF",
"eX c #E5D8CA",
"rX c #E8DFD5",
"tX c #EDE1CC",
"yX c #ECE5D3",
"uX c #EAE7D9",
"iX c #F5E9D6",
"pX c #C5DEE4",
"aX c #D1DFE6",
"sX c #D9E4E3",
"dX c #D6ECEB",
"fX c #E6EAE4",
"gX c #FBF4E8",
"hX c #EAF5F1",
"jX c None",
/* pixels */
"jXjXjXjXjXjXjXjXjXjXjXjXjXjXjXjXjXjXjXjXjXjXjXjXjXjXjXjXjXjXjXjXjXjXjXjXjXjXjXjXjXjXjXjXjXjXjXjXjXjXjXjXjXjXjXjXjXjXjXjXjXjXjXjX",
"jXjXjXjXjXjXjXjXjXjXjXjXjXjXjXjXjXjXjXjXjXjXjXjXjXjXjXjXjXjXjXjXjXjXjXjXjXjXjXjXjXjXjXjXjXjXjXjXjXjXjXjXjXjXjXjXjXjXjXjXjXjXjXjX",
"jXjXjXjXjXjXjXjXjXjXjXjXjXjXjXjXjXjXjXjXjXjXjXjXjXjXjXjXG.wXhXhXhX5XG.jXjXjXjXjXjXjXjXjXjXjXjXjXjXjXjXjXjXjXjXjXjXjXjXjXjXjXjXjX",
"jXjXjXjXjXjXjXjXjXjXjXjXjXjXjXjXjXjXjXjXjXjXjXjXjXjXjXD.W.eXgXgXgXeX|.G.jXjXjXjXjXjXjXjXjXjXjXjXjXjXjXjXjXjXjXjXjXjXjXjXjXjXjXjX",
"jXjXjXjXjXjXjXjXjXjXjXjXjXjXjXjXjXjXjXjXjXjXjXjXjXjX/.!.+X2XyXgXeX>XOXE.jXjXjXjXjXjXjXjXjXjXjXjXjXjXjXjXjXjXjXjXjXjXjXjXjXjXjXjX",
"jXjXjXjXjXjXjXjXjXjXjXjXjXjXjXjXjXjXjXjXjXjXjXjXjXjX[.#X%X-X>XyX,X-X%X'.jXjXjXjXjXjXjXjXjXjXjXjXjXjXjXjXjXjXjXjXjXjXjXjXjXjXjXjX",
"jXjXjXjXjXjXjXjXjXjXjXjXjXjXjXjXjXjXjXjXjXjXjXjXjXjX[.:XiXgXtX:XtXiXtX-XjXjXjXjXjXjXjXjXjXjXjXjXjXjXjXjXjXjXjXjXjXjXjXjXjXjXjXjX",
"jXjXjXjXjXjXjXjXjXjXjXjXjXjXjXjXjXjXjXjXjXjXjXjXjXjX).~.d.5.c.`.x.t.j.{.jXjXjXjXjXjXjXjXjXjXjXjXjXjXjXjXjXjXjXjXjXjXjXjXjXjXjXjX",
"jXjXjXjXjXjXjXjXjXjXjXjXjXjXjXjXjXjXjXjXjXjXjXjXjXjX[.R.3 o R `.z O 9 (.jXjXjXjXjXjXjXjXjXjXjXjXjXjXjXjXjXjXjXjXjXjXjXjXjXjXjXjX",
"jXjXjXjXjXjXjXjXjXjXjXjXjXjXjXjXjXjXjXjXjXjXjXjXjXjX[.G.3 o W rXZ $ g (.jXjXjXjXjXjXjXjXjXjXjXjXjXjXjXjXjXjXjXjXjXjXjXjXjXjXjXjX",
"jXjXjXjXjXjXjXjXjXjXjXjXjXjXjXjXjXjXjXjXjXjXjXjXjXjXjXjX( S.S.] P.k.( jXjXjXjXjXjXjXjXjXjXjXjXjXjXjXjXjXjXjXjXjXjXjXjXjXjXjXjXjX",
"jXjXjXjXjXjXjXjXjXjXjXjXjXjXjXjXjXjXjXjXjXjXjXjXjXjXjXjXo.#X`.{ ,X^.:.jXjXjXjXjXjXjXjXjXjXjXjXjXjXjXjXjXjXjXjXjXjXjXjXjXjXjXjXjX",
"jXjXjXjXjXjXjXjXjXjXjXjXjXjXjXjXjXjXjXjXjXjX4XsXsXjXjXjXU C.XXXXXX4.f jXjXjX{.{.[.jXjXjXjXjXjXjXjXjXjXjXjXjXjXjXjXjXjXjXjXjXjXjX",
"jXjXjXjXjXjXjXjXjXjXjXjXjXjXjXjXjXjXjXjXjXsX>X`.D.7XfXfX9X[ V O.N 3 . % E a.p.K.R.[.jXjXjXjXjXjXjXjXjXjXjXjXjXjXjXjXjXjXjXjXjXjX",
"jXjXjXjXjXjXjXjXjXjXjXjXjXjXjXjXjXjXjXjXjXsXW.m.H.$X#X|.a.Y B #.M 3 o M %.M.p.g.L.{.jXjXjXjXjXjXjXjXjXjXjXjXjXjXjXjXjXjXjXjXjXjX",
"jXjXjXjXjXjXjXjXjXjXjXjXjXjXjXjXjXjXjXjXjX0Xc.z..Xm.b.u.h R 1.p.O.B V a.v.m.m.i.z.U.:.jXjXjXjXjXjXjXjXjXjXjXjXjXjXjXjXjXjXjXjXjX",
"jXjXjXjXjXjXjXjXjXjXjXjXjXjXjXjXjXjXjXjXjXjX5.f.H.T.-XeX7XS.%.' %.x.W.$XT.z.r.b.q.Z U m q jXjXjXjXjXjXjXjXjXjXjXjXjXjXjXjXjXjXjX",
"jXjXjXjXjXjXjXjXjXjXjXjXjXjXjXjXjXjXjXjXjX0X^.n.@.K Y { { 1.%.` 0.O.H H A K &.y.0.=._ ] ^ q jXjXjXjXjXjXjXjXjXjXjXjXjXjXjXjXjXjX",
"jXjXjXjXjXjXjXjXjXjXjXjXjXjXjXjXjXjXjXjXjXwX`.x.K 2 3 0 M e.y.J e.[ h 6 > 7 H ) _ _ ..*...d jXjXjXjXjXjXjXjXjXjXjXjXjXjXjXjXjXjX",
"jXjXjXjXjXjXjXjXjXjXjXjXjXjXjXjXjXjXjXjXjXD.h.=.N 0 L d.K.,XK.8 e.K.x.5.A 9 z 7 # @ Y W W ! p w jXjXjXjXjXjXjXjXjXjXjXjXjXjXjXjX",
"jXjXjXjXjXjXjXjXjXjXjXjXjXjXjXjXjXjXjXjX6XK.g.` 2 3 7 9 N B N 0 h N 0 M 6 , g ) V o D z h W R P jXjXjXjXjXjXjXjXjXjXjXjXjXjXjXjX",
"jXjXjXjXjXjXjXjXjXjXjXjXjXjXjXjXjXjXjX6X:Xz.[ b * y u x ) J M 0 A K M x d u , ~ n @ j 4 2 M ! ~ jXjXjXjXjXjXjXjXjXjXjXjXjXjXjXjX",
"jXjXjXjXjXjXjXjXjXjXjXjXjXjXjXjXjXjXjX'.W.r.n : t jXjX,.U.c.+.N d.d...( jXjXi f , @ 3 > o # V n = jXjXjXjXjXjXjXjXjXjXjXjXjXjXjX",
"jXjXjXjXjXjXjXjXjXjXjXjXjXjXjXjXjXjXaX<XW.t.jXjXjXjXjXjXd R +.r.+.Z 5 i jXjXjXi * @ R c # # 2 1 % jXjXjXjXjXjXjXjXjXjXjXjXjXjXjX",
"jXjXjXjXjXjXjXjXjXjXjXjXjXjXjXjXjXjX5XQ.f.C jXjXjXjXjXjXjXk c M c d jXjXjXjXjXi * . g H R # # . % jXjXjXjXjXjXjXjXjXjXjXjXjXjXjX",
"jXjXjXjXjXjXjXjXjXjXjXjXjXjXjXjXjXjX'.x.E y jXjXjXjXjXjXjXp g z 7 jXjXjXjXjXjXt %   o H #.8 2 @ % jXjXjXjXjXjXjXjXjXjXjXjXjXjXjX",
"jXjXjXjXjXjXjXjXjXjXjXjXjXjXjXjXjXqX-X_ 5 jXjXjXjXjXjXjXjX^ *.T.o.jXjXjXjXjXjXq *     4 B ! 8 * % jXjXjXjXjXjXjXjXjXjXjXjXjXjXjX",
"jXjXjXjXjXjXjXjXjXjXjXjXjXjXjXjXjXrX;X_ - jXjXjXjXjXjX=XE._ Z L H Z.qXaXjXjXjXq %   o g H  .T j % jXjXjXjXjXjXjXjXjXjXjXjXjXjXjX",
"jXjXjXjXjXjXjXjXjXjXjXjXjXjXjXjXjXrX;X_ ; jXjXjXjXjXI.^.XX| N K B x.eX8X5XjXjXq .   @ z W #.#.V & jXjXjXjXjXjXjXjXjXjXjXjXjXjXjX",
"jXjXjXjXjXjXjXjXjXjXjXjXjXjXjXjXjXrX-X_ ; jXjXjXjX_.U.b.+Xq.| f.' g.%XOX<XqXjX5 .   @ x { #.$.U % jXjXjXjXjXjXjXjXjXjXjXjXjXjXjX",
"jXjXjXjXjXjXjXjXjXjXjXjXjXjXjXjXjXyX-X_ : jXjXjX_.n.g.M.m.T.M.| m.+XOX+X%X,X9XC O   o 2 z #.[ b % jXjXjXjXjXjXjXjXjXjXjXjXjXjXjX",
"jXjXjXjXjXjXjXjXjXjXjXjXjXjXjXjXjXE.K.$.U jXjXjX'.h.i.h.M.z.q.L q.L.OX+XT.W.eXD     @ o 8 ] B f % jXjXjXjXjXjXjXjXjXjXjXjXjXjXjX",
"jXjXjXjXjXjXjXjXjXjXjXjXjXjXjXjXjX6.<.t.C.jXjXjX#Xp.i.i.i.' } T } p. X XM.n.eXB   . , # 6 { 8 . % jXjXjXjXjXjXjXjXjXjXjXjXjXjXjX",
"jXjXjXjXjXjXjXjXjXjXjXjXjXjXjXjXjXjXn p.].jXjXjX}.p.v.K.p.w.B 4 J &.p.m.h.S.9XP . , B g g ..j . % jXjXjXjXjXjXjXjXjXjXjXjXjXjXjX",
"jXjXjXjXjXjXjXjXjXjXjXjXjXjXjXjXjXjXC.W.`.jXjXjXjX..e.p.w.w.T > ] +.@.g.w.3.jXjX< , R h 4 ] 8   % jXjXjXjXjXjXjXjXjXjXjXjXjXjXjX",
"jXjXjXjXjXjXjXjXjXjXjXjXjXjXjXjXjXjX{.~.U.Z.jXjXjX] #.1.R Y S e ~ H A *.%.,.jXjXjXu W B h B 6 @ = jXjXjXjXjXjXjXjXjXjXjXjXjXjXjX",
"jXjXjXjXjXjXjXjXjXjXjXjXjXjXjXjXjXjX{.K.x.#XjXjX3.4.O.H 1 % = jXw % 1 T <.4.jXjXjXi ] 1.) 2 V n r jXjXjXjXjXjXjXjXjXjXjXjXjXjXjX",
"jXjXjXjXjXjXjXjXjXjXjXjXjXjXjXjXjXjX5X>X>XiXuXP.A %.) M k jXjXjXjXa k x %.j.Q jXjXjX( t.u.A Y jXjXjXjXjXjXjXjXjXjXjXjXjXjXjXjXjX",
"jXjXjXjXjXjXjXjXjXjXjXjXjXjXjXjXjXjXA.S.^.iXiXW.L 0.G , jXjXjXjXjXjXm 7  .x.Z.jXjXjXv { 2.+.S jXjXjXjXjXjXjXjXjXjXjXjXjXjXjXjXjX",
"jXjXjXjXjXjXjXjXjXjXjXjXjXjXjXjXjXjXjX^ a.9X1XXXg.d.A X jXjXjXjXjXjXjX% R x.#XjXjXjXr k W 3.v jXjXjXjXjXjXjXjXjXjXjXjXjXjXjXjXjX",
"jXjXjXjXjXjXjXjXjXjXjXjXjXjXjXjXjXjXjXjXjXC.!.%X;XY.H . jXjXjXjXjXjXjX= b y.eXa.jXjXjXq w e jXjXjXjXjXjXjXjXjXjXjXjXjXjXjXjXjXjX",
"jXjXjXjXjXjXjXjXjXjXjXjXjXjXjXjXjXjXjXjXjXjXj.H.oXOXT.C.B.jXjXjXjXjXjXjXC *.;X4.jXjXjXjXjXjXjXjXjXjXjXjXjXjXjXjXjXjXjXjXjXjXjXjX",
"jXjXjXjXjXjXjXjXjXjXjXjXjXjXjXjXjXjXjXjXjXjXjX3.d..X;X-XE.{.jXjXjXjXjXjXjX[ XX3.jXjXjXjXjXjXjXjXjXjXjXjXjXjXjXjXjXjXjXjXjXjXjXjX",
"jXjXjXjXjXjXjXjXjXjXjXjXjXjXjXjXjXjXjXjXjXjXjXv 6 0.n..XyXfXfXqXG.jXjXjXC ` Q.3.jXjXjXjXjXjXjXjXjXjXjXjXjXjXjXjXjXjXjXjXjXjXjXjX",
"jXjXjXjXjXjXjXjXjXjXjXjXjXjXjXjXjXjXjXjXjXjXjXjXo.h H s.`.-X>X1X&X:X8X!.D.j.X.jXjXjXjXjXjXjXjXjXjXjXjXjXjXjXjXjXjXjXjXjXjXjXjXjX",
"jXjXjXjXjXjXjXjXjXjXjXjXjXjXjXjXjXjXjXjXjXjXjX:.4.R D :.G.R..XOX;X1XeX-X>X#XR.3XpXjXjXjXjXjXjXjXjXjXjXjXjXjXjXjXjXjXjXjXjXjXjXjX",
"jXjXjXjXjXjXjXjXjXjXjXjXjXjXjXjXjXjXjXjXjXjXI ( t.t.6.jXjXF.D.J.Q.&X>X1XeXiXiXuXfXfXuXfXdXdXpX4XjXjXjXjXjXjXjXjXjXjXjXjXjXjXjXjX",
"jXjXjXjXjXjXjXjXjXjXjXjXjXjXjXjXjXjXjXjXjXjXN.8.t.5.jXjXjXjXjXjXV.5.<.j.U.XX.X.XQ.^.^.'.=XjXjXjXjXjXjXjXjXjXjXjXjXjXjXjXjXjXjXjX",
"jXjXjXjXjXjXjXjXjXjXjXjXjXjXjXjXjXjXjXjXjXjXjX,.X.,.jXjXjXjXjXjXjXjXjXjXQ _ d.q.s.F.jXjXjXjXjXjXjXjXjXjXjXjXjXjXjXjXjXjXjXjXjXjX",
"jXjXjXjXjXjXjXjXjXjXjXjXjXjXjXjXjXjXjXjXjXjXjXjX( ~ jXjXjXjXjXjXjXjXjXjX- 7 +.+.o.jXjXjXjXjXjXjXjXjXjXjXjXjXjXjXjXjXjXjXjXjXjXjX",
"jXjXjXjXjXjXjXjXjXjXjXjXjXjXjXjXjXjXjXjXjXjXjXjX^ f q jXjXjXjXjXjXjXjXjX- C W.U.G.jXjXjXjXjXjXjXjXjXjXjXjXjXjXjXjXjXjXjXjXjXjXjX",
"jXjXjXjXjXjXjXjXjXjXjXjXjXjXjXjXjXjXjXjXjXjXjXjX^ e q jXjXjXjXjXjXjXjXjX- Z ~.U.G.jXjXjXjXjXjXjXjXjXjXjXjXjXjXjXjXjXjXjXjXjXjXjX",
"jXjXjXjXjXjXjXjXjXjXjXjXjXjXjXjXjXjXjXjXjXjXjXjX^ e w jXjXjXjXjXjXjXjXjX- Z .XK.C.jXjXjXjXjXjXjXjXjXjXjXjXjXjXjXjXjXjXjXjXjXjXjX",
"jXjXjXjXjXjXjXjXjXjXjXjXjXjXjXjXjXjXjXjXjXjXjXjX^ e i jXjXjXjXjXjXjXjXjXw S W.x.6.jXjXjXjXjXjXjXjXjXjXjXjXjXjXjXjXjXjXjXjXjXjXjX",
"jXjXjXjXjXjXjXjXjXjXjXjXjXjXjXjXjXjXjXjXjXjXjX;.( X.E v jXjXjXjXjXjXjXjXw j a.o.( jXjXjXjXjXjXjXjXjXjXjXjXjXjXjXjXjXjXjXjXjXjXjX",
"jXjXjXjXjXjXjXjXjXjXjXjXjXjXjXjXjXjXjXjXjXjXjX:.#.) F P jXjXjXjXjXjXjXjXa f D D.A.jXjXjXjXjXjXjXjXjXjXjXjXjXjXjXjXjXjXjXjXjXjXjX",
"jXjXjXjXjXjXjXjXjXjXjXjXjXjXjXjXjXjXjXjXjXjX>.,.2.l D :.jXjXjXjXjXjXjXjXv f j *X}.6.>.jXjXjXjXjXjXjXjXjXjXjXjXjXjXjXjXjXjXjXjXjX",
"jXjXjXjXjXjXjXjXjXjXjXjXjXjXjXjXjXjXjXjXjXjX7.5.%.6 n jXjXjXjXjXjXjXjXt * f 2.^.8X9X9.jXjXjXjXjXjXjXjXjXjXjXjXjXjXjXjXjXjXjXjXjX",
"jXjXjXjXjXjXjXjXjXjXjXjXjXjXjXjXjXjXjXjXjXjXV.;.z f v jXjXjXjXjXjXjXjX= f ` T.oX;X&X,.jXjXjXjXjXjXjXjXjXjXjXjXjXjXjXjXjXjXjXjXjX",
"jXjXjXjXjXjXjXjXjXjXjXjXjXjXjXjXjXjXjXjXjXjXjX/ ; s jXjXjXjXjXjXjXjXjXd R p.@X%X~.D.:.jXjXjXjXjXjXjXjXjXjXjXjXjXjXjXjXjXjXjXjXjX",
"jXjXjXjXjXjXjXjXjXjXjXjXjXjXjXjXjXjXjXjXjXjXjXjXjXjXjXjXjXjXjXjXjXjXjX^ <.x. XXXP.jXjXjXjXjXjXjXjXjXjXjXjXjXjXjXjXjXjXjXjXjXjXjX",
"jXjXjXjXjXjXjXjXjXjXjXjXjXjXjXjXjXjXjXjXjXjXjXjXjXjXjXjXjXjXjXjXjXjXjXq ! r.p.3.9.jXjXjXjXjXjXjXjXjXjXjXjXjXjXjXjXjXjXjXjXjXjXjX",
"jXjXjXjXjXjXjXjXjXjXjXjXjXjXjXjXjXjXjXjXjXjXjXjXjXjXjXjXjXjXjXjXjXjXjXjX^ <.<.;.jXjXjXjXjXjXjXjXjXjXjXjXjXjXjXjXjXjXjXjXjXjXjXjX",
"jXjXjXjXjXjXjXjXjXjXjXjXjXjXjXjXjXjXjXjXjXjXjXjXjXjXjXjXjXjXjXjXjXjXjXjXjX;.-.jXjXjXjXjXjXjXjXjXjXjXjXjXjXjXjXjXjXjXjXjXjXjXjXjX"
};
