/* XPM */
static char *result[] = {
/* columns rows colors chars-per-pixel */
"64 64 220 2 ",
"   c #050605",
".  c #050906",
"X  c #090A05",
"o  c #050609",
"O  c #06090A",
"+  c #0A0C0C",
"@  c #140D0A",
"#  c #0B100D",
"$  c #14120D",
"%  c #1A160E",
"&  c #040C13",
"*  c #030E19",
"=  c #0A0E12",
"-  c #091619",
";  c #141513",
":  c #1A1511",
">  c #151A15",
",  c #1D1A14",
"<  c #151D1D",
"1  c #1D1E1B",
"2  c #111418",
"3  c #251B0E",
"4  c #221D1A",
"5  c #221914",
"6  c #341F10",
"7  c #1B221D",
"8  c #172019",
"9  c #25241E",
"0  c #2C231C",
"q  c #2A2115",
"w  c #342A1C",
"e  c #362919",
"r  c #3F331F",
"t  c #041322",
"y  c #051C23",
"u  c #0B1C22",
"i  c #0A1D2B",
"p  c #051C2B",
"a  c #181D20",
"s  c #1B2224",
"d  c #182729",
"f  c #1C2E31",
"g  c #152833",
"h  c #122933",
"j  c #262A29",
"k  c #352D25",
"l  c #352B24",
"z  c #2A342B",
"x  c #2B372F",
"c  c #3D3325",
"v  c #34342D",
"b  c #383629",
"n  c #263737",
"m  c #323633",
"M  c #3B3733",
"N  c #353A35",
"B  c #3B3C33",
"V  c #373D3B",
"C  c #222D30",
"Z  c #44331D",
"A  c #433526",
"S  c #41342B",
"D  c #463A2F",
"F  c #4B3E2E",
"G  c #4D3B26",
"H  c #423D33",
"J  c #463D36",
"K  c #523F33",
"L  c #3B4235",
"P  c #37423A",
"I  c #29413D",
"U  c #424134",
"Y  c #4B4335",
"T  c #4A443C",
"R  c #4C4B3E",
"E  c #42453E",
"W  c #514434",
"Q  c #594937",
"!  c #4F4933",
"~  c #67563D",
"^  c #343D41",
"/  c #3B4A48",
"(  c #364B54",
")  c #4B4F4B",
"_  c #474A46",
"`  c #594C43",
"'  c #45524A",
"]  c #595245",
"[  c #54544D",
"{  c #5C554B",
"}  c #585547",
"|  c #4D5254",
" . c #49585A",
".. c #5C5A53",
"X. c #595D5B",
"o. c #525758",
"O. c #61564A",
"+. c #645A4C",
"@. c #6A5B4C",
"#. c #675744",
"$. c #685E54",
"%. c #725C48",
"&. c #78654D",
"*. c #6B6253",
"=. c #696459",
"-. c #646459",
";. c #726453",
":. c #746C5B",
">. c #7C6E5D",
",. c #766758",
"<. c #7C715D",
"1. c #7D7257",
"2. c #6B644C",
"3. c #4A5965",
"4. c #5A5D60",
"5. c #576668",
"6. c #5C707B",
"7. c #676865",
"8. c #756E6A",
"9. c #796E62",
"0. c #6B736F",
"q. c #7D7263",
"w. c #787568",
"e. c #6A7A77",
"r. c #747B74",
"t. c #7B7B74",
"y. c #767B7A",
"u. c #816F52",
"i. c #85745B",
"p. c #867358",
"a. c #907D5A",
"s. c #837464",
"d. c #8A7664",
"f. c #8B7B65",
"g. c #8C7D6A",
"h. c #867969",
"j. c #917D65",
"k. c #937F6D",
"l. c #877C73",
"z. c #75817E",
"x. c #7A847B",
"c. c #8D806B",
"v. c #86806C",
"b. c #93826A",
"n. c #9B866B",
"m. c #9E8A6F",
"M. c #878477",
"N. c #9C8B75",
"B. c #978B77",
"V. c #9D917E",
"C. c #A28D73",
"Z. c #A08C78",
"A. c #A59175",
"S. c #A99475",
"D. c #A4947C",
"F. c #A9967A",
"G. c #B39C7D",
"H. c #B7A07D",
"J. c #717E80",
"K. c #7B8B85",
"L. c #8E8F85",
"P. c #84928B",
"I. c #989787",
"U. c #889796",
"Y. c #959991",
"T. c #999B93",
"R. c #9B8E80",
"E. c #A29A84",
"W. c #AD9C83",
"Q. c #A79B8A",
"!. c #B39E83",
"~. c #B89F82",
"^. c #8EA49C",
"/. c #AAA38C",
"(. c #B4A283",
"). c #BAA683",
"_. c #BCA982",
"`. c #B9A489",
"'. c #BDA989",
"]. c #B6A589",
"[. c #ACA593",
"{. c #A4A69B",
"}. c #B6A994",
"|. c #B9B097",
" X c #9AA6A3",
".X c #A5ADA3",
"XX c #BCBAAC",
"oX c #B5B5A7",
"OX c #B4B9B3",
"+X c #B2AFA0",
"@X c #C3AA8A",
"#X c #C2AE91",
"$X c #CCBA9A",
"%X c #C8B498",
"&X c #D0BA9A",
"*X c #D0B797",
"=X c #C7BEA8",
"-X c #BEC5BE",
";X c #C9C0A8",
":X c #D6C5AA",
">X c #C7C3B5",
",X c #D8C9B4",
"<X c #D0D1BE",
"1X c #E2D2B7",
"2X c #B9CBCD",
"3X c #CCCEC3",
"4X c #DBD7C8",
"5X c #D4DED7",
"6X c #E3DAC6",
"7X c #DDE4D7",
"8X c #EAE2CB",
"9X c #F2EADD",
"0X c #F3E7D1",
"qX c #FAF2DF",
"wX c #D4DFE0",
"eX c #D9E3E4",
"rX c #EBF3EB",
"tX c #FBF2E4",
"yX c #FBF3E9",
"uX c None",
/* pixels */
"uXuXuXuXuXuXuXuXuXuXuXuXuXuXuXuXuXuXuXuXuXuXuXuXuXuXuXuXuXuXuXuXuXuXuXuXuXuXuXuXuXuXuXuXuXuXuXuXuXuXuXuXuXuXuXuXuXuXuXuXuXuXuXuX",
"uXuXuXuXuXuXuXuXuXuXuXuXuXuXuXuXuXuXuXuXuXuXuXuXuXuXuXuXuXuXuXuXuXuXuXuXuXuXuXuXuXuXuXuXuXuXuXuXuXuXuXuXuXuXuXuXuXuXuXuXuXuXuXuX",
"uXuXuXuXuXuXuXuXuXuXuXuXuXuXuXuXuXuXuXuXuXuXuXuXuXuXuXuXuXuXU.-XrXrXrX7X XuXuXuXuXuXuXuXuXuXuXuXuXuXuXuXuXuXuXuXuXuXuXuXuXuXuXuX",
"uXuXuXuXuXuXuXuXuXuXuXuXuXuXuXuXuXuXuXuXuXuXuXuXuXuXuXuXuXK.<X9XyXyXyXrX7X.XuXuXuXuXuXuXuXuXuXuXuXuXuXuXuXuXuXuXuXuXuXuXuXuXuXuX",
"uXuXuXuXuXuXuXuXuXuXuXuXuXuXuXuXuXuXuXuXuXuXuXuXuXuXuXuXuX+X8XtXyXtXtXtXqX=X XuXuXuXuXuXuXuXuXuXuXuXuXuXuXuXuXuXuXuXuXuXuXuXuXuX",
"uXuXuXuXuXuXuXuXuXuXuXuXuXuXuXuXuXuXuXuXuXuXuXuXuXuXuXuXuX-X8XqXyXyXtXqX9X>XOXuXuXuXuXuXuXuXuXuXuXuXuXuXuXuXuXuXuXuXuXuXuXuXuXuX",
"uXuXuXuXuXuXuXuXuXuXuXuXuXuXuXuXuXuXuXuXuXuXuXuXuXuXuXuXuX-X$X1XtXtXqX0X:X>XOXuXuXuXuXuXuXuXuXuXuXuXuXuXuXuXuXuXuXuXuXuXuXuXuXuX",
"uXuXuXuXuXuXuXuXuXuXuXuXuXuXuXuXuXuXuXuXuXuXuXuXuXuXuXuXuX}.%X:X1X1X1X,X$X|.{.uXuXuXuXuXuXuXuXuXuXuXuXuXuXuXuXuXuXuXuXuXuXuXuXuX",
"uXuXuXuXuXuXuXuXuXuXuXuXuXuXuXuXuXuXuXuXuXuXuXuXuXuXuXuXuXx.].%X*X*X&X*X@XB.x.uXuXuXuXuXuXuXuXuXuXuXuXuXuXuXuXuXuXuXuXuXuXuXuXuX",
"uXuXuXuXuXuXuXuXuXuXuXuXuXuXuXuXuXuXuXuXuXuXuXuXuXuXuXuXuXL v.].*X*X*X#XF.' uXuXuXuXuXuXuXuXuXuXuXuXuXuXuXuXuXuXuXuXuXuXuXuXuXuX",
"uXuXuXuXuXuXuXuXuXuXuXuXuXuXuXuXuXuXuXuXuXuXuXuXuXuXuXuXuXuXR 1.).H.H.m.Q uXuXuXuXuXuXuXuXuXuXuXuXuXuXuXuXuXuXuXuXuXuXuXuXuXuXuX",
"uXuXuXuXuXuXuXuXuXuXuXuXuXuXuXuXuXuXuXuXuXuXuXuXuXuXuXuXuXuXz 2.'.H.@Xm.M uXuXuXuXuXuXuXuXuXuXuXuXuXuXuXuXuXuXuXuXuXuXuXuXuXuXuX",
"uXuXuXuXuXuXuXuXuXuXuXuXuXuXuXuXuXuXuXuXuXuXuXuXP.I.I.uXuXuXj *.}.#X#XB.v uXuXuX5X7X5XuXuXuXuXuXuXuXuXuXuXuXuXuXuXuXuXuXuXuXuXuX",
"uXuXuXuXuXuXuXuXuXuXuXuXuXuXuXuXuXuXuXuXuXuXuXU.E.S.j.x.4.- # : w +.D : : L.3X6X:X:X,XwXuXuXuXuXuXuXuXuXuXuXuXuXuXuXuXuXuXuXuXuX",
"uXuXuXuXuXuXuXuXuXuXuXuXuXuXuXuXuXuXuXuXuXuXuXT.A.n.m.N.s.J : : D ,.Q l @ s.}.=X$X'.}.eXuXuXuXuXuXuXuXuXuXuXuXuXuXuXuXuXuXuXuXuX",
"uXuXuXuXuXuXuXuXuXuXuXuXuXuXuXuXuXuXuXuXuXuXuXV.b.j.A.S.Z.k.K Q 1.m.h.@.S ,.m.G.'.N.M.2XuXuXuXuXuXuXuXuXuXuXuXuXuXuXuXuXuXuXuXuX",
"uXuXuXuXuXuXuXuXuXuXuXuXuXuXuXuXuXuXuXuXuXuXY.g.d.d.s.m.D.D.W.~._.H.~.~.W.!.~.!.b.f.q.5.uXuXuXuXuXuXuXuXuXuXuXuXuXuXuXuXuXuXuXuX",
"uXuXuXuXuXuXuXuXuXuXuXuXuXuXuXuXuXuXuXuXuX' E.k.#.r W D c c A ,.@X@X@XC.D S c D #.N.[.P.uXuXuXuXuXuXuXuXuXuXuXuXuXuXuXuXuXuXuXuX",
"uXuXuXuXuXuXuXuXuXuXuXuXuXuXuXuXuXuXuXuX* M E.k.O.c 0 5 5 l l @.G.H.~.k.K S 0 3 U f.}.T.uXuXuXuXuXuXuXuXuXuXuXuXuXuXuXuXuXuXuXuX",
"uXuXuXuXuXuXuXuXuXuXuXuXuXuXuXuXuX6.5.* o b V.g.s.=.7 s J 8.s.>.a.H.k.k.Q.l.O.w w #.c.I.uXuXuXuXuXuXuXuXuXuXuXuXuXuXuXuXuXuXuXuX",
"uXuXuXuXuXuXuXuXuXuXuXuXuXuXuXuXuX^ > .   l k.g.[ j uXd 1 4 0 6 Z S.%.6 e e 5 , > R v.D.I.uXuXuXuXuXuXuXuXuXuXuXuXuXuXuXuXuXuXuX",
"uXuXuXuXuXuXuXuXuXuXuXuXuXuXuXuX/ j   X % H s.` m uXuXuXC J W Q ~ G.p.~ ;.T v uXuXP R #.V..XuXuXuXuXuXuXuXuXuXuXuXuXuXuXuXuXuXuX",
"uXuXuXuXuXuXuXuXuXuXuXuXuXuXuXuXC >   X 0 T ;.4 u uXuXuXuX| $.s.b.).C.N.Q.l.y.uXuXf s 0 V.oXuXuXuXuXuXuXuXuXuXuXuXuXuXuXuXuXuXuX",
"uXuXuXuXuXuXuXuXuXuXuXuXuXuXuX( < .   X 0 c A ; i uXuXuXuXi a N ;.!.h.Q l OX4X.XM.5.3.w.}.|.T.uXuXuXuXuXuXuXuXuXuXuXuXuXuXuXuXuX",
"uXuXuXuXuXuXuXuXuXuXuXuXuXuXuXd # .   X T ] w @ * uXuXuXuXuXuXf k Y l j x .X<X4X=XL.-.D q.D.{.uXuXuXuXuXuXuXuXuXuXuXuXuXuXuXuXuX",
"uXuXuXuXuXuXuXuXuXuXuXuXuXuX^ o . . X % +.@.e @ O t uXuXuXuXuXuXj Y v j uX^.XX6X1X|.<.r Q <./.uXuXuXuXuXuXuXuXuXuXuXuXuXuXuXuXuX",
"uXuXuXuXuXuXuXuXuXuXuXuXuX3.^ O o o $ c ;.;.A @ o * uXuXuXuXuXuX*.}.l.o.uXuXuX+X8X,XF.@.e ! E._ uXuXuXuXuXuXuXuXuXuXuXuXuXuXuXuX",
"uXuXuXuXuXuXuXuXuXuXuXuXuXg 2 o o o 1 =.s.s.@., o * uXuXuXn s N O.Q G L ..n / z.oX,X,XB.A A f.L uXuXuXuXuXuXuXuXuXuXuXuXuXuXuXuX",
"uXuXuXuXuXuXuXuXuXuXuXuXuXt o X O X 4 8.q.>.q.5 o * uXuXI x q F &.&.~ ~ ! r b / y.OX6X%XK A s.H uXuXuXuXuXuXuXuXuXuXuXuXuXuXuXuX",
"uXuXuXuXuXuXuXuXuXuXuXuXuXt + O o o 4 9.*.@.9.5 o * uX/ L c A #.n.H.A.u.W r b L ' U.3X<XQ A s.L uXuXuXuXuXuXuXuXuXuXuXuXuXuXuXuX",
"uXuXuXuXuXuXuXuXuXuXuXuXuXt O O O X : ..+.+.{ 5 o = x w.1.A &.n.H.H.H.S.u.! ! :.P uXuX5X{ c q.D uXuXuXuXuXuXuXuXuXuXuXuXuXuXuXuX",
"uXuXuXuXuXuXuXuXuXuXuXuXuXt O O O X : [ D l H @ a N k &.n.n.A.G.H.b.S.H.b.&.&.1.B uXuXuX5.$.q.-.uXuXuXuXuXuXuXuXuXuXuXuXuXuXuXuX",
"uXuXuXuXuXuXuXuXuXuXuXuXuX* O O X   % _ 4 @ 0 + C | b %.C.%X#X~.m.~ p.A.b.j.f.<.V uXuXuXuX0.;.v.uXuXuXuXuXuXuXuXuXuXuXuXuXuXuXuX",
"uXuXuXuXuXuXuXuXuXuXuXuXuXp & O o   $ v : X O = u uXx @.k.@X@Xn.~ 3 Y &.f.h.f.q.P uXuXuXuX_ ! /..XuXuXuXuXuXuXuXuXuXuXuXuXuXuXuX",
"uXuXuXuXuXuXuXuXuXuXuXuXuXuXi & o . X # X X + d uXuXuX..i.Z.i.<.2.> ! <.;.l.s...uXuXuXuXuXuX[.=XQ.uXuXuXuXuXuXuXuXuXuXuXuXuXuXuX",
"uXuXuXuXuXuXuXuXuXuXuXuXuXuXuX* o o . .   + < uXuXuXuXuX=.s.Y U / 8 P R b ,.q.-.uXuXuXuXuXuX;X]./.Y.uXuXuXuXuXuXuXuXuXuXuXuXuXuX",
"uXuXuXuXuXuXuXuXuXuXuXuXuXuXuX* & O O o   ; V uXuXuXuXJ.8.{ , + t uXi * @ J *.y.uXuXuXuXuXuXoXj.W.XXuXuXuXuXuXuXuXuXuXuXuXuXuXuX",
"uXuXuXuXuXuXuXuXuXuXuXuXuXuXuXuXt O o o   s  .uXuXuXuXy.=.D z f uXuXuXuXC b ] r.uXuXuXuXuXuX7.=.N.+Xz.uXuXuXuXuXuXuXuXuXuXuXuXuX",
"uXuXuXuXuXuXuXuXuXuXuXuXuXuXuXuXuX- # 7 P | uXuXuXuXuXt.$.4 C uXuXuXuXuXuX< H t.5.uXuXuXuXuXuXT.Q.R.y.uXuXuXuXuXuXuXuXuXuXuXuXuX",
"uXuXuXuXuXuXuXuXuXuXuXuXuXuXuXuXuXuXy n 5.uXuXuXuXuXy.w.} = uXuXuXuXuXuXuX& v 8.X.uXuXuXuXuXuX2X{.8.e.uXuXuXuXuXuXuXuXuXuXuXuXuX",
"uXuXuXuXuXuXuXuXuXuXuXuXuXuXuXuXuXuXuXuXuXuXuXuXuXuXr.;.Y = uXuXuXuXuXuXuXt C ....uXuXuXuXuXuXuXuXuXuXuXuXuXuXuXuXuXuXuXuXuXuXuX",
"uXuXuXuXuXuXuXuXuXuXuXuXuXuXuXuXuXuXuXuXuXuXuXuXuXuXr.b.w._ uXuXuXuXuXuXuXuXuX) ..uXuXuXuXuXuXuXuXuXuXuXuXuXuXuXuXuXuXuXuXuXuXuX",
"uXuXuXuXuXuXuXuXuXuXuXuXuXuXuXuXuXuXuXuXuXuXuXuXuXuXv.G.V.4.uXuXuXuXuXuXuXuXuXE [ o.uXuXuXuXuXuXuXuXuXuXuXuXuXuXuXuXuXuXuXuXuXuX",
"uXuXuXuXuXuXuXuXuXuXuXuXuXuXuXuXuXuXuXuXuXuXuXuXuXM.F.@XW.X.uXuXuXuXuXuXuXuXuXN [ | ( uXuXuXuXuXuXuXuXuXuXuXuXuXuXuXuXuXuXuXuXuX",
"uXuXuXuXuXuXuXuXuXuXuXuXuXuXuXuXuXuXuXuXuXuXuXuXuXM.S.G.B.) uXuXuXuXuXuXuXuXuXm [ 7.e.uXuXuXuXuXuXuXuXuXuXuXuXuXuXuXuXuXuXuXuXuX",
"uXuXuXuXuXuXuXuXuXuXuXuXuXuXuXuXuXuXuXuXuXuXuXuXuXv.S.`.N._ uXuXuXuXuXuXuXuXuXv J 3.uXuXuXuXuXuXuXuXuXuXuXuXuXuXuXuXuXuXuXuXuXuX",
"uXuXuXuXuXuXuXuXuXuXuXuXuXuXuXuXuXuXuXuXuXuXuXuXuXM.A.).V.[ uXuXuXuXuXuXuXuXuXz N ( uXuXuXuXuXuXuXuXuXuXuXuXuXuXuXuXuXuXuXuXuXuX",
"uXuXuXuXuXuXuXuXuXuXuXuXuXuXuXuXuXuXuXuXuXuXuXuXuXL.c.p.v.x.uXuXuXuXuXuXuXuXuX8 ) uXuXuXuXuXuXuXuXuXuXuXuXuXuXuXuXuXuXuXuXuXuXuX",
"uXuXuXuXuXuXuXuXuXuXuXuXuXuXuXuXuXuXuXuXuXuXuXuXuX0.=.2.:.M.uXuXuXuXuXuXuXuXuX1 ) uXuXuXuXuXuXuXuXuXuXuXuXuXuXuXuXuXuXuXuXuXuXuX",
"uXuXuXuXuXuXuXuXuXuXuXuXuXuXuXuXuXuXuXuXuXuXuXuXuXr.w.:.=.K.uXuXuXuXuXuXuXuXuX< ) uXuXuXuXuXuXuXuXuXuXuXuXuXuXuXuXuXuXuXuXuXuXuX",
"uXuXuXuXuXuXuXuXuXuXuXuXuXuXuXuXuXuXuXuXuXuXuXuXuX{.%XR.r.uXuXuXuXuXuXuXuXuXuX< | 3.uXuXuXuXuXuXuXuXuXuXuXuXuXuXuXuXuXuXuXuXuXuX",
"uXuXuXuXuXuXuXuXuXuXuXuXuXuXuXuXuXuXuXuXuXuXuXuXuX/.$XI.z.uXuXuXuXuXuXuXuXuXuX1 =._ i uXuXuXuXuXuXuXuXuXuXuXuXuXuXuXuXuXuXuXuXuX",
"uXuXuXuXuXuXuXuXuXuXuXuXuXuXuXuXuXuXuXuXuXuXuXuXuX/.$XI.K.uXuXuXuXuXuXuXuXuXC B @.B 2 i uXuXuXuXuXuXuXuXuXuXuXuXuXuXuXuXuXuXuXuX",
"uXuXuXuXuXuXuXuXuXuXuXuXuXuXuXuXuXuXuXuXuXuXuXuXuXV.].M.e.uXuXuXuXuXuXuXuXy x *.@.F 1 i uXuXuXuXuXuXuXuXuXuXuXuXuXuXuXuXuXuXuXuX",
"uXuXuXuXuXuXuXuXuXuXuXuXuXuXuXuXuXuXuXuXuXuXuXuXuX..$.X.uXuXuXuXuXuXuXuXuXy B s.s.$.T u uXuXuXuXuXuXuXuXuXuXuXuXuXuXuXuXuXuXuXuX",
"uXuXuXuXuXuXuXuXuXuXuXuXuXuXuXuXuXuXuXuXuXuXuXuXuXM =./ uXuXuXuXuXuXuXuXuXy B d.d.,.` < uXuXuXuXuXuXuXuXuXuXuXuXuXuXuXuXuXuXuXuX",
"uXuXuXuXuXuXuXuXuXuXuXuXuXuXuXuXuXuXuXuXuXuXuXuXs l v.R d uXuXuXuXuXuXuXuX- M <.>.O.V h uXuXuXuXuXuXuXuXuXuXuXuXuXuXuXuXuXuXuXuX",
"uXuXuXuXuXuXuXuXuXuXuXuXuXuXuXuXuXuXuXuXuXuXuXi - c }.f.J u uXuXuXuXuXuXuXy z } { n u uXuXuXuXuXuXuXuXuXuXuXuXuXuXuXuXuXuXuXuXuX",
"uXuXuXuXuXuXuXuXuXuXuXuXuXuXuXuXuXuXuXuXuXuXuXu v ,.#X|.<.- uXuXuXuXuXuXuXuXI I V ^ uXuXuXuXuXuXuXuXuXuXuXuXuXuXuXuXuXuXuXuXuXuX",
"uXuXuXuXuXuXuXuXuXuXuXuXuXuXuXuXuXuXuXuXuXuXuXy U b.%X&XB.< uXuXuXuXuXuXuXuXuXuXuXuXuXuXuXuXuXuXuXuXuXuXuXuXuXuXuXuXuXuXuXuXuXuX",
"uXuXuXuXuXuXuXuXuXuXuXuXuXuXuXuXuXuXuXuXuXuXuXi U p.'.%Xb.> uXuXuXuXuXuXuXuXuXuXuXuXuXuXuXuXuXuXuXuXuXuXuXuXuXuXuXuXuXuXuXuXuXuX",
"uXuXuXuXuXuXuXuXuXuXuXuXuXuXuXuXuXuXuXuXuXuXuXf 9 r p.c.*.u uXuXuXuXuXuXuXuXuXuXuXuXuXuXuXuXuXuXuXuXuXuXuXuXuXuXuXuXuXuXuXuXuXuX",
"uXuXuXuXuXuXuXuXuXuXuXuXuXuXuXuXuXuXuXuXuXuXuXuXd 7 B U ^ uXuXuXuXuXuXuXuXuXuXuXuXuXuXuXuXuXuXuXuXuXuXuXuXuXuXuXuXuXuXuXuXuXuXuX",
"uXuXuXuXuXuXuXuXuXuXuXuXuXuXuXuXuXuXuXuXuXuXuXuXuXd u < i uXuXuXuXuXuXuXuXuXuXuXuXuXuXuXuXuXuXuXuXuXuXuXuXuXuXuXuXuXuXuXuXuXuXuX"
};
