/* XPM */
static char *result[] = {
/* columns rows colors chars-per-pixel */
"64 64 231 2 ",
"   c #0B123B",
".  c #091137",
"X  c #0E1443",
"o  c #0E1349",
"O  c #111644",
"+  c #131945",
"@  c #12164B",
"#  c #131A4C",
"$  c #181C4A",
"%  c #111654",
"&  c #141B53",
"*  c #191B55",
"=  c #151B5B",
"-  c #1B1C5A",
";  c #14175B",
":  c #201B5E",
">  c #152055",
",  c #1C2354",
"<  c #16215A",
"1  c #1B235D",
"2  c #1E285E",
"3  c #2B255E",
"4  c #141762",
"5  c #151A63",
"6  c #1C1C64",
"7  c #191B6B",
"8  c #1C1A72",
"9  c #241D68",
"0  c #2A1E72",
"q  c #231D7C",
"w  c #261C75",
"e  c #331F7A",
"r  c #1B2363",
"t  c #1C226A",
"y  c #1D2C6B",
"u  c #1F2864",
"i  c #232464",
"p  c #222965",
"a  c #22256C",
"s  c #252C6B",
"d  c #29246C",
"f  c #2A326E",
"g  c #232373",
"h  c #262B74",
"j  c #2A2B75",
"k  c #29237D",
"l  c #2A2B79",
"z  c #292475",
"x  c #34247C",
"c  c #332A7C",
"v  c #3A2F7C",
"b  c #2D3475",
"n  c #33327C",
"m  c #37367B",
"M  c #332C6F",
"N  c #42367E",
"B  c #261D82",
"V  c #281F88",
"C  c #2B2384",
"Z  c #2D228A",
"A  c #2F2886",
"S  c #332B82",
"D  c #3A2D84",
"F  c #3D2D8C",
"G  c #372488",
"H  c #2D3587",
"J  c #3D3984",
"K  c #3E368E",
"L  c #3A3483",
"P  c #3D2E97",
"I  c #3B29A1",
"U  c #432D8C",
"Y  c #41258E",
"T  c #43338A",
"R  c #463B8C",
"E  c #442692",
"W  c #492B9A",
"Q  c #462D96",
"!  c #453494",
"~  c #4C359C",
"^  c #483A96",
"/  c #54399F",
"(  c #492EAC",
")  c #4835A9",
"_  c #5939A4",
"`  c #5531AC",
"'  c #5E3BA9",
"]  c #5537A9",
"[  c #5635B5",
"{  c #4930B1",
"}  c #623DAE",
"|  c #633BB3",
" . c #37468A",
".. c #375697",
"X. c #32468E",
"o. c #3C619A",
"O. c #3F60AA",
"+. c #42448C",
"@. c #47478B",
"#. c #4B4395",
"$. c #4B439A",
"%. c #464594",
"&. c #54479A",
"*. c #48589B",
"=. c #495297",
"-. c #575C9C",
";. c #62539E",
":. c #4D45A7",
">. c #5C43A5",
",. c #534BA6",
"<. c #4A5DA8",
"1. c #5858A5",
"2. c #5C54B6",
"3. c #5A56B8",
"4. c #594BB2",
"5. c #6447AC",
"6. c #6C43BA",
"7. c #6849B4",
"8. c #6557B7",
"9. c #7558B8",
"0. c #6B50B4",
"q. c #5964A8",
"w. c #5971AB",
"e. c #5B65B9",
"r. c #4D7EB4",
"t. c #6464AB",
"y. c #646BAD",
"u. c #6C66AF",
"i. c #696DB4",
"p. c #6564BA",
"a. c #646DBC",
"s. c #6767B6",
"d. c #6672B3",
"f. c #6975BC",
"g. c #697CBD",
"h. c #6777B8",
"j. c #7677BC",
"k. c #6C73A3",
"l. c #7549C4",
"z. c #7B4DC6",
"x. c #7D4DCA",
"c. c #7246C4",
"v. c #695AC6",
"b. c #7956C2",
"n. c #6D44C4",
"m. c #5D62C4",
"M. c #626CCB",
"N. c #6467C7",
"B. c #7767C7",
"V. c #6674C1",
"C. c #6A74C1",
"Z. c #6E7BC3",
"A. c #6A75CA",
"S. c #737BC2",
"D. c #7B7ACD",
"F. c #7B69D0",
"G. c #6771D1",
"H. c #656BD0",
"J. c #8353CB",
"K. c #8158CF",
"L. c #8D5AD4",
"P. c #895CD4",
"I. c #915DD8",
"U. c #8176CD",
"Y. c #906ACD",
"T. c #AA69CB",
"R. c #9667E0",
"E. c #C975DA",
"W. c #5D88B9",
"Q. c #6581B6",
"!. c #6685BD",
"~. c #6A8DBE",
"^. c #7882BD",
"/. c #6983C3",
"(. c #688AC6",
"). c #6A8BC6",
"_. c #7482C3",
"`. c #7886C5",
"'. c #6694C3",
"]. c #659AC6",
"[. c #6998CA",
"{. c #7393CD",
"}. c #7B95CC",
"|. c #7797C8",
" X c #6998D0",
".X c #769ED2",
"XX c #68A6CD",
"oX c #72A5CB",
"OX c #69AAD3",
"+X c #76A6D4",
"@X c #72BCD9",
"#X c #7AB7DA",
"$X c #72C0DC",
"%X c #8796B8",
"&X c #8597CB",
"*X c #8798D4",
"=X c #9282D4",
"-X c #B486D8",
";X c #98ADCD",
":X c #8BA4D3",
">X c #84A5D6",
",X c #96AAD8",
"<X c #87B9DD",
"1X c #9AB3DC",
"2X c #9BB7D8",
"3X c #89A4CF",
"4X c #A6BAD9",
"5X c #A6BDCC",
"6X c #AE8AE5",
"7X c #83A1E0",
"8X c #A4B7E3",
"9X c #B3ADE2",
"0X c #AAC7D8",
"qX c #B5D4DE",
"wX c #86C7E1",
"eX c #98CBE5",
"rX c #98D1E7",
"tX c #A6CAE4",
"yX c #A5D9EB",
"uX c #B5D5E8",
"iX c #BADEF1",
"pX c #AED6EC",
"aX c #B8E4EE",
"sX c #B3EAF6",
"dX c #BBE7F4",
"fX c #BFF4FA",
"gX c #C3F4FB",
"hX c #CBFCFE",
"jX c #C7F5F9",
"kX c #CEF4F6",
"lX c None",
/* pixels */
"lXlXlXlXlXlXlXlXlXlXlXlXlXlXlXlXlXlXlXlXlXlXlXlXlXlXlXlXlXlXlXlXlXlXlXlXlXlXlXlXlXlXlXlXlXlXlXlXlXlXlXlXlXlXlXlXlXlXlXlXlXlXlXlX",
"lXlXlXlXlXlXlXlXlXlXlXlXlXlXlXlXlXlXlXlXlXlXlXlXlXlXlXlXlXlXlXlXlXlXlXlXlXlXlXlXlXlXlXlXlXlXlXlXlXlXlXlXlXlXlXlXlXlXlXlXlXlXlXlX",
"lXlXlXlXlXlXlXlXlXlXlXlXlXlXlXlXlXlXlXlXlXlXlXlXlXlXlXlXlXlXlXlXlXlXlXlXlXlXlXlXlXlXlXlXlXlXlXlXlXlXlXlXlXlXlXlXlXlXlXlXlXlXlXlX",
"lXlXlXlXlXlXlXlXlXlXlXlXlXlXlXlXlXlXlXlXlXlXlXlXlXlXlXlXlXlXlXlXlXlXlXlXlXlXlXlXlXlXlXlXlXlXlXlXlXlXlXlXlXlXlXlXlXlXlXlXlXlXlXlX",
"lXlXlXlXlXlXlXlXlXlXlXlXlXlXlXlXlXlXlXlXlXlXlXlXlXlXlXlXlXlXlXlXlXlXlXlXlXlXlXlXlXlXlXlXlXlXlXlXlXlXlXlXlXlXlXlXlXlXlXlXlXlXlXlX",
"lXlXlXlXlXlXlXlXlXlXlXlXlXlXlXlXlXlXlXE.E.lXlXlXlXlXlXlXlXlXlXlXlXlXlXlXlXlXlXlXlXlXlXlXlXlXlXlXlXlXlXlXlXlXlXlXlXlXlXlXlXlXlXlX",
"lXlXlXlXlXlXlXlXlXlXlXlXlXlXlXlXlXlXlXE.T.j.lXlXlXlXlXlXlXlXlXlXlXlXlXlXlXlXlXlXlXlXlXlXlXlXlXlXlXlXlXlXlXlXlXlXlXlXlXlXlXlXlXlX",
"lXlXlXlXlXlXlXlXlXlXlXlXlXlXlXlXlXlX6XT.`. X.XlXlXlXlXlXlXlXlXlXlXlXlXlXlXlXlXlXlXlXlXlXlXlXlXlXlXlXlXlXlXlXlXlXlXlXlXlXlXlXlXlX",
"lXlXlXlXlXlXlXlXlXlXlXlXlXlXlXlXlXlX>X+XOX X X.XlXlXlXlXlXlXlXlXlXlXlXlXlXlXlXlXlXlXlXlXlXlXlXlXlXlXlXlXlXlXlXlXlXlXlXlXlXlXlXlX",
"lXlXlXlXlXlXlXlXlXlXlXlXlXlXlXlXlXeXwX<X#X X(.{.+XlXlXlXlXlXlXlXlXlXlXlXlXlXlXlXlXlXlXlXlXlXlXlXlXlXlXlXlXlXlXlXlXlXlXlXlXlXlXlX",
"lXlXlXlXlXlXlXlXlXlXlXlXlXlXlXlXlXhXfXsXpXeX>X}.{.}.lXlXlXlXlXlXlXlXlXlXlXlXlXlXlXlXlXlXlXlXlXlXlXlXlXlXlXlXlXlXlXlXlXlXlXlXlXlX",
"lXlXlXlXlXlXlXlXlXlXlXlXlXlXlXlXhXhXhXgXiXaXjXdXtX<X2XlXlXlXlXlXlXlXlXlXlXlXlXlXlXlXlXlXlXlXlXlXlXlXlXlXlXlXlXlXlXlXlXlXlXlXlXlX",
"lXlXlXlXlXlXlXlXlXlXlXlXlXlXlXlXfXfXfX0X5XqXkXkXhXhXgXgXlXlXlXlXlXlXlXlXlXlXlXlXlXlXlXlXlXlXlXlXlXlXlXlXlXlXlXlXlXlXlXlXlXlXlXlX",
"lXlXlXlXlXlXlXlXlXlXlXlXlXlXlXaXsXsXyX0XiXuX0X4XkXhXhXjXlXlXlXlXlXlXlXlXlXlXlXlXlXlXlXlXlXlXlXlXlXlXlXlXlXlXlXlXlXlXlXlXlXlXlXlX",
"lXlXlXlXlXlXlXlXlXlXlXlXlXlXlXrXrXrXtXtX5X4X1X;XuXiXdXaXyXlXlXlXlXlXlXlXlXlXlXlXlXlXlXlXlXlXlXlXlXlXlXlXlXlXlXlXlXlXlXlXlXlXlXlX",
"lXlXlXlXlXlXlXlXlXlXlXlXlXlXlXeX@X#X>X3X,X;X%XuXpXtX4X*X&Xq.lXlXlXlXlXlXlXlXlXlXlXlXlXlXlXlXlXlXlXlXlXlXlXlXlXlXlXlXlXlXlXlXlXlX",
"lXlXlXlXlXlXlXlXlXlXlXlXlXlXlXwXOXXX(.g._.k.&X:X,X,X,X,X,X~.lXlXlXlXlXlXlXlXlXlXlXlXlXlXlXlXlXlXlXlXlXlXlXlXlXlXlXlXlXlXlXlXlXlX",
"lXlXlXlXlXlXlXlXlXlXlXlXlXlXlXwX#XoX{./.h.i.f.f.j.D.`.`.^.y.o.lXlXlXlXlXlXlXlXlXlXlXlXlXlXlXlXlXlXlXlXlXlXlXlXlXlXlXlXlXlXlXlXlX",
"lXlXlXlXlXlXlXlXlXlXlXlXlXlXlXOXXX X{.{._._._.S.S.f.s.i.i.i. .lXlXlXlXlXlXlXlXlXlXlXlXlXlXlXlXlXlXlXlXlXlXlXlXlXlXlXlXlXlXlXlXlX",
"lXlXlXlXlXlXlXlXlXlXlXlXlXlXlXOXXX'.(././.V.S.S.S._.S.S.i.u.f y lXlXlXlXlXlXlXlXlXlXlXlXlXlXlXlXlXlXlXlXlXlXlXlXlXlXlXlXlXlXlXlX",
"lXlXlXlXlXlXlXlXlXlXlXlXlXlXlX+X].].(.(./.h.h.C.f.f.i.i.-.-.s $ 2 lXlXlXlXlXlXlXlXlXlXlXlXlXlXlXlXlXlXlXlXlXlXlXlXlXlXlXlXlXlXlX",
"lXlXlXlXlXlXlXlXlXlXlXlXlXlXlX+X].].(./.Z.g.f.f.h.f.i.q.m @.2 y 2 lXlXlXlXlXlXlXlXlXlXlXlXlXlXlXlXlXlXlXlXlXlXlXlXlXlXlXlXlXlXlX",
"lXlXlXlXlXlXlXlXlXlXlXlXlXlXlXlX[.].'.!.g.g.f.f.h.i.d.-.f @.1 , r H lXlXlXlXlXlXlXlXlXlXlXlXlX%.-.lXlXlXlXlXlXlXlXlXlXlXlXlXlXlX",
"lXlXlXlXlXlXlXlXlXlXlXlXlXlXlXlX:X|.].'.!.g.h.i.d.d.y.@.f #., $ # < lXlXlXlXlXlXlXlXlXlXlXlX1.+.-.lXlXlXlXlXlXlXlXlXlXlXlXlXlXlX",
"lXlXlXlXlXlXlXlXlXlXlXlXlXlXlXlXlX^.~.].'.!.h.d.y.y.t.f f R $ $ #   lXlXlXlXlXlXlXlXlXlXlXF.0.$.@.lXlXlXlXlXlXlXlXlXlXlXlXlXlXlX",
"lXlXlXlXlXlXlXlXlXlXlXlXlXlXlXlXlX&.0.D.).~.h.d.y.y.=.s f $.M $   + , lXlXlXlXlXlXlXlXlXV.D.K.&.w.lXlXlXlXlXlXlXlXlXlXlXlXlXlXlX",
"lXlXlXlXlXlXlXlXlXlXlXlXlXlXlXlXlXlX0.b.P.D.`.Q.k.t.N f s h n m 3   , lXlXlXlXlXlXlXlXV.V.F.P.p.XXlXlXlXlXlXlXlXlXlXlXlXlXlXlXlX",
"lXlXlXlXlXlXlXlXlXlXlXlXlXlXlXlXlXlX7.9.P.P.Y.j.d.t.m f a i r 2 m 3 $ lXlXlXlXlXlXlXlXV.V.b.R.*X$X$XlXlXlXlXlXlXlXlXlXlXlXlXlXlX",
"lXlXlXlXlXlXlXlXlXlXlXlXlXlXlXlXlXlXlX>.L.I.L.J.9.s.J l y t r r > 2 + # lXlXlXlXlXlXa.V.p.b.6X8X$XW.lXlXlXlXlXlXlXlXlXlXlXlXlXlX",
"lXlXlXlXlXlXlXlXlXlXlXlXlXlXlXlXlXlXlXT 9.I.L.J.c.6.^ S l a t r < r + . lXlXlXlXlXlXq.a.p.p.9X4XoX*.lXlXlXlXlXlXlXlXlXlXlXlXlXlX",
"lXlXlXlXlXlXlXlXlXlXlXlXlXlXlXlXlXlXlXlX&.L.L.J.z.' ` P A g t t r t O .   lXlXlXlXlX*.a.p.e.&X:X].@.lXlXlXlXlXlXlXlXlXlXlXlXlXlX",
"lXlXlXlXlXlXlXlXlXlXlXlXlXlXlXlXlXlXlXlXR 5.L.J.z.| ` [ ) A k a r r < O .   lXlXlXlX*.q.1.<.W.oXQ.lXlXlXlXlXlXlXlXlXlXlXlXlXlXlX",
"lXlXlXlXlXlXlXlXlXlXlXlXlXlXlXlXlXlXlXlX;.L 5.J.l.| ` { 3.2.! k 8 t r = X . # lXlXlX*.<.1.<.r.XXQ.lXlXlXlXlXlXlXlXlXlXlXlXlXlXlX",
"lXlXlXlXlXlXlXlXlXlXlXlXlXlXlXlXlXlX-XS.u.>.S 7.| | [ { N.G.v.) A g t < & X # lXlXb =.1.1.=...].lXlXlXlXlXlXlXlXlXlXlXlXlXlXlXlX",
"lXlXlXlXlXlXlXlXlXlXlXlXlXlXlXlXlXlX9X_.0.,.K :.| ` { { F.G.G.v.:.S a - > # < p lXs  .=.#.X.X.lXlXlXlXlXlXlXlXlXlXlXlXlXlXlXlXlX",
"lXlXlXlXlXlXlXlXlXlXlXlXlXlXlXlXlXlXuX,Xt.&.K K 5.W I [ c.v.G.H.3.) l 9 < & & = & u n %.+.+.lXlXlXlXlXlXlXlXlXlXlXlXlXlXlXlXlXlX",
"lXlXlXlXlXlXlXlXlXlXlXlXlXlXlXlXlXlXlX8X&X/ K g ^ P ( n.l.x.v.H.N.3.^ d , * # @ @ * 1 L J lXlXlXlXlXlXlXlXlXlXlXlXlXlXlXlXlXlXlX",
"lXlXlXlXlXlXlXlXlXlXlXlXlXlXlXlXlXlXlX}.*X,.^ l v _ [ c.J.J.c.v.M.m.3.R d * & # o # & r lXlXlXlXlXlXlXlXlXlXlXlXlXlXlXlXlXlXlXlX",
"lXlXlXlXlXlXlXlXlXlXlXlXlXlXlXlXlXlXlXlXw.d.+.L M ) | z.J.z.l.l.N.e.2.,.T i * & @ @ @ @ lXlXlXlXlXlXlXlXlXlXlXlXlXlXlXlXlXlXlXlX",
"lXlXlXlXlXlXlXlXlXlXlXlXlXlXlXlXlXlXlXlXlX ...m ! ] _ 6.z.J.l.6.B.A.e.,.#.v - % @ O   lXlXlXlXlXlXlXlXlXlXlXlXlXlXlXlXlXlXlXlXlX",
"lXlXlXlXlXlXlXlXlXlXlXlXlXlXlXlXlXlXlXlXlXlX..X.L 5.Q } 6.6.6.} } U.D.$.$.R d * : O . lXlXlXlXlXlXlXlXlXlXlXlXlXlXlXlXlXlXlXlXlX",
"lXlXlXlXlXlXlXlXlXlXlXlXlXlXlXlXlXlXlXlXlXlXlX..b T ! ! / } ' _ _ _ C.^ W ~ D : 9 @   lXlXlXlXlXlXlXlXlXlXlXlXlXlXlXlXlXlXlXlXlX",
"lXlXlXlXlXlXlXlXlXlXlXlXlXlXU.lXlXlXlXlXlXlXlXlXX.d L G c U U W W W 8.2.W Y e * - - O   lXlXlXlXlXlXlXlXlXlXlXlXlXlXlXlXlXlXlXlX",
"lXlXlXlXlXlXlXlXlXlXlXlXlXlX=XC.a.Y.$.lXlXlXlXlXO.h S l k k C B G F K ,.4.W E * @ @ O O lXlXlXlXlXlXlXlXlXlXlXlXlXlXlXlXlXlXlXlX",
"lXlXlXlXlXlXlXlXlXlXlXlXlXlXlXZ.f.B.8.7.l.6.D lXlXl l g C C Z Z Z Z w - S W W e @ O X X lXlXlXlXlXlXlXlXlXlXlXlXlXlXlXlXlXlXlXlX",
"lXlXlXlXlXlXlXlXlXlXlXlXlXlXlXlXlXB.a.p.7.6.~ i < = 7 6 8 B V Z Z Z V 8 % 0 E Y 9 O @   lXlXlXlXlXlXlXlXlXlXlXlXlXlXlXlXlXlXlXlX",
"lXlXlXlXlXlXlXlXlXlXlXlXlXlXlXlXlXlXlXp.,.~ Q D r & = = 8 8 q C V V V B 4 o e G e * @ X   lXm.N.>XM.lXlXlXlXlXlXlXlXlXlXlXlXlXlX",
"lXlXlXlXlXlXlXlXlXlXlXlXlXlXlXlXlXlXlXlXlXK F F l > & = 5 7 8 8 B B 8 B ; X 4 G e 0 % X - j e.N.*XlXlXlXlXlXlXlXlXlXlXlXlXlXlXlX",
"lXlXlXlXlXlXlXlXlXlXlXlXlXlXlXlXlXlXlXlXlXlXlXc z 1 & & & ; 5 7 8 8 8 7 % o o z x x w & r l 3.3.lXlXlXlXlXlXlXlXlXlXlXlXlXlXlXlX",
"lXlXlXlXlXlXlXlXlXlXlXlXlXlXlXlXlXlXlXlXlXlXlXlXlXlX< & & & ; 4 4 4 4 ; % @ o = 0 x ! g r H :.lXlXlXlXlXlXlXlXlXlXlXlXlXlXlXlXlX",
"lXlXlXlXlXlXlXlXlXlXlXlXlXlXlXlXlXlXlXlXlXlXlXlXlXlXlX* & * i z 0 9 9 - - & o & x D U S r H lXlXlXlXlXlXlXlXlXlXlXlXlXlXlXlXlXlX",
"lXlXlXlXlXlXlXlXlXlXlXlXlXlXlXlXlXlXlXlXlXlXlXlXlXlXlXlXlX& & lX* @ * * * @ # # i U T D y lXlXlXlXlXlXlXlXlXlXlXlXlXlXlXlXlXlXlX",
"lXlXlXlXlXlXlXlXlXlXlXlXlXlXlXlXlXlXlXlXlXlXlXlXlXlXlXlXlXlX, lXlX        O # # * M ! D lXlXlXlXlXlXlXlXlXlXlXlXlXlXlXlXlXlXlXlX",
"lXlXlXlXlXlXlXlXlXlXlXlXlXlXlXlXlXlXlXlXlXlXlXlXlXlXlXlXlXlXlXlXlXlX  X O O @ & & i U R lXlXlXlXlXlXlXlXlXlXlXlXlXlXlXlXlXlXlXlX",
"lXlXlXlXlXlXlXlXlXlXlXlXlXlXlXlXlXlXlXlXlXlXlXlXlXlXlXlXlXlXlXlXlXlXlXX O @ + + > 1 v lXlXlXlXlXlXlXlXlXlXlXlXlXlXlXlXlXlXlXlXlX",
"lXlXlXlXlXlXlXlXlXlXlXlXlXlXlXlXlXlXlXlXlXlXlXlXlXlXlXlXlXlXlXlXlXlXlXlXX X @ + + > j lXlXlXlXlXlXlXlXlXlXlXlXlXlXlXlXlXlXlXlXlX",
"lXlXlXlXlXlXlXlXlXlXlXlXlXlXlXlXlXlXlXlXlXlXlXlXlXlXlXlXlXlXlXlXlXlXlXlXlXlXO + @ > p lXlXlXlXlXlXlXlXlXlXlXlXlXlXlXlXlXlXlXlXlX",
"lXlXlXlXlXlXlXlXlXlXlXlXlXlXlXlXlXlXlXlXlXlXlXlXlXlXlXlXlXlXlXlXlXlXlXlXlXlXlXlXlX# u lXlXlXlXlXlXlXlXlXlXlXlXlXlXlXlXlXlXlXlXlX",
"lXlXlXlXlXlXlXlXlXlXlXlXlXlXlXlXlXlXlXlXlXlXlXlXlXlXlXlXlXlXlXlXlXlXlXlXlXlXlXlXlXlXlXlXlXlXlXlXlXlXlXlXlXlXlXlXlXlXlXlXlXlXlXlX",
"lXlXlXlXlXlXlXlXlXlXlXlXlXlXlXlXlXlXlXlXlXlXlXlXlXlXlXlXlXlXlXlXlXlXlXlXlXlXlXlXlXlXlXlXlXlXlXlXlXlXlXlXlXlXlXlXlXlXlXlXlXlXlXlX",
"lXlXlXlXlXlXlXlXlXlXlXlXlXlXlXlXlXlXlXlXlXlXlXlXlXlXlXlXlXlXlXlXlXlXlXlXlXlXlXlXlXlXlXlXlXlXlXlXlXlXlXlXlXlXlXlXlXlXlXlXlXlXlXlX",
"lXlXlXlXlXlXlXlXlXlXlXlXlXlXlXlXlXlXlXlXlXlXlXlXlXlXlXlXlXlXlXlXlXlXlXlXlXlXlXlXlXlXlXlXlXlXlXlXlXlXlXlXlXlXlXlXlXlXlXlXlXlXlXlX",
"lXlXlXlXlXlXlXlXlXlXlXlXlXlXlXlXlXlXlXlXlXlXlXlXlXlXlXlXlXlXlXlXlXlXlXlXlXlXlXlXlXlXlXlXlXlXlXlXlXlXlXlXlXlXlXlXlXlXlXlXlXlXlXlX",
"lXlXlXlXlXlXlXlXlXlXlXlXlXlXlXlXlXlXlXlXlXlXlXlXlXlXlXlXlXlXlXlXlXlXlXlXlXlXlXlXlXlXlXlXlXlXlXlXlXlXlXlXlXlXlXlXlXlXlXlXlXlXlXlX"
};
