/* XPM */
static char *result[] = {
/* columns rows colors chars-per-pixel */
"64 64 234 2 ",
"   c #0B123B",
".  c #091137",
"X  c #0E1443",
"o  c #0F134A",
"O  c #111644",
"+  c #141946",
"@  c #11164C",
"#  c #131A4B",
"$  c #181C4B",
"%  c #121653",
"&  c #141B54",
"*  c #1A1B54",
"=  c #151B5B",
"-  c #1A1C5B",
";  c #12175B",
":  c #201B5F",
">  c #1A2054",
",  c #162159",
"<  c #1A225C",
"1  c #192459",
"2  c #25255A",
"3  c #141764",
"4  c #151A63",
"5  c #1C1D63",
"6  c #181B6D",
"7  c #1B1A75",
"8  c #1E1B79",
"9  c #241C69",
"0  c #241C79",
"q  c #311F78",
"w  c #1C2363",
"e  c #1B226B",
"r  c #1D2764",
"t  c #1F2472",
"y  c #1D3073",
"u  c #232464",
"i  c #222864",
"p  c #23246D",
"a  c #272B6A",
"s  c #2A326F",
"d  c #222473",
"f  c #2B2273",
"g  c #262B75",
"h  c #2B2A74",
"j  c #2A2A7A",
"k  c #26247C",
"l  c #34227B",
"z  c #36297B",
"x  c #2C3174",
"c  c #2E3875",
"v  c #33327C",
"b  c #363577",
"n  c #42367E",
"m  c #251D84",
"M  c #291F8C",
"N  c #271E8A",
"B  c #2B2383",
"V  c #2D228B",
"C  c #342A85",
"Z  c #3A2C84",
"A  c #38288A",
"S  c #2D3587",
"D  c #3D3184",
"F  c #3B3786",
"G  c #2E2191",
"H  c #3E2E99",
"J  c #3E3591",
"K  c #412486",
"L  c #43288B",
"P  c #47388C",
"I  c #4A2D94",
"U  c #4C2D9B",
"Y  c #4B2795",
"T  c #522B9E",
"R  c #433594",
"E  c #4C3493",
"W  c #4B3C94",
"Q  c #46359A",
"!  c #4C389B",
"~  c #472DAA",
"^  c #522CA4",
"/  c #4C39A5",
"(  c #5A33AD",
")  c #5A3AA6",
"_  c #4E31B2",
"`  c #5B35B6",
"'  c #633DAC",
"]  c #693DB5",
"[  c #683AB7",
"{  c #36468A",
"}  c #3D4993",
"|  c #385798",
" . c #284390",
".. c #3F60AA",
"X. c #4B428C",
"o. c #48458B",
"O. c #4B4597",
"+. c #514798",
"@. c #48589B",
"#. c #47529B",
"$. c #57559A",
"%. c #53478D",
"&. c #60459E",
"*. c #44649E",
"=. c #4D45A7",
"-. c #5847A7",
";. c #5858A6",
":. c #5D56B9",
">. c #5453B4",
",. c #485CA5",
"<. c #6946AD",
"1. c #6656A8",
"2. c #6946B7",
"3. c #7345BD",
"4. c #7049B5",
"5. c #6257BC",
"6. c #665DB6",
"7. c #7555BE",
"8. c #5864AD",
"9. c #5C72AD",
"0. c #5B65B8",
"q. c #4C60AB",
"w. c #6865A9",
"e. c #646DBC",
"r. c #6764B8",
"t. c #736DB4",
"y. c #7666B7",
"u. c #6973B5",
"i. c #7472B6",
"p. c #7676BB",
"a. c #7B75BD",
"s. c #727CBB",
"d. c #7069AE",
"f. c #7D4CC9",
"g. c #7848C5",
"h. c #6D5CC3",
"j. c #7B5CC9",
"k. c #7B58D0",
"l. c #6564C5",
"z. c #6969CA",
"x. c #7768C9",
"c. c #6674C1",
"v. c #6A75C8",
"b. c #7C7BC4",
"n. c #7979C6",
"m. c #7574D4",
"M. c #7977D6",
"N. c #7E6FD1",
"B. c #824FCB",
"V. c #8552CC",
"C. c #8556C5",
"Z. c #8C59D3",
"A. c #935CD5",
"S. c #975FD9",
"D. c #915DCF",
"F. c #8269CA",
"G. c #9368CA",
"H. c #847CCB",
"J. c #8179C4",
"K. c #8A65D3",
"L. c #9B62DA",
"P. c #9962D7",
"I. c #8D79D9",
"U. c #A776DD",
"Y. c #B177D8",
"T. c #9C6AE1",
"R. c #5080B5",
"E. c #6C84BA",
"W. c #648BBC",
"Q. c #7C83C5",
"!. c #7688C5",
"~. c #6A97C3",
"^. c #7795C8",
"/. c #7E80D0",
"(. c #76A6CC",
"). c #72AED0",
"_. c #7AC3DC",
"`. c #888FB5",
"'. c #8584CB",
"]. c #8B8ACC",
"[. c #8785C9",
"{. c #8B96CF",
"}. c #8B9CD2",
"|. c #839BD6",
" X c #939AD7",
".X c #9593D4",
"XX c #B088D8",
"oX c #88A6D5",
"OX c #9CA9D9",
"+X c #98B5DD",
"@X c #88B7D8",
"#X c #A2A9D7",
"$X c #A5B3DD",
"%X c #AABDDB",
"&X c #AAB6D6",
"*X c #B18DE7",
"=X c #90AFE0",
"-X c #A8BCE3",
";X c #B4BAE2",
":X c #BCAFEB",
">X c #B3C9D8",
",X c #ABC7E9",
"<X c #B6CCE7",
"1X c #BAD7EC",
"2X c #BDC2F1",
"3X c #B9E5F3",
"4X c #C7C9ED",
"5X c #C7D8ED",
"6X c #CDDCF0",
"7X c #D2DEF3",
"8X c #D0DAE7",
"9X c #F9DCFC",
"0X c #E7D1FD",
"qX c #C4E5F4",
"wX c #CDEEF6",
"eX c #C4E8F5",
"rX c #D8EAF6",
"tX c #CBF5FA",
"yX c #CDFBFE",
"uX c #C6F2F9",
"iX c #D4F5FA",
"pX c #D4FEFF",
"aX c #DAFCFE",
"sX c #D6F2F7",
"dX c #D0E2ED",
"fX c #E4E9F8",
"gX c #F7E7FD",
"hX c #EDF5FB",
"jX c #EBFCFE",
"kX c #E3FAFD",
"lX c #F2F6FC",
"zX c #F4FCFE",
"xX c #FAFDFF",
"cX c None",
/* pixels */
"cXcXcXcXcXcXcXcXcXcXcXcXcXcXcXcXcXcXcXcXcXcXcXcXcXcXcXcXcXcXcXcXcXcXcXcXcXcXcXcXcXcXcXcXcXcXcXcXcXcXcXcXcXcXcXcXcXcXcXcXcXcXcXcX",
"cXcXcXcXcXcXcXcXcXcXcXcXcXcXcXcXcXcXcXcXcXcXcXcXcXcXcXcXcXcXcXcXcXcXcXcXcXcXcXcXcXcXcXcXcXcXcXcXcXcXcXcXcXcXcXcXcXcXcXcXcXcXcXcX",
"cXcXcXcXcXcXcXcXcXcXcXcXcXcXcXcXcXcXcXcXcXcXcXcXcXcXcXcXcXcXcXcXcXcXcXcXcXcXcXcXcXcXcXcXcXcXcXcXcXcXcXcXcXcXcXcXcXcXcXcXcXcXcXcX",
"cXcXcXcXcXcXcXcXcXcXcXcXcXcXcXcXcXcXcXcXcXcXcXcXcXcXcXcXcXcXcXcXcXcXcXcXcXcXcXcXcXcXcXcXcXcXcXcXcXcXcXcXcXcXcXcXcXcXcXcXcXcXcXcX",
"cXcXcXcXcXcXcXcXcXcXcXcXcXcXcXcXcXcXcXcXcXcXcXcXcXcXcXcXcXcXcXcXcXcXcXcXcXcXcXcXcXcXcXcXcXcXcXcXcXcXcXcXcXcXcXcXcXcXcXcXcXcXcXcX",
"cXcXcXcXcXcXcXcXcXcXcXcXcXcXcXcXcXcXcX9X9XcXcXcXcXcXcXcXcXcXcXcXcXcXcXcXcXcXcXcXcXcXcXcXcXcXcXcXcXcXcXcXcXcXcXcXcXcXcXcXcXcXcXcX",
"cXcXcXcXcXcXcXcXcXcXcXcXcXcXcXcXcXcXcX9X0X2XcXcXcXcXcXcXcXcXcXcXcXcXcXcXcXcXcXcXcXcXcXcXcXcXcXcXcXcXcXcXcXcXcXcXcXcXcXcXcXcXcXcX",
"cXcXcXcXcXcXcXcXcXcXcXcXcXcXcXcXcXcXgX9XfX7X<XcXcXcXcXcXcXcXcXcXcXcXcXcXcXcXcXcXcXcXcXcXcXcXcXcXcXcXcXcXcXcXcXcXcXcXcXcXcXcXcXcX",
"cXcXcXcXcXcXcXcXcXcXcXcXcXcXcXcXcXcXlXzXjXdX-X=XcXcXcXcXcXcXcXcXcXcXcXcXcXcXcXcXcXcXcXcXcXcXcXcXcXcXcXcXcXcXcXcXcXcXcXcXcXcXcXcX",
"cXcXcXcXcXcXcXcXcXcXcXcXcXcXcXcXcXhXzXxXjX6X+XoXoXcXcXcXcXcXcXcXcXcXcXcXcXcXcXcXcXcXcXcXcXcXcXcXcXcXcXcXcXcXcXcXcXcXcXcXcXcXcXcX",
"cXcXcXcXcXcXcXcXcXcXcXcXcXcXcXcXcXxXxXxXzXrX;X}.|.}.cXcXcXcXcXcXcXcXcXcXcXcXcXcXcXcXcXcXcXcXcXcXcXcXcXcXcXcXcXcXcXcXcXcXcXcXcXcX",
"cXcXcXcXcXcXcXcXcXcXcXcXcXcXcXcXlXxXxXxXfXsXiXqX<X+X,XcXcXcXcXcXcXcXcXcXcXcXcXcXcXcXcXcXcXcXcXcXcXcXcXcXcXcXcXcXcXcXcXcXcXcXcXcX",
"cXcXcXcXcXcXcXcXcXcXcXcXcXcXcXcXlXxXxXlXrXdXwXwXaXyXuXtXcXcXcXcXcXcXcXcXcXcXcXcXcXcXcXcXcXcXcXcXcXcXcXcXcXcXcXcXcXcXcXcXcXcXcXcX",
"cXcXcXcXcXcXcXcXcXcXcXcXcXcXcXsXjXxXzXlXhXdX>X>XyXaXyXyXcXcXcXcXcXcXcXcXcXcXcXcXcXcXcXcXcXcXcXcXcXcXcXcXcXcXcXcXcXcXcXcXcXcXcXcX",
"cXcXcXcXcXcXcXcXcXcXcXcXcXcXcXrXkXzXlXlX8X<X>X#X1XqXeX3X3XcXcXcXcXcXcXcXcXcXcXcXcXcXcXcXcXcXcXcXcXcXcXcXcXcXcXcXcXcXcXcXcXcXcXcX",
"cXcXcXcXcXcXcXcXcXcXcXcXcXcXcXsXiXjXlXfX8X>X`.1X5X<X,X#X{.u.cXcXcXcXcXcXcXcXcXcXcXcXcXcXcXcXcXcXcXcXcXcXcXcXcXcXcXcXcXcXcXcXcXcX",
"cXcXcXcXcXcXcXcXcXcXcXcXcXcXcXwXtXaXkX5X;X`..XOX$X-X$X$X$X^.cXcXcXcXcXcXcXcXcXcXcXcXcXcXcXcXcXcXcXcXcXcXcXcXcXcXcXcXcXcXcXcXcXcX",
"cXcXcXcXcXcXcXcXcXcXcXcXcXcXcXtXaXjXjX5X#XJ.[.J.H.[.].].].i.*.cXcXcXcXcXcXcXcXcXcXcXcXcXcXcXcXcXcXcXcXcXcXcXcXcXcXcXcXcXcXcXcXcX",
"cXcXcXcXcXcXcXcXcXcXcXcXcXcXcX3XyXaXkX6X#X{.[.[.H.H.J.a.a.a.o. .cXcXcXcXcXcXcXcXcXcXcXcXcXcXcXcXcXcXcXcXcXcXcXcXcXcXcXcXcXcXcXcX",
"cXcXcXcXcXcXcXcXcXcXcXcXcXcXcXuXyXaXsX1XOXQ./.[.].].].[.a.y.a y cXcXcXcXcXcXcXcXcXcXcXcXcXcXcXcXcXcXcXcXcXcXcXcXcXcXcXcXcXcXcXcX",
"cXcXcXcXcXcXcXcXcXcXcXcXcXcXcXuXyXaXwX,X}.b.b.b.'.b.a.a.w.;.s > < cXcXcXcXcXcXcXcXcXcXcXcXcXcXcXcXcXcXcXcXcXcXcXcXcXcXcXcXcXcXcX",
"cXcXcXcXcXcXcXcXcXcXcXcXcXcXcXtXyXpXeX-X{.Q.Q.b.b.b.a.t.o.o.2 a i cXcXcXcXcXcXcXcXcXcXcXcXcXcXcXcXcXcXcXcXcXcXcXcXcXcXcXcXcXcXcX",
"cXcXcXcXcXcXcXcXcXcXcXcXcXcXcXcXyXyX3X+X!.!.b.b.a.p.p.w.b %.2 1 r S cXcXcXcXcXcXcXcXcXcXcXcXcX$.w.cXcXcXcXcXcXcXcXcXcXcXcXcXcXcX",
"cXcXcXcXcXcXcXcXcXcXcXcXcXcXcXcXrXtX1X+X^.!.b.p.p.p.i.%.s %.> > # 1 cXcXcXcXcXcXcXcXcXcXcXcX1.+.$.cXcXcXcXcXcXcXcXcXcXcXcXcXcXcX",
"cXcXcXcXcXcXcXcXcXcXcXcXcXcXcXcXcX4X,X@X^.!.s.s.t.t.w.b x W $ + # O cXcXcXcXcXcXcXcXcXcXcXH.7.+.$.cXcXcXcXcXcXcXcXcXcXcXcXcXcXcX",
"cXcXcXcXcXcXcXcXcXcXcXcXcXcXcXcXcXI.T..X^.^.!.u.u.d.$.s x +.z + +   2 cXcXcXcXcXcXcXcXcXc.N.V.<.9.cXcXcXcXcXcXcXcXcXcXcXcXcXcXcX",
"cXcXcXcXcXcXcXcXcXcXcXcXcXcXcXcXcXcXU.L.A.H.^.E.u.w.P a g g v b 2   2 cXcXcXcXcXcXcXcXc.c.x.A.l.).cXcXcXcXcXcXcXcXcXcXcXcXcXcXcX",
"cXcXcXcXcXcXcXcXcXcXcXcXcXcXcXcXcXcXG.A.S.S.K.b.s.w.F g d p r r b i + cXcXcXcXcXcXcXcXe.c.x.T. X_._.cXcXcXcXcXcXcXcXcXcXcXcXcXcX",
"cXcXcXcXcXcXcXcXcXcXcXcXcXcXcXcXcXcXcX4.A.L.S.V.7.d.F j g t e e , r + # cXcXcXcXcXcXe.e.r.7.*X%X_.W.cXcXcXcXcXcXcXcXcXcXcXcXcXcX",
"cXcXcXcXcXcXcXcXcXcXcXcXcXcXcXcXcXcXcXX.C.L.S.V.g.3.R C j d e e w r O . cXcXcXcXcXcX8.e.r.r.:X;X).$.cXcXcXcXcXcXcXcXcXcXcXcXcXcX",
"cXcXcXcXcXcXcXcXcXcXcXcXcXcXcXcXcXcXcXcX&.P.P.Z.V.[ ( H V j y e e e O     cXcXcXcXcX@.e.0.8.}.oX^.+.cXcXcXcXcXcXcXcXcXcXcXcXcXcX",
"cXcXcXcXcXcXcXcXcXcXcXcXcXcXcXcXcXcXcXcX%.4.P.A.V.] ` ` / V B e e 4 = O .   cXcXcXcX@.0.;.q.W.(.W.cXcXcXcXcXcXcXcXcXcXcXcXcXcXcX",
"cXcXcXcXcXcXcXcXcXcXcXcXcXcXcXcXcXcXY.cX1.P 4.V.B.[ ` _ 5.5.~ B t e e = X . # cXcXcX@.;.;.,.R.).E.cXcXcXcXcXcXcXcXcXcXcXcXcXcXcX",
"cXcXcXcXcXcXcXcXcXcXcXcXcXcXcXcXcXcXXXJ.y.-.D 4.3.[ [ _ x.m.l./ G t e 5 & o & cXcXc @.;.;.| | ~.cXcXcXcXcXcXcXcXcXcXcXcXcXcXcXcX",
"cXcXcXcXcXcXcXcXcXcXcXcXcXcXcXcXcXcX;X[.1.<.P -.] ^ _ _ K.m.m.h.-.G k 5 , & , i cXa } #.O.} S cXcXcXcXcXcXcXcXcXcXcXcXcXcXcXcXcX",
"cXcXcXcXcXcXcXcXcXcXcXcXcXcXcXcXcXcX1XOX6.O.R R <.U ~ ` g.k.m.m.h./ j r 4 & & < % i x o.X.} cXcXcXcXcXcXcXcXcXcXcXcXcXcXcXcXcXcX",
"cXcXcXcXcXcXcXcXcXcXcXcXcXcXcXcXcXcXcX-X'.=.R d W Q _ g.B.B.k.m.z.5.=.g w - & % @ = < F F cXcXcXcXcXcXcXcXcXcXcXcXcXcXcXcXcXcXcX",
"cXcXcXcXcXcXcXcXcXcXcXcXcXcXcXcXcXcXcX^.{.;.R g z / ` g.V.V.B.x.m.l.:.W a - ; & % # % i cXcXcXcXcXcXcXcXcXcXcXcXcXcXcXcXcXcXcXcX",
"cXcXcXcXcXcXcXcXcXcXcXcXcXcXcXcXcXcXcXcX9.9.} D h / [ f.V.B.f.f.x.l.:.-.P u = & % @ @ & cXcXcXcXcXcXcXcXcXcXcXcXcXcXcXcXcXcXcXcX",
"cXcXcXcXcXcXcXcXcXcXcXcXcXcXcXcXcXcXcXcXcX{ | v E ( ) g.B.B.f.3.x.n.r.-.O.z - & % O   cXcXcXcXcXcXcXcXcXcXcXcXcXcXcXcXcXcXcXcXcX",
"cXcXcXcXcXcXcXcXcXcXcXcXcXcXcXcXcXcXcXcXcXcX|  .b <.E ' 3.g.3.] 2.H.H.+.O.W a & : O   cXcXcXcXcXcXcXcXcXcXcXcXcXcXcXcXcXcXcXcXcX",
"cXcXcXcXcXcXcXcXcXcXcXcXcXcXcXcXcXcXcXcXcXcXcX| x P E E ) ) ' ' ( ' x.W I T Z 5 9 @   cXcXcXcXcXcXcXcXcXcXcXcXcXcXcXcXcXcXcXcXcX",
"cXcXcXcXcXcXcXcXcXcXcXcXcXcX4XcXcXcXcXcXcXcXcXcX .h Z C A L E U ^ U :.:.Y Y A - - * O   cXcXcXcXcXcXcXcXcXcXcXcXcXcXcXcXcXcXcXcX",
"cXcXcXcXcXcXcXcXcXcXcXcXcXcX4X Xn.G.+.cXcXcXcXcX,.g C k B k B V A A J ;.<.T Y : % & X O cXcXcXcXcXcXcXcXcXcXcXcXcXcXcXcXcXcXcXcX",
"cXcXcXcXcXcXcXcXcXcXcXcXcXcXcX}.b.F.6.2.g.2.Z cXcXj j d B V V V M M 0 - Z T ^ q % o O O cXcXcXcXcXcXcXcXcXcXcXcXcXcXcXcXcXcXcXcX",
"cXcXcXcXcXcXcXcXcXcXcXcXcXcXcXcXcXx.z.r.2.2.E p , w 5 5 8 N M V G G G 0 % q ^ Y 9 @ o   cXcXcXcXcXcXcXcXcXcXcXcXcXcXcXcXcXcXcXcX",
"cXcXcXcXcXcXcXcXcXcXcXcXcXcXcXcXcXcXcXr.-.! U Z w & = ; 6 8 m N M M M m 3 o q K K : o X   cX0.l.|.c.cXcXcXcXcXcXcXcXcXcXcXcXcXcX",
"cXcXcXcXcXcXcXcXcXcXcXcXcXcXcXcXcXcXcXcXcXF J A j & & & 6 6 7 m m m m m ; X 9 K K q ; o - g r.l.(.cXcXcXcXcXcXcXcXcXcXcXcXcXcXcX",
"cXcXcXcXcXcXcXcXcXcXcXcXcXcXcXcXcXcXcXcXcXcXcXz h < % & & ; 6 6 7 8 8 6 % o o q K A q & w j >.:.cXcXcXcXcXcXcXcXcXcXcXcXcXcXcXcX",
"cXcXcXcXcXcXcXcXcXcXcXcXcXcXcXcXcXcXcXcXcXcXcXcXcXcX< & & & ; 4 3 3 3 ; % @ o - q K E f w S =.cXcXcXcXcXcXcXcXcXcXcXcXcXcXcXcXcX",
"cXcXcXcXcXcXcXcXcXcXcXcXcXcXcXcXcXcXcXcXcXcXcXcXcXcXcX> & = w f 0 9 9 - - % @ & l L E Z r S cXcXcXcXcXcXcXcXcXcXcXcXcXcXcXcXcXcX",
"cXcXcXcXcXcXcXcXcXcXcXcXcXcXcXcXcXcXcXcXcXcXcXcXcXcXcXcXcX& * cX* @ * * * # @ # u I I Z y cXcXcXcXcXcXcXcXcXcXcXcXcXcXcXcXcXcXcX",
"cXcXcXcXcXcXcXcXcXcXcXcXcXcXcXcXcXcXcXcXcXcXcXcXcXcXcXcXcXcX> cXcX        X # & > z E P cXcXcXcXcXcXcXcXcXcXcXcXcXcXcXcXcXcXcXcX",
"cXcXcXcXcXcXcXcXcXcXcXcXcXcXcXcXcXcXcXcXcXcXcXcXcXcXcXcXcXcXcXcXcXcX  X X @ # # * u P E cXcXcXcXcXcXcXcXcXcXcXcXcXcXcXcXcXcXcXcX",
"cXcXcXcXcXcXcXcXcXcXcXcXcXcXcXcXcXcXcXcXcXcXcXcXcXcXcXcXcXcXcXcXcXcXcXO O + + # & < n cXcXcXcXcXcXcXcXcXcXcXcXcXcXcXcXcXcXcXcXcX",
"cXcXcXcXcXcXcXcXcXcXcXcXcXcXcXcXcXcXcXcXcXcXcXcXcXcXcXcXcXcXcXcXcXcXcXcXX O X + $ > h cXcXcXcXcXcXcXcXcXcXcXcXcXcXcXcXcXcXcXcXcX",
"cXcXcXcXcXcXcXcXcXcXcXcXcXcXcXcXcXcXcXcXcXcXcXcXcXcXcXcXcXcXcXcXcXcXcXcXcXcXO O # = i cXcXcXcXcXcXcXcXcXcXcXcXcXcXcXcXcXcXcXcXcX",
"cXcXcXcXcXcXcXcXcXcXcXcXcXcXcXcXcXcXcXcXcXcXcXcXcXcXcXcXcXcXcXcXcXcXcXcXcXcXcXcXcX* i cXcXcXcXcXcXcXcXcXcXcXcXcXcXcXcXcXcXcXcXcX",
"cXcXcXcXcXcXcXcXcXcXcXcXcXcXcXcXcXcXcXcXcXcXcXcXcXcXcXcXcXcXcXcXcXcXcXcXcXcXcXcXcXcXcXcXcXcXcXcXcXcXcXcXcXcXcXcXcXcXcXcXcXcXcXcX",
"cXcXcXcXcXcXcXcXcXcXcXcXcXcXcXcXcXcXcXcXcXcXcXcXcXcXcXcXcXcXcXcXcXcXcXcXcXcXcXcXcXcXcXcXcXcXcXcXcXcXcXcXcXcXcXcXcXcXcXcXcXcXcXcX",
"cXcXcXcXcXcXcXcXcXcXcXcXcXcXcXcXcXcXcXcXcXcXcXcXcXcXcXcXcXcXcXcXcXcXcXcXcXcXcXcXcXcXcXcXcXcXcXcXcXcXcXcXcXcXcXcXcXcXcXcXcXcXcXcX",
"cXcXcXcXcXcXcXcXcXcXcXcXcXcXcXcXcXcXcXcXcXcXcXcXcXcXcXcXcXcXcXcXcXcXcXcXcXcXcXcXcXcXcXcXcXcXcXcXcXcXcXcXcXcXcXcXcXcXcXcXcXcXcXcX",
"cXcXcXcXcXcXcXcXcXcXcXcXcXcXcXcXcXcXcXcXcXcXcXcXcXcXcXcXcXcXcXcXcXcXcXcXcXcXcXcXcXcXcXcXcXcXcXcXcXcXcXcXcXcXcXcXcXcXcXcXcXcXcXcX",
"cXcXcXcXcXcXcXcXcXcXcXcXcXcXcXcXcXcXcXcXcXcXcXcXcXcXcXcXcXcXcXcXcXcXcXcXcXcXcXcXcXcXcXcXcXcXcXcXcXcXcXcXcXcXcXcXcXcXcXcXcXcXcXcX"
};
