/* XPM */
static char *result[] = {
/* columns rows colors chars-per-pixel */
"64 64 227 2 ",
"   c #0B123B",
".  c #091137",
"X  c #0E1443",
"o  c #0F1449",
"O  c #111644",
"+  c #131945",
"@  c #12164D",
"#  c #131A4B",
"$  c #191C4B",
"%  c #111654",
"&  c #141B54",
"*  c #1A1B54",
"=  c #151B5B",
"-  c #1A1C5C",
";  c #12175C",
":  c #201B5F",
">  c #1A215C",
",  c #182258",
"<  c #24245A",
"1  c #161B63",
"2  c #1C1D63",
"3  c #161968",
"4  c #1A1B73",
"5  c #1C1A7D",
"6  c #231C67",
"7  c #251C78",
"8  c #341F79",
"9  c #1C2363",
"0  c #1B226C",
"q  c #1D2766",
"w  c #1D2171",
"e  c #252768",
"r  c #232575",
"t  c #2A2372",
"y  c #2B2A74",
"u  c #23227B",
"i  c #262B79",
"p  c #2A2979",
"a  c #35287B",
"s  c #2C3275",
"d  c #2A3378",
"f  c #363279",
"g  c #302E6D",
"h  c #42367F",
"j  c #261D89",
"k  c #251E87",
"l  c #2A1F91",
"z  c #2B2384",
"x  c #2C238C",
"c  c #292781",
"v  c #3D2482",
"b  c #3B2B86",
"n  c #36298B",
"m  c #2D3687",
"M  c #3B3584",
"N  c #2E2294",
"B  c #3A2894",
"V  c #323BA8",
"C  c #4B258C",
"Z  c #47288A",
"A  c #44378A",
"S  c #482E97",
"D  c #522B9B",
"F  c #542698",
"G  c #4D3A9C",
"H  c #493895",
"J  c #543398",
"K  c #5A2DA3",
"L  c #4B35A3",
"P  c #553BAA",
"I  c #5637A5",
"U  c #542FB1",
"Y  c #5733B5",
"T  c #462AA6",
"R  c #633AAB",
"E  c #6435B3",
"W  c #693BB5",
"Q  c #602BA6",
"!  c #37448B",
"~  c #3B589C",
"^  c #314693",
"/  c #3F60AA",
"(  c #44438E",
")  c #4A4498",
"_  c #584799",
"`  c #48589B",
"'  c #46529B",
"]  c #53458C",
"[  c #65569F",
"{  c #4645A8",
"}  c #544DAB",
"|  c #5B46A8",
" . c #5958A4",
".. c #5948B4",
"X. c #5755B8",
"o. c #485CA5",
"O. c #6546AB",
"+. c #6A57A7",
"@. c #7643BC",
"#. c #6458B9",
"$. c #6D52B1",
"%. c #4963A6",
"&. c #5864AD",
"*. c #5C65B8",
"=. c #646DBC",
"-. c #6664BA",
";. c #7C6BB9",
":. c #6674B8",
">. c #7169AC",
",. c #6539C0",
"<. c #7A48C3",
"1. c #6755C6",
"2. c #785AC6",
"3. c #6168C7",
"4. c #7566C9",
"5. c #6675C2",
"6. c #7C73D4",
"7. c #7F7DD1",
"8. c #7171D3",
"9. c #7C66E7",
"0. c #8572BC",
"q. c #844DCB",
"w. c #884BC9",
"e. c #8752CC",
"r. c #8B58D3",
"t. c #9257D0",
"y. c #9266CD",
"u. c #8678C6",
"i. c #8967D7",
"p. c #8479D7",
"a. c #9064D6",
"s. c #A767D6",
"d. c #AA72D6",
"f. c #BE75DD",
"g. c #9879ED",
"h. c #8466ED",
"j. c #A36AE2",
"k. c #AD79E7",
"l. c #C87BEA",
"z. c #D379E9",
"x. c #5381B7",
"c. c #7287BD",
"v. c #5983D2",
"b. c #6B9CC8",
"n. c #749ECB",
"m. c #648EC0",
"M. c #6BA5CD",
"N. c #7AA5CE",
"B. c #6EACD0",
"V. c #77A9D2",
"C. c #79B7D7",
"Z. c #6484EA",
"A. c #9A87CC",
"S. c #829ACE",
"D. c #8B94C9",
"F. c #9C8AD6",
"G. c #859CD3",
"H. c #999AD6",
"J. c #8587CC",
"K. c #AB93D8",
"L. c #87A5D3",
"P. c #9AABD9",
"I. c #87B8DA",
"U. c #9BB6DB",
"Y. c #A6A6D8",
"T. c #B1A2DA",
"R. c #A7B5DB",
"E. c #B8B7DE",
"W. c #A6A5C9",
"Q. c #9685F3",
"!. c #B581E9",
"~. c #B08FF3",
"^. c #97B8E2",
"/. c #90A8EB",
"(. c #BBA8E4",
"). c #A1B9E4",
"_. c #B8B8E3",
"`. c #BBABF9",
"'. c #A1B4F8",
"]. c #C985EA",
"[. c #C899E9",
"{. c #C89BF6",
"}. c #D68FF2",
"|. c #C6ABF9",
" X c #D6A2F2",
".X c #D3B5F3",
"XX c #C7B5EB",
"oX c #E7A6F8",
"OX c #F3ACFC",
"+X c #EBB6F9",
"@X c #83C5DD",
"#X c #B8C6D9",
"$X c #87CAE1",
"%X c #9ED3E9",
"&X c #9ECFE9",
"*X c #A8C5E4",
"=X c #BAC6E6",
"-X c #B7D5E8",
";X c #A7D5E8",
":X c #BBEDF8",
">X c #B3E2F0",
",X c #C8CBE9",
"<X c #D2C5EA",
"1X c #CCD7EB",
"2X c #DAD8EF",
"3X c #D7C8F5",
"4X c #C9DBF1",
"5X c #DCDDF2",
"6X c #D5D9F4",
"7X c #E5C8F5",
"8X c #F9C5FE",
"9X c #E6D9F7",
"0X c #C6EDF6",
"qX c #D7E8F3",
"wX c #CAF5FB",
"eX c #D7FBFD",
"rX c #D0E3EB",
"tX c #E4E4F4",
"yX c #EAE9F7",
"uX c #EBFAFD",
"iX c #EBF4FA",
"pX c #F4F3FA",
"aX c #FAF5FE",
"sX c #F3FAFD",
"dX c #FCFCFE",
"fX c #F3E0FA",
"gX c None",
/* pixels */
"gXgXgXgXgXgXgXgXgXgXgXgXgXgXgXgXgXgXgXgXgXgXgXgXgXgXgXgXgXgXgXgXgXgXgXgXgXgXgXgXgXgXgXgXgXgXgXgXgXgXgXgXgXgXgXgXgXgXgXgXgXgXgXgX",
"gXgXgXgXgXgXgXgXgXgXgXgXgXgXgXgXgXgXgXgXgXgXgXgXgXgXgXgXgXgXgXgXgXgXgXgXgXgXgXgXgXgXgXgXgXgXgXgXgXgXgXgXgXgXgXgXgXgXgXgXgXgXgXgX",
"gXgXgXgXgXgXgXgXgXgXgXgXgXgXgXgXgXgXgXgXgXgXgXgXgXgXgXgXgXgXgXgXgXgXgXgXgXgXgXgXgXgXgXgXgXgXgXgXgXgXgXgXgXgXgXgXgXgXgXgXgXgXgXgX",
"gXgXgXgXgXgXgXgXgXgXgXgXgXgXgXgXgXgXgXgXgXgXgXgXgXgXgXgXgXgXgXgXgXgXgXgXgXgXgXgXgXgXgXgXgXgXgXgXgXgXgXgXgXgXgXgXgXgXgXgXgXgXgXgX",
"gXgXgXgXgXgXgXgXgXgXgXgXgXgXgXgXgXgXgXgXgXgXgXgXgXgXgXgXgXgXgXgXgXgXgXgXgXgXgXgXgXgXgXgXgXgXgXgXgXgXgXgXgXgXgXgXgXgXgXgXgXgXgXgX",
"gXgXgXgXgXgXgXgXgXgXgXgXgXgXgXgXgXgXgX}.z.gXgXgXgXgXgXgXgXgXgXgXgXgXgXgXgXgXgXgXgXgXgXgXgXgXgXgXgXgXgXgXgXgXgXgXgXgXgXgXgXgXgXgX",
"gXgXgXgXgXgXgXgXgXgXgXgXgXgXgXgXgXgXgXz.f.A.gXgXgXgXgXgXgXgXgXgXgXgXgXgXgXgXgXgXgXgXgXgXgXgXgXgXgXgXgXgXgXgXgXgXgXgXgXgXgXgXgXgX",
"gXgXgXgXgXgXgXgXgXgXgXgXgXgXgXgXgXgX[.!.H.).*XgXgXgXgXgXgXgXgXgXgXgXgXgXgXgXgXgXgXgXgXgXgXgXgXgXgXgXgXgXgXgXgXgXgXgXgXgXgXgXgXgX",
"gXgXgXgXgXgXgXgXgXgXgXgXgXgXgXgXgXgX).^.^.^.=X4XgXgXgXgXgXgXgXgXgXgXgXgXgXgXgXgXgXgXgXgXgXgXgXgXgXgXgXgXgXgXgXgXgXgXgXgXgXgXgXgX",
"gXgXgXgXgXgXgXgXgXgXgXgXgXgXgXgXgX;X%X&X*X*X=X6XtXgXgXgXgXgXgXgXgXgXgXgXgXgXgXgXgXgXgXgXgXgXgXgXgXgXgXgXgXgXgXgXgXgXgXgXgXgXgXgX",
"gXgXgXgXgXgXgXgXgXgXgXgXgXgXgXgXgXeXwX0X0X0X1X5XiXpXgXgXgXgXgXgXgXgXgXgXgXgXgXgXgXgXgXgXgXgXgXgXgXgXgXgXgXgXgXgXgXgXgXgXgXgXgXgX",
"gXgXgXgXgXgXgXgXgXgXgXgXgXgXgXgXeXeXeXeXrXqXiXiXsXdXdXgXgXgXgXgXgXgXgXgXgXgXgXgXgXgXgXgXgXgXgXgXgXgXgXgXgXgXgXgXgXgXgXgXgXgXgXgX",
"gXgXgXgXgXgXgXgXgXgXgXgXgXgXgXgX:XwX0X#X#X1XiXuXdXdXdXsXgXgXgXgXgXgXgXgXgXgXgXgXgXgXgXgXgXgXgXgXgXgXgXgXgXgXgXgXgXgXgXgXgXgXgXgX",
"gXgXgXgXgXgXgXgXgXgXgXgXgXgXgX>X:X:X-X-XrXqXqXtXdXdXdXsXgXgXgXgXgXgXgXgXgXgXgXgXgXgXgXgXgXgXgXgXgXgXgXgXgXgXgXgXgXgXgXgXgXgXgXgX",
"gXgXgXgXgXgXgXgXgXgXgXgXgXgXgX%X%X>X-X-X#X1X5XtXdXdXdXuXwXgXgXgXgXgXgXgXgXgXgXgXgXgXgXgXgXgXgXgXgXgXgXgXgXgXgXgXgXgXgXgXgXgXgXgX",
"gXgXgXgXgXgXgXgXgXgXgXgXgXgXgX;XC.@XU.R.=X1X#XpXdXdXdX5XE.;.gXgXgXgXgXgXgXgXgXgXgXgXgXgXgXgXgXgXgXgXgXgXgXgXgXgXgXgXgXgXgXgXgXgX",
"gXgXgXgXgXgXgXgXgXgXgXgXgXgXgX$XC.V.n.D.Y.W.2XpXdXdXpX2X#XD.gXgXgXgXgXgXgXgXgXgXgXgXgXgXgXgXgXgXgXgXgXgXgXgXgXgXgXgXgXgXgXgXgXgX",
"gXgXgXgXgXgXgXgXgXgXgXgXgXgXgX@XI.V.L.H.Y._.9XpXdXaXtX<XY.0.%.gXgXgXgXgXgXgXgXgXgXgXgXgXgXgXgXgXgXgXgXgXgXgXgXgXgXgXgXgXgXgXgXgX",
"gXgXgXgXgXgXgXgXgXgXgXgXgXgXgXB.B.N.G.Y.E.<X9XpXdXaX2X(.A.u.' ^ gXgXgXgXgXgXgXgXgXgXgXgXgXgXgXgXgXgXgXgXgXgXgXgXgXgXgXgXgXgXgXgX",
"gXgXgXgXgXgXgXgXgXgXgXgXgXgXgXB.M.n.N.P.E.,XtXpXdXaXtXE.A.0.g i gXgXgXgXgXgXgXgXgXgXgXgXgXgXgXgXgXgXgXgXgXgXgXgXgXgXgXgXgXgXgXgX",
"gXgXgXgXgXgXgXgXgXgXgXgXgXgXgXV.M.n.S.P.=X,XtXaXdXpX<XK.;.[ s , > gXgXgXgXgXgXgXgXgXgXgXgXgXgXgXgXgXgXgXgXgXgXgXgXgXgXgXgXgXgXgX",
"gXgXgXgXgXgXgXgXgXgXgXgXgXgXgXN.b.M.S.Y.=X2XyXdXdXyXXXA.] ] e s e gXgXgXgXgXgXgXgXgXgXgXgXgXgXgXgXgXgXgXgXgXgXgXgXgXgXgXgXgXgXgX",
"gXgXgXgXgXgXgXgXgXgXgXgXgXgXgXgXb.b.N.U.,X2XpXdXaXtXE.0.h ] < < q m gXgXgXgXgXgXgXgXgXgXgXgXgX[ >.gXgXgXgXgXgXgXgXgXgXgXgXgXgXgX",
"gXgXgXgXgXgXgXgXgXgXgXgXgXgXgXgXL.N.I.R.=X5XpXpXaX2XE.[ f _ < $ # > gXgXgXgXgXgXgXgXgXgXgXgX+._ +.gXgXgXgXgXgXgXgXgXgXgXgXgXgXgX",
"gXgXgXgXgXgXgXgXgXgXgXgXgXgXgXgXgXD.G.*X-XqXaXaXfXXXA.( s H $ $ $ + gXgXgXgXgXgXgXgXgXgXgXu.2.O.[ gXgXgXgXgXgXgXgXgXgXgXgXgXgXgX",
"gXgXgXgXgXgXgXgXgXgXgXgXgXgXgXgXgX$.y.(.6XqXsXsX9XXX;.s d } g $ + + < gXgXgXgXgXgXgXgXgX5.6.t.+.:.gXgXgXgXgXgXgXgXgXgXgXgXgXgXgX",
"gXgXgXgXgXgXgXgXgXgXgXgXgXgXgXgXgXgXs.]. X7XsXuX2XT._ s i i f M < + , gXgXgXgXgXgXgXgX=.5.i.a.4.L.gXgXgXgXgXgXgXgXgXgXgXgXgXgXgX",
"gXgXgXgXgXgXgXgXgXgXgXgXgXgXgXgXgXgXd.].oX+X8X9X4XH.( i r r q q s < $ gXgXgXgXgXgXgXgX5.3.4.j.H.$X@XgXgXgXgXgXgXgXgXgXgXgXgXgXgX",
"gXgXgXgXgXgXgXgXgXgXgXgXgXgXgXgXgXgXgXd.oX8X8XOX XA.) c i w w 0 > 9 + # gXgXgXgXgXgX:.=.-.4.K._.@Xc.gXgXgXgXgXgXgXgXgXgXgXgXgXgX",
"gXgXgXgXgXgXgXgXgXgXgXgXgXgXgXgXgXgXgXy. X8X8XOXz.t.L n c u w w 0 q X . gXgXgXgXgXgX&.=.-.3.(.E.C.[ gXgXgXgXgXgXgXgXgXgXgXgXgXgX",
"gXgXgXgXgXgXgXgXgXgXgXgXgXgXgXgXgXgXgXgX!.8X8XOX].t.E B x z w w 0 0 X     gXgXgXgXgX` =.-.&.L.P.N. .gXgXgXgXgXgXgXgXgXgXgXgXgXgX",
"gXgXgXgXgXgXgXgXgXgXgXgXgXgXgXgXgXgXgXgXk.[.8X+X].w.E Y { n x w w 0 > O .   gXgXgXgX` *. .%.c.N.c.gXgXgXgXgXgXgXgXgXgXgXgXgXgXgX",
"gXgXgXgXgXgXgXgXgXgXgXgXgXgXgXgXgXgX.XgX}.g.{.oXf.w.E U 1.1.L x w 4 0 1 X . & gXgXgX` %. .o.x.V.c.gXgXgXgXgXgXgXgXgXgXgXgXgXgXgX",
"gXgXgXgXgXgXgXgXgXgXgXgXgXgXgXgXgXgX3X7X+X~.h.~.s.<.E Y 8.7.4.P x k w 3 = X # gXgXs `  . .' ~ b.gXgXgXgXgXgXgXgXgXgXgXgXgXgXgXgX",
"gXgXgXgXgXgXgXgXgXgXgXgXgXgXgXgXgXgXtX9X|.~.9.h.t.E U Y i.p.p.2...N u 0 9 = > q gXe ! ' ) ~ m gXgXgXgXgXgXgXgXgXgXgXgXgXgXgXgXgX",
"gXgXgXgXgXgXgXgXgXgXgXgXgXgXgXgXgXgXiXyX|.Q.9.1.<.U T ,.q.r.p.6.2.| c e 9 = = > * e s ( ( ( gXgXgXgXgXgXgXgXgXgXgXgXgXgXgXgXgXgX",
"gXgXgXgXgXgXgXgXgXgXgXgXgXgXgXgXgXgXgXiX6XQ.9.V | S U <.e.r.r.p.6.1.| y 3 9 = % % * > M M gXgXgXgXgXgXgXgXgXgXgXgXgXgXgXgXgXgXgX",
"gXgXgXgXgXgXgXgXgXgXgXgXgXgXgXgXgXgXgX6XqX~.9.L M P Y <.r.t.q.i.6.4.#.G r 2 = ; % & & e gXgXgXgXgXgXgXgXgXgXgXgXgXgXgXgXgXgXgXgX",
"gXgXgXgXgXgXgXgXgXgXgXgXgXgXgXgXgXgXgXgX'.'.8.} f I <.q.e.e.w.e.6.4.#...H 6 2 = % @ @ & gXgXgXgXgXgXgXgXgXgXgXgXgXgXgXgXgXgXgXgX",
"gXgXgXgXgXgXgXgXgXgXgXgXgXgXgXgXgXgXgXgXgXZ.v.{ G Y P <.e.e.q.w.y.7.-.} ) f - = % @   gXgXgXgXgXgXgXgXgXgXgXgXgXgXgXgXgXgXgXgXgX",
"gXgXgXgXgXgXgXgXgXgXgXgXgXgXgXgXgXgXgXgXgXgXv.~ M | J R <.<.@.@.O.p.J.G G A e = 6 O . gXgXgXgXgXgXgXgXgXgXgXgXgXgXgXgXgXgXgXgXgX",
"gXgXgXgXgXgXgXgXgXgXgXgXgXgXgXgXgXgXgXgXgXgXgX/ d A H J R R W R R O.6.H S G M 2 6 @   gXgXgXgXgXgXgXgXgXgXgXgXgXgXgXgXgXgXgXgXgX",
"gXgXgXgXgXgXgXgXgXgXgXgXgXgXK.gXgXgXgXgXgXgXgXgX! y b n b S J D I D #.#.D D v 6 : - O   gXgXgXgXgXgXgXgXgXgXgXgXgXgXgXgXgXgXgXgX",
"gXgXgXgXgXgXgXgXgXgXgXgXgXgX(.Y.(..Xg.gXgXgXgXgX/ i a p z z z x B B A } @.K F : % % O O gXgXgXgXgXgXgXgXgXgXgXgXgXgXgXgXgXgXgXgX",
"gXgXgXgXgXgXgXgXgXgXgXgXgXgXgX)._..X`.}.}.k.I gXgXi p u x x N N l l 7 - b K Q v = @ o X gXgXgXgXgXgXgXgXgXgXgXgXgXgXgXgXgXgXgXgX",
"gXgXgXgXgXgXgXgXgXgXgXgXgXgXgXgXgX.X3X`.k.j.O.e , > 2 2 k j l l N N N 7 % 8 K F 7 % o   gXgXgXgXgXgXgXgXgXgXgXgXgXgXgXgXgXgXgXgX",
"gXgXgXgXgXgXgXgXgXgXgXgXgXgXgXgXgXgXgX,XQ.1.P Z 9 , = ; 4 5 j j l l l j 3 @ v F C 6 @ X   gX*.3.L.3.gXgXgXgXgXgXgXgXgXgXgXgXgXgX",
"gXgXgXgXgXgXgXgXgXgXgXgXgXgXgXgXgXgXgXgXgX..H B p & & & 3 4 5 k j j j k ; o 6 C C 8 - o = y *.3.N.gXgXgXgXgXgXgXgXgXgXgXgXgXgXgX",
"gXgXgXgXgXgXgXgXgXgXgXgXgXgXgXgXgXgXgXgXgXgXgXa y > % & & 1 3 4 5 5 5 4 % o @ a C C 8 = = i X.X.gXgXgXgXgXgXgXgXgXgXgXgXgXgXgXgX",
"gXgXgXgXgXgXgXgXgXgXgXgXgXgXgXgXgXgXgXgXgXgXgXgXgXgX, & & = 1 1 3 3 3 % % @ o - v C J p 9 m } gXgXgXgXgXgXgXgXgXgXgXgXgXgXgXgXgX",
"gXgXgXgXgXgXgXgXgXgXgXgXgXgXgXgXgXgXgXgXgXgXgXgXgXgXgX, & * 6 t 6 6 6 : 1 % @ * Z C J b 9 m gXgXgXgXgXgXgXgXgXgXgXgXgXgXgXgXgXgX",
"gXgXgXgXgXgXgXgXgXgXgXgXgXgXgXgXgXgXgXgXgXgXgXgXgXgXgXgXgX# , gX* % * * * @ + # e C J A q gXgXgXgXgXgXgXgXgXgXgXgXgXgXgXgXgXgXgX",
"gXgXgXgXgXgXgXgXgXgXgXgXgXgXgXgXgXgXgXgXgXgXgXgXgXgXgXgXgXgX, gXgX        X # & , h J Z gXgXgXgXgXgXgXgXgXgXgXgXgXgXgXgXgXgXgXgX",
"gXgXgXgXgXgXgXgXgXgXgXgXgXgXgXgXgXgXgXgXgXgXgXgXgXgXgXgXgXgXgXgXgXgX  O X + + % , e A J gXgXgXgXgXgXgXgXgXgXgXgXgXgXgXgXgXgXgXgX",
"gXgXgXgXgXgXgXgXgXgXgXgXgXgXgXgXgXgXgXgXgXgXgXgXgXgXgXgXgXgXgXgXgXgXgXO O @ + $ , > A gXgXgXgXgXgXgXgXgXgXgXgXgXgXgXgXgXgXgXgXgX",
"gXgXgXgXgXgXgXgXgXgXgXgXgXgXgXgXgXgXgXgXgXgXgXgXgXgXgXgXgXgXgXgXgXgXgXgXX O O + + - g gXgXgXgXgXgXgXgXgXgXgXgXgXgXgXgXgXgXgXgXgX",
"gXgXgXgXgXgXgXgXgXgXgXgXgXgXgXgXgXgXgXgXgXgXgXgXgXgXgXgXgXgXgXgXgXgXgXgXgXgXO + $ * q gXgXgXgXgXgXgXgXgXgXgXgXgXgXgXgXgXgXgXgXgX",
"gXgXgXgXgXgXgXgXgXgXgXgXgXgXgXgXgXgXgXgXgXgXgXgXgXgXgXgXgXgXgXgXgXgXgXgXgXgXgXgXgX& q gXgXgXgXgXgXgXgXgXgXgXgXgXgXgXgXgXgXgXgXgX",
"gXgXgXgXgXgXgXgXgXgXgXgXgXgXgXgXgXgXgXgXgXgXgXgXgXgXgXgXgXgXgXgXgXgXgXgXgXgXgXgXgXgXgXgXgXgXgXgXgXgXgXgXgXgXgXgXgXgXgXgXgXgXgXgX",
"gXgXgXgXgXgXgXgXgXgXgXgXgXgXgXgXgXgXgXgXgXgXgXgXgXgXgXgXgXgXgXgXgXgXgXgXgXgXgXgXgXgXgXgXgXgXgXgXgXgXgXgXgXgXgXgXgXgXgXgXgXgXgXgX",
"gXgXgXgXgXgXgXgXgXgXgXgXgXgXgXgXgXgXgXgXgXgXgXgXgXgXgXgXgXgXgXgXgXgXgXgXgXgXgXgXgXgXgXgXgXgXgXgXgXgXgXgXgXgXgXgXgXgXgXgXgXgXgXgX",
"gXgXgXgXgXgXgXgXgXgXgXgXgXgXgXgXgXgXgXgXgXgXgXgXgXgXgXgXgXgXgXgXgXgXgXgXgXgXgXgXgXgXgXgXgXgXgXgXgXgXgXgXgXgXgXgXgXgXgXgXgXgXgXgX",
"gXgXgXgXgXgXgXgXgXgXgXgXgXgXgXgXgXgXgXgXgXgXgXgXgXgXgXgXgXgXgXgXgXgXgXgXgXgXgXgXgXgXgXgXgXgXgXgXgXgXgXgXgXgXgXgXgXgXgXgXgXgXgXgX",
"gXgXgXgXgXgXgXgXgXgXgXgXgXgXgXgXgXgXgXgXgXgXgXgXgXgXgXgXgXgXgXgXgXgXgXgXgXgXgXgXgXgXgXgXgXgXgXgXgXgXgXgXgXgXgXgXgXgXgXgXgXgXgXgX"
};
