/* XPM */
static char *result[] = {
/* columns rows colors chars-per-pixel */
"64 64 234 2 ",
"   c #0B123B",
".  c #091137",
"X  c #0E1443",
"o  c #0E1449",
"O  c #111645",
"+  c #131946",
"@  c #12164C",
"#  c #131A4B",
"$  c #121654",
"%  c #141B53",
"&  c #1A1B54",
"*  c #12165A",
"=  c #151B5B",
"-  c #1B1C5C",
";  c #201B5F",
":  c #1A225D",
">  c #172157",
",  c #22285A",
"<  c #151B63",
"1  c #1C1C62",
"2  c #191E6B",
"3  c #151868",
"4  c #191B76",
"5  c #241C6A",
"6  c #281C7A",
"7  c #1D2567",
"8  c #1B2274",
"9  c #1C237C",
"0  c #262869",
"q  c #282575",
"w  c #372479",
"e  c #28347A",
"r  c #1D1A82",
"t  c #241C8C",
"y  c #281E8E",
"u  c #291F95",
"i  c #261E90",
"p  c #1E288D",
"a  c #282484",
"s  c #392787",
"d  c #293389",
"f  c #3C3683",
"g  c #292597",
"h  c #342498",
"j  c #23349E",
"k  c #253899",
"l  c #353995",
"z  c #2835AA",
"x  c #343CA9",
"c  c #372BB4",
"v  c #302FAA",
"b  c #442686",
"n  c #46358C",
"m  c #532693",
"M  c #572B9A",
"N  c #4A3899",
"B  c #59359B",
"V  c #462996",
"C  c #5A38A7",
"Z  c #4031B9",
"A  c #652DA7",
"S  c #683AAF",
"D  c #3C4A8E",
"F  c #384C97",
"G  c #3B44A8",
"H  c #374BB7",
"J  c #44438F",
"K  c #494698",
"L  c #48559B",
"P  c #50429D",
"I  c #67489E",
"U  c #4A45A6",
"Y  c #5846A8",
"T  c #5856A8",
"R  c #4D53B4",
"E  c #694AA4",
"W  c #6D5AA8",
"Q  c #7457A9",
"!  c #6B4ABB",
"~  c #6944B4",
"^  c #6658BB",
"/  c #7357B1",
"(  c #784AB5",
")  c #4866AC",
"_  c #5C65B8",
"`  c #5868AC",
"'  c #6766BA",
"]  c #6172B5",
"[  c #776BB5",
"{  c #3338C6",
"}  c #463BD3",
"|  c #3D46E9",
" . c #3B49D8",
".. c #464AC6",
"X. c #5747CC",
"o. c #4D53CC",
"O. c #5B53C4",
"+. c #4549DB",
"@. c #554BD5",
"#. c #5255DB",
"$. c #784BC7",
"%. c #6C5AC4",
"&. c #7251D1",
"*. c #4C65CA",
"=. c #5366D2",
"-. c #6168C7",
";. c #7868C8",
":. c #6675C1",
">. c #7973CA",
",. c #4448ED",
"<. c #4A4BF4",
"1. c #554DED",
"2. c #6F5CE6",
"3. c #7050EC",
"4. c #7D61EF",
"5. c #8552BC",
"6. c #864EBC",
"7. c #8667BD",
"8. c #8549C4",
"9. c #8759C4",
"0. c #9255CB",
"q. c #9B5AD7",
"w. c #895ADE",
"e. c #A85CDA",
"r. c #B05DDE",
"t. c #846AC9",
"y. c #8876CA",
"u. c #937DCC",
"i. c #9768D7",
"p. c #8978D7",
"a. c #9476D9",
"s. c #906FD3",
"d. c #AB65DD",
"f. c #AD69DF",
"g. c #A365DA",
"h. c #B36CDF",
"j. c #A47CDD",
"k. c #9859E9",
"l. c #9256EF",
"z. c #A55DF1",
"x. c #AF56E8",
"c. c #8E6CF0",
"v. c #B469E0",
"b. c #BE72F2",
"n. c #A869ED",
"m. c #C777E9",
"M. c #CC76F1",
"N. c #5683B8",
"B. c #7784BE",
"V. c #7D88C3",
"C. c #6B9AC6",
"Z. c #7998CA",
"A. c #7C8ADE",
"S. c #6EA6CD",
"D. c #79A3CE",
"F. c #6FADD0",
"G. c #7BAAD2",
"H. c #78B9D8",
"J. c #6592E0",
"K. c #8782AF",
"L. c #9BA1BE",
"P. c #8987C9",
"I. c #9687CC",
"U. c #8593CD",
"Y. c #829DCD",
"T. c #9293CF",
"R. c #9A8CD2",
"E. c #9684D4",
"W. c #8899D3",
"Q. c #9895D2",
"!. c #8583D2",
"~. c #A58CD8",
"^. c #AB92DC",
"/. c #AE9ADE",
"(. c #A597D8",
"). c #B599DE",
"_. c #BB8EDD",
"`. c #82A4CE",
"'. c #8CA7D7",
"]. c #95A7D6",
"[. c #82B7D8",
"{. c #9CB5DB",
"}. c #A9A5DF",
"|. c #B5A1DD",
" X c #B1ACDB",
".X c #A6B3DD",
"XX c #B1BCD2",
"oX c #909DE1",
"OX c #B499E5",
"+X c #AA93E3",
"@X c #83A1E0",
"#X c #BBA8E3",
"$X c #A7B8E3",
"%X c #B6B9E6",
"&X c #ABAFE1",
"*X c #DA83ED",
"=X c #DB89F6",
"-X c #CC97EA",
";X c #EC9AFA",
":X c #F29BFB",
">X c #E98AF6",
",X c #C6AAE6",
"<X c #C9BAE8",
"1X c #C1A8FA",
"2X c #D6B9F0",
"3X c #F5A8FD",
"4X c #EDB5FB",
"5X c #86C4DE",
"6X c #B8C8D8",
"7X c #8CCBE2",
"8X c #91C2E2",
"9X c #A7C6E8",
"0X c #BCC8E6",
"qX c #A7D6EA",
"wX c #B8D6E7",
"eX c #B9E7F3",
"rX c #C1D4DE",
"tX c #C8C7EC",
"yX c #C6DCE9",
"uX c #D1D7EF",
"iX c #D9C6F5",
"pX c #C5D9F0",
"aX c #D4D3EF",
"sX c #E0D7F6",
"dX c #C9EEF7",
"fX c #D6E8F5",
"gX c #CBF3FA",
"hX c #DCF4F9",
"jX c #DBFBFD",
"kX c #D7F6F9",
"lX c #CEE7ED",
"zX c #E2FFFF",
"xX c #FBF1FE",
"cX c None",
/* pixels */
"cXcXcXcXcXcXcXcXcXcXcXcXcXcXcXcXcXcXcXcXcXcXcXcXcXcXcXcXcXcXcXcXcXcXcXcXcXcXcXcXcXcXcXcXcXcXcXcXcXcXcXcXcXcXcXcXcXcXcXcXcXcXcXcX",
"cXcXcXcXcXcXcXcXcXcXcXcXcXcXcXcXcXcXcXcXcXcXcXcXcXcXcXcXcXcXcXcXcXcXcXcXcXcXcXcXcXcXcXcXcXcXcXcXcXcXcXcXcXcXcXcXcXcXcXcXcXcXcXcX",
"cXcXcXcXcXcXcXcXcXcXcXcXcXcXcXcXcXcXcXcXcXcXcXcXcXcXcXcXcXcXcXcXcXcXcXcXcXcXcXcXcXcXcXcXcXcXcXcXcXcXcXcXcXcXcXcXcXcXcXcXcXcXcXcX",
"cXcXcXcXcXcXcXcXcXcXcXcXcXcXcXcXcXcXcXcXcXcXcXcXcXcXcXcXcXcXcXcXcXcXcXcXcXcXcXcXcXcXcXcXcXcXcXcXcXcXcXcXcXcXcXcXcXcXcXcXcXcXcXcX",
"cXcXcXcXcXcXcXcXcXcXcXcXcXcXcXcXcXcXcXcXcXcXcXcXcXcXcXcXcXcXcXcXcXcXcXcXcXcXcXcXcXcXcXcXcXcXcXcXcXcXcXcXcXcXcXcXcXcXcXcXcXcXcXcX",
"cXcXcXcXcXcXcXcXcXcXcXcXcXcXcXcXcXcXcX>X*XcXcXcXcXcXcXcXcXcXcXcXcXcXcXcXcXcXcXcXcXcXcXcXcXcXcXcXcXcXcXcXcXcXcXcXcXcXcXcXcXcXcXcX",
"cXcXcXcXcXcXcXcXcXcXcXcXcXcXcXcXcXcXcXM.m.~.cXcXcXcXcXcXcXcXcXcXcXcXcXcXcXcXcXcXcXcXcXcXcXcXcXcXcXcXcXcXcXcXcXcXcXcXcXcXcXcXcXcX",
"cXcXcXcXcXcXcXcXcXcXcXcXcXcXcXcXcXcX-X_./.$X$XcXcXcXcXcXcXcXcXcXcXcXcXcXcXcXcXcXcXcXcXcXcXcXcXcXcXcXcXcXcXcXcXcXcXcXcXcXcXcXcXcX",
"cXcXcXcXcXcXcXcXcXcXcXcXcXcXcXcXcXcX9X9X9X$X$X$XcXcXcXcXcXcXcXcXcXcXcXcXcXcXcXcXcXcXcXcXcXcXcXcXcXcXcXcXcXcXcXcXcXcXcXcXcXcXcXcX",
"cXcXcXcXcXcXcXcXcXcXcXcXcXcXcXcXcXwXqXwX9X$X}.$X$XcXcXcXcXcXcXcXcXcXcXcXcXcXcXcXcXcXcXcXcXcXcXcXcXcXcXcXcXcXcXcXcXcXcXcXcXcXcXcX",
"cXcXcXcXcXcXcXcXcXcXcXcXcXcXcXcXcXjXkXgXgXpX0X&X&X XcXcXcXcXcXcXcXcXcXcXcXcXcXcXcXcXcXcXcXcXcXcXcXcXcXcXcXcXcXcXcXcXcXcXcXcXcXcX",
"cXcXcXcXcXcXcXcXcXcXcXcXcXcXcXcXjXjXjXjXyXlXhXfXpXwX0XcXcXcXcXcXcXcXcXcXcXcXcXcXcXcXcXcXcXcXcXcXcXcXcXcXcXcXcXcXcXcXcXcXcXcXcXcX",
"cXcXcXcXcXcXcXcXcXcXcXcXcXcXcXcXgXgXgX6XXXrXlXhXzXhXhXhXcXcXcXcXcXcXcXcXcXcXcXcXcXcXcXcXcXcXcXcXcXcXcXcXcXcXcXcXcXcXcXcXcXcXcXcX",
"cXcXcXcXcXcXcXcXcXcXcXcXcXcXcXeXeXeXwXwXlXyXrX6XzXzXzXjXcXcXcXcXcXcXcXcXcXcXcXcXcXcXcXcXcXcXcXcXcXcXcXcXcXcXcXcXcXcXcXcXcXcXcXcX",
"cXcXcXcXcXcXcXcXcXcXcXcXcXcXcXqXqXeXwXyX6XrXrXXXuXhXhXhXhXcXcXcXcXcXcXcXcXcXcXcXcXcXcXcXcXcXcXcXcXcXcXcXcXcXcXcXcXcXcXcXcXcXcXcX",
"cXcXcXcXcXcXcXcXcXcXcXcXcXcXcXqX5X[.{..X%XXXQ.uXfXuXtXtXtX#XcXcXcXcXcXcXcXcXcXcXcXcXcXcXcXcXcXcXcXcXcXcXcXcXcXcXcXcXcXcXcXcXcXcX",
"cXcXcXcXcXcXcXcXcXcXcXcXcXcXcX7XH.`.W.T.Q.7.XXtXtX<XtXuXaXtXcXcXcXcXcXcXcXcXcXcXcXcXcXcXcXcXcXcXcXcXcXcXcXcXcXcXcXcXcXcXcXcXcXcX",
"cXcXcXcXcXcXcXcXcXcXcXcXcXcXcX5X[.[.'.T.I.I.~.^.).).#X<XtX<XoXcXcXcXcXcXcXcXcXcXcXcXcXcXcXcXcXcXcXcXcXcXcXcXcXcXcXcXcXcXcXcXcXcX",
"cXcXcXcXcXcXcXcXcXcXcXcXcXcXcXF.G.D.W.].Q.(././.).^.).,X2XiXA.cXcXcXcXcXcXcXcXcXcXcXcXcXcXcXcXcXcXcXcXcXcXcXcXcXcXcXcXcXcXcXcXcX",
"cXcXcXcXcXcXcXcXcXcXcXcXcXcXcXF.F.D.W.W.Q.R.(./.).|.|.tXiX,X^ o.cXcXcXcXcXcXcXcXcXcXcXcXcXcXcXcXcXcXcXcXcXcXcXcXcXcXcXcXcXcXcXcX",
"cXcXcXcXcXcXcXcXcXcXcXcXcXcXcXF.S.S.U.W.Q.R.R.^.^.(.).,X,X+X=.H F cXcXcXcXcXcXcXcXcXcXcXcXcXcXcXcXcXcXcXcXcXcXcXcXcXcXcXcXcXcXcX",
"cXcXcXcXcXcXcXcXcXcXcXcXcXcXcXD.C.Z.Z.U.T.R.R.~.~.^.|.,Xa.i.O.#.H cXcXcXcXcXcXcXcXcXcXcXcXcXcXcXcXcXcXcXcXcXcXcXcXcXcXcXcXcXcXcX",
"cXcXcXcXcXcXcXcXcXcXcXcXcXcXcXcXC.Z.Z.U.P.Q.R.E.R.~.#X).&.a.R U H H cXcXcXcXcXcXcXcXcXcXcXcXcXE 7.cXcXcXcXcXcXcXcXcXcXcXcXcXcXcX",
"cXcXcXcXcXcXcXcXcXcXcXcXcXcXcXcX'.G.D.D.U.P.I.I.I.(.).u.O.a.U x d e cXcXcXcXcXcXcXcXcXcXcXcX/ E W cXcXcXcXcXcXcXcXcXcXcXcXcXcXcX",
"cXcXcXcXcXcXcXcXcXcXcXcXcXcXcXcXcXP.Z.D.Y.U.P.P.u.R.(./ o.p.G d e : cXcXcXcXcXcXcXcXcXcXcXy.9.~ Q cXcXcXcXcXcXcXcXcXcXcXcXcXcXcX",
"cXcXcXcXcXcXcXcXcXcXcXcXcXcXcXcXcXQ $.u.W.Y.U.y.7.Q.u...+.oX_ d 7 > , cXcXcXcXcXcXcXcXcX:.p.q./ [ cXcXcXcXcXcXcXcXcXcXcXcXcXcXcX",
"cXcXcXcXcXcXcXcXcXcXcXcXcXcXcXcXcXcX0.i.i.E.U.P.K.u.' ..#.| #.%.D > > cXcXcXcXcXcXcXcX:.:.;.k.y.[.cXcXcXcXcXcXcXcXcXcXcXcXcXcXcX",
"cXcXcXcXcXcXcXcXcXcXcXcXcXcXcXcXcXcX5.g.d.d.s.P.P.P.O.+.| | | x K 0 + cXcXcXcXcXcXcXcX:.:.;.f.Q.7X7XcXcXcXcXcXcXcXcXcXcXcXcXcXcX",
"cXcXcXcXcXcXcXcXcXcXcXcXcXcXcXcXcXcXcX6.f.f.g.0.i.I.O.+.,.,.| { p 0 + # cXcXcXcXcXcX] :.' ;.OX%X7XZ.cXcXcXcXcXcXcXcXcXcXcXcXcXcX",
"cXcXcXcXcXcXcXcXcXcXcXcXcXcXcXcXcXcXcXE q.v.d.g.q.q.&.1.<.<.| { k 8 O . cXcXcXcXcXcX` ' ^ ' ,X0X[.W cXcXcXcXcXcXcXcXcXcXcXcXcXcX",
"cXcXcXcXcXcXcXcXcXcXcXcXcXcXcXcXcXcXcXcX( h.f.d.d.e.w.3.1.<.,.{ g 8 X .   cXcXcXcXcXL ' _ ` ].].`.E cXcXcXcXcXcXcXcXcXcXcXcXcXcX",
"cXcXcXcXcXcXcXcXcXcXcXcXcXcXcXcXcXcXcXcXI 5.d.f.h.r.x.k.c.1.<.{ p 8 7 X .   cXcXcXcXL _ ` T C.`.B.cXcXcXcXcXcXcXcXcXcXcXcXcXcXcX",
"cXcXcXcXcXcXcXcXcXcXcXcXcXcXcXcXcXcXcXcXQ B 5.f.h.v.x.l.1XOXl.{ g 9 8 < X . # cXcXcXL ` T L N.H.B.cXcXcXcXcXcXcXcXcXcXcXcXcXcXcX",
"cXcXcXcXcXcXcXcXcXcXcXcXcXcXcXcXcXcX_.P.7.E N 9.r.x.x.k.iXxX2Xw.v a 4 7 = o % cXcXe L T T L F C.cXcXcXcXcXcXcXcXcXcXcXcXcXcXcXcX",
"cXcXcXcXcXcXcXcXcXcXcXcXcXcXcXcXcXcXtXT./ E N ! e.q.l.z.4XxXsX+X~ h a 8 7 = : 7 cX0 D L K D D cXcXcXcXcXcXcXcXcXcXcXcXcXcXcXcXcX",
"cXcXcXcXcXcXcXcXcXcXcXcXcXcXcXcXcXcXyX.X' U N C w.8.l.b.:X4XaXOXt.C a q 2 < < : & : e J J J cXcXcXcXcXcXcXcXcXcXcXcXcXcXcXcXcXcX",
"cXcXcXcXcXcXcXcXcXcXcXcXcXcXcXcXcXcXcX$XV.P N d ! &.l.=X3X3X-X/.p.;.Y q 2 2 3 * $ = : f f cXcXcXcXcXcXcXcXcXcXcXcXcXcXcXcXcXcXcX",
"cXcXcXcXcXcXcXcXcXcXcXcXcXcXcXcXcXcXcXZ.`.T U l U k.n.:X3X;XM.~.p.;.^ C q 2 3 < * % % 0 cXcXcXcXcXcXcXcXcXcXcXcXcXcXcXcXcXcXcXcX",
"cXcXcXcXcXcXcXcXcXcXcXcXcXcXcXcXcXcXcXcX` ] U U U w.M.:X3X;Xm.q.p.;.^ Y n 5 < < * $ @ # cXcXcXcXcXcXcXcXcXcXcXcXcXcXcXcXcXcXcXcX",
"cXcXcXcXcXcXcXcXcXcXcXcXcXcXcXcXcXcXcXcXcXD ) U &.k.M.:X:X=Xv.0.i.p.;.T P f 1 = $ o X cXcXcXcXcXcXcXcXcXcXcXcXcXcXcXcXcXcXcXcXcX",
"cXcXcXcXcXcXcXcXcXcXcXcXcXcXcXcXcXcXcXcXcXcX) ) O.c.z.=X=Xm.e.8.( a.!.P K N 0 $ 5     cXcXcXcXcXcXcXcXcXcXcXcXcXcXcXcXcXcXcXcXcX",
"cXcXcXcXcXcXcXcXcXcXcXcXcXcXcXcXcXcXcXcXcXcXcX*.R 2.c.n.m.r.8.S S ~ >.N M M s 7 5 @   cXcXcXcXcXcXcXcXcXcXcXcXcXcXcXcXcXcXcXcXcX",
"cXcXcXcXcXcXcXcXcXcXcXcXcXcXE.cXcXcXcXcXcXcXcXcX=.@.2.3.3.$.A C C M ^ ^ M M b ; 1 - O   cXcXcXcXcXcXcXcXcXcXcXcXcXcXcXcXcXcXcXcX",
"cXcXcXcXcXcXcXcXcXcXcXcXcXcX^.!.y.g.Y cXcXcXcXcXJ.o.1.1.} { h h V h n T ! A M 5 * & O O cXcXcXcXcXcXcXcXcXcXcXcXcXcXcXcXcXcXcXcX",
"cXcXcXcXcXcXcXcXcXcXcXcXcXcXcX!.y.s.[ ! $.$.Y cXcXo.#.} } c h g u u 6 3 b A A b - $ X X cXcXcXcXcXcXcXcXcXcXcXcXcXcXcXcXcXcXcXcX",
"cXcXcXcXcXcXcXcXcXcXcXcXcXcXcXcXcXy.;./ ! $.! G k z { { { c g u h h u 6 * w A A 6 * o X cXcXcXcXcXcXcXcXcXcXcXcXcXcXcXcXcXcXcXcX",
"cXcXcXcXcXcXcXcXcXcXcXcXcXcXcXcXcXcXcX-.T C ! X.c j z z c v g u u u u i 3 $ b M m 5 * X O cX_ -.@X:.cXcXcXcXcXcXcXcXcXcXcXcXcXcX",
"cXcXcXcXcXcXcXcXcXcXcXcXcXcXcXcXcXcXcXcXcXY } &.+.z j j g t r r t i t t 3 o 5 m m b 3 X % q _ -.W.cXcXcXcXcXcXcXcXcXcXcXcXcXcXcX",
"cXcXcXcXcXcXcXcXcXcXcXcXcXcXcXcXcXcXcXcXcXcXcXX.X.H j p 9 8 4 4 4 t 4 4 $ o @ s m m s - - e R ^ cXcXcXcXcXcXcXcXcXcXcXcXcXcXcXcX",
"cXcXcXcXcXcXcXcXcXcXcXcXcXcXcXcXcXcXcXcXcXcXcXcXcXcXx d 8 < < < 3 3 3 * $ $ O - m m B q 7 d U cXcXcXcXcXcXcXcXcXcXcXcXcXcXcXcXcX",
"cXcXcXcXcXcXcXcXcXcXcXcXcXcXcXcXcXcXcXcXcXcXcXcXcXcXcXd 7 = 7 q 6 5 5 ; - $ o & b m B b 7 d cXcXcXcXcXcXcXcXcXcXcXcXcXcXcXcXcXcX",
"cXcXcXcXcXcXcXcXcXcXcXcXcXcXcXcXcXcXcXcXcXcXcXcXcXcXcXcXcX% & cX& @ & & & @ # # 0 m B n 7 cXcXcXcXcXcXcXcXcXcXcXcXcXcXcXcXcXcXcX",
"cXcXcXcXcXcXcXcXcXcXcXcXcXcXcXcXcXcXcXcXcXcXcXcXcXcXcXcXcXcX& cXcX        X # # & f B n cXcXcXcXcXcXcXcXcXcXcXcXcXcXcXcXcXcXcXcX",
"cXcXcXcXcXcXcXcXcXcXcXcXcXcXcXcXcXcXcXcXcXcXcXcXcXcXcXcXcXcXcXcXcXcX  O X + # % > , B B cXcXcXcXcXcXcXcXcXcXcXcXcXcXcXcXcXcXcXcX",
"cXcXcXcXcXcXcXcXcXcXcXcXcXcXcXcXcXcXcXcXcXcXcXcXcXcXcXcXcXcXcXcXcXcXcX+ O + + + # , n cXcXcXcXcXcXcXcXcXcXcXcXcXcXcXcXcXcXcXcXcX",
"cXcXcXcXcXcXcXcXcXcXcXcXcXcXcXcXcXcXcXcXcXcXcXcXcXcXcXcXcXcXcXcXcXcXcXcXX + + # # > w cXcXcXcXcXcXcXcXcXcXcXcXcXcXcXcXcXcXcXcXcX",
"cXcXcXcXcXcXcXcXcXcXcXcXcXcXcXcXcXcXcXcXcXcXcXcXcXcXcXcXcXcXcXcXcXcXcXcXcXcXO + # > 0 cXcXcXcXcXcXcXcXcXcXcXcXcXcXcXcXcXcXcXcXcX",
"cXcXcXcXcXcXcXcXcXcXcXcXcXcXcXcXcXcXcXcXcXcXcXcXcXcXcXcXcXcXcXcXcXcXcXcXcXcXcXcXcX# 7 cXcXcXcXcXcXcXcXcXcXcXcXcXcXcXcXcXcXcXcXcX",
"cXcXcXcXcXcXcXcXcXcXcXcXcXcXcXcXcXcXcXcXcXcXcXcXcXcXcXcXcXcXcXcXcXcXcXcXcXcXcXcXcXcXcXcXcXcXcXcXcXcXcXcXcXcXcXcXcXcXcXcXcXcXcXcX",
"cXcXcXcXcXcXcXcXcXcXcXcXcXcXcXcXcXcXcXcXcXcXcXcXcXcXcXcXcXcXcXcXcXcXcXcXcXcXcXcXcXcXcXcXcXcXcXcXcXcXcXcXcXcXcXcXcXcXcXcXcXcXcXcX",
"cXcXcXcXcXcXcXcXcXcXcXcXcXcXcXcXcXcXcXcXcXcXcXcXcXcXcXcXcXcXcXcXcXcXcXcXcXcXcXcXcXcXcXcXcXcXcXcXcXcXcXcXcXcXcXcXcXcXcXcXcXcXcXcX",
"cXcXcXcXcXcXcXcXcXcXcXcXcXcXcXcXcXcXcXcXcXcXcXcXcXcXcXcXcXcXcXcXcXcXcXcXcXcXcXcXcXcXcXcXcXcXcXcXcXcXcXcXcXcXcXcXcXcXcXcXcXcXcXcX",
"cXcXcXcXcXcXcXcXcXcXcXcXcXcXcXcXcXcXcXcXcXcXcXcXcXcXcXcXcXcXcXcXcXcXcXcXcXcXcXcXcXcXcXcXcXcXcXcXcXcXcXcXcXcXcXcXcXcXcXcXcXcXcXcX",
"cXcXcXcXcXcXcXcXcXcXcXcXcXcXcXcXcXcXcXcXcXcXcXcXcXcXcXcXcXcXcXcXcXcXcXcXcXcXcXcXcXcXcXcXcXcXcXcXcXcXcXcXcXcXcXcXcXcXcXcXcXcXcXcX"
};
