/* XPM */
static char *result[] = {
/* columns rows colors chars-per-pixel */
"64 64 229 2 ",
"   c #0C123D",
".  c #0E1442",
"X  c #0E144A",
"o  c #111645",
"O  c #131946",
"+  c #12164C",
"@  c #131A4B",
"#  c #181D4B",
"$  c #131B53",
"%  c #1A1C54",
"&  c #12175B",
"*  c #151B5B",
"=  c #171757",
"-  c #21195F",
";  c #1A215C",
":  c #172157",
">  c #24235B",
",  c #1B1C64",
"<  c #161966",
"1  c #1D1B7C",
"2  c #261B67",
"3  c #271D72",
"4  c #1C2362",
"5  c #1A246D",
"6  c #19256A",
"7  c #1C2577",
"8  c #252869",
"9  c #322B6B",
"0  c #232C73",
"q  c #2B2B75",
"w  c #272777",
"e  c #322A79",
"r  c #2C3378",
"t  c #38337C",
"y  c #28346C",
"u  c #2D1E86",
"i  c #1D2282",
"p  c #1D2786",
"a  c #252B83",
"s  c #272886",
"d  c #3B2A89",
"f  c #2C3489",
"g  c #393584",
"h  c #2B2595",
"j  c #222897",
"k  c #322A94",
"l  c #2B3995",
"z  c #363595",
"x  c #262BAA",
"c  c #372DA5",
"v  c #2732A5",
"b  c #2A2DB6",
"n  c #2B35B9",
"m  c #372FB0",
"M  c #472789",
"N  c #46368B",
"B  c #472C98",
"V  c #5A2A99",
"C  c #453596",
"Z  c #4B3797",
"A  c #58359B",
"S  c #512E8B",
"D  c #61289D",
"F  c #5835A7",
"G  c #5B33B7",
"H  c #4B36B1",
"J  c #682CA6",
"K  c #6235A5",
"L  c #6737B6",
"P  c #7336BB",
"I  c #7735B6",
"U  c #36468A",
"Y  c #3A5799",
"T  c #354891",
"R  c #3647A1",
"E  c #3F60AA",
"W  c #44438F",
"Q  c #464594",
"!  c #554399",
"~  c #48559B",
"^  c #614997",
"/  c #4D45A7",
"(  c #5244A3",
")  c #5757A6",
"_  c #5955B8",
"`  c #5151AE",
"'  c #6545A8",
"]  c #744AA9",
"[  c #7755AB",
"{  c #6A46B9",
"}  c #7644B8",
"|  c #7B5AB4",
" . c #6F5BBF",
".. c #5865AD",
"X. c #5D71AD",
"o. c #5D66B9",
"O. c #646DBC",
"+. c #6764B8",
"@. c #7665B8",
"#. c #7178BD",
"$. c #372FCB",
"%. c #2D31CB",
"&. c #3637D9",
"*. c #3130CA",
"=. c #3A3BE2",
"-. c #4836C7",
";. c #4534D5",
":. c #5B3BDA",
">. c #733DC5",
",. c #493AE6",
"<. c #553CE9",
"1. c #5341C4",
"2. c #4D44DF",
"3. c #7849C6",
"4. c #7554D0",
"5. c #6168C7",
"6. c #7A67C7",
"7. c #6675C1",
"8. c #5B41E9",
"9. c #594DF3",
"0. c #4243F0",
"q. c #7843E9",
"w. c #7F73E2",
"e. c #827DBF",
"r. c #856AB9",
"t. c #874EB8",
"y. c #813EC1",
"u. c #884AC9",
"i. c #8C56C8",
"p. c #9456CA",
"a. c #994FD9",
"s. c #9858D5",
"d. c #914CD4",
"f. c #A35BD9",
"g. c #8767C9",
"h. c #8D74C8",
"j. c #9779C9",
"k. c #9B67DB",
"l. c #8975D1",
"z. c #9872D5",
"x. c #956FC5",
"c. c #AB63DC",
"v. c #A668DB",
"b. c #B366DE",
"n. c #AA7DD6",
"m. c #B058F0",
"M. c #8769E6",
"N. c #937BEC",
"B. c #A669E4",
"V. c #B56BE4",
"C. c #B96EE7",
"Z. c #AB79E9",
"A. c #8249EE",
"S. c #C973E9",
"D. c #5A84BA",
"F. c #7E85C3",
"G. c #6D9AC6",
"H. c #799ACB",
"J. c #77A5CE",
"K. c #76ABD1",
"L. c #76B0D4",
"P. c #9086B2",
"I. c #8B88C9",
"U. c #9A8ACE",
"Y. c #8894CB",
"T. c #9397CE",
"R. c #9984D6",
"E. c #899BD3",
"W. c #9797D4",
"Q. c #8F8FD2",
"!. c #A38AD5",
"~. c #A88AD7",
"^. c #B48ADC",
"/. c #AC93DB",
"(. c #A598D8",
"). c #B493DF",
"_. c #86A8D3",
"`. c #96A5D7",
"'. c #8BB8DB",
"]. c #9EB0DA",
"[. c #A6A5DB",
"{. c #AABADC",
"}. c #BBBFD8",
"|. c #AAB1C6",
" X c #9F8DEC",
".X c #A985E1",
"XX c #BD94E3",
"oX c #B897E4",
"OX c #B595E8",
"+X c #83A1E0",
"@X c #BCA6E4",
"#X c #A6B8E1",
"$X c #BBBDE9",
"%X c #B7BBE7",
"&X c #B4A4F3",
"*X c #C597E6",
"=X c #CC8EEF",
"-X c #E18AF1",
";X c #C4A4E6",
":X c #C6A8E7",
">X c #C2B6E7",
",X c #DEA8F4",
"<X c #D0ACF3",
"1X c #E2B1F8",
"2X c #87C3DE",
"3X c #B9C7D6",
"4X c #95CCE4",
"5X c #87C4E0",
"6X c #B9C8EB",
"7X c #A6D7EA",
"8X c #BDD8EA",
"9X c #BDDFF0",
"0X c #BCE4F1",
"qX c #C4D2DE",
"wX c #C7C7E9",
"eX c #D2C9EF",
"rX c #C9D7E8",
"tX c #D7CAF2",
"yX c #D1DAF2",
"uX c #E6C6F8",
"iX c #E6D6FA",
"pX c #D9E7F5",
"aX c #DDFBFD",
"sX c #D8F4F9",
"dX c #CAEEF6",
"fX c #E5EBF9",
"gX c #E3FCFE",
"hX c #E6F9FC",
"jX c None",
/* pixels */
"jXjXjXjXjXjXjXjXjXjXjXjXjXjXjXjXjXjXjXjXjXjXjXjXjXjXjXjXjXjXjXjXjXjXjXjXjXjXjXjXjXjXjXjXjXjXjXjXjXjXjXjXjXjXjXjXjXjXjXjXjXjXjXjX",
"jXjXjXjXjXjXjXjXjXjXjXjXjXjXjXjXjXjXjXjXjXjXjXjXjXjXjXjXjXjXjXjXjXjXjXjXjXjXjXjXjXjXjXjXjXjXjXjXjXjXjXjXjXjXjXjXjXjXjXjXjXjXjXjX",
"jXjXjXjXjXjXjXjXjXjXjXjXjXjXjXjXjXjXjXjXjXjXjXjXjXjXjXjXjXjXjXjXjXjXjXjXjXjXjXjXjXjXjXjXjXjXjXjXjXjXjXjXjXjXjXjXjXjXjXjXjXjXjXjX",
"jXjXjXjXjXjXjXjXjXjXjXjXjXjXjXjXjXjXjXjXjXjXjXjXjXjXjXjXjXjXjXjXjXjXjXjXjXjXjXjXjXjXjXjXjXjXjXjXjXjXjXjXjXjXjXjXjXjXjXjXjXjXjXjX",
"jXjXjXjXjXjXjXjXjXjXjXjXjXjXjXjXjXjXjXjXjXjXjXjXjXjXjXjXjXjXjXjXjXjXjXjXjXjXjXjXjXjXjXjXjXjXjXjXjXjXjXjXjXjXjXjXjXjXjXjXjXjXjXjX",
"jXjXjXjXjXjXjXjXjXjXjXjXjXjXjXjXjXjXjX-X-XjXjXjXjXjXjXjXjXjXjXjXjXjXjXjXjXjXjXjXjXjXjXjXjXjXjXjXjXjXjXjXjXjXjXjXjXjXjXjXjXjXjXjX",
"jXjXjXjXjXjXjXjXjXjXjXjXjXjXjXjXjXjXjX-X=X^.jXjXjXjXjXjXjXjXjXjXjXjXjXjXjXjXjXjXjXjXjXjXjXjXjXjXjXjXjXjXjXjXjXjXjXjXjXjXjXjXjXjX",
"jXjXjXjXjXjXjXjXjXjXjXjXjXjXjXjXjXjX,X=X@X$X%XjXjXjXjXjXjXjXjXjXjXjXjXjXjXjXjXjXjXjXjXjXjXjXjXjXjXjXjXjXjXjXjXjXjXjXjXjXjXjXjXjX",
"jXjXjXjXjXjXjXjXjXjXjXjXjXjXjXjXjXjX6X6X7X6X%X6XjXjXjXjXjXjXjXjXjXjXjXjXjXjXjXjXjXjXjXjXjXjXjXjXjXjXjXjXjXjXjXjXjXjXjXjXjXjXjXjX",
"jXjXjXjXjXjXjXjXjXjXjXjXjXjXjXjXjX0X9XrXrX6X%X%X6XjXjXjXjXjXjXjXjXjXjXjXjXjXjXjXjXjXjXjXjXjXjXjXjXjXjXjXjXjXjXjXjXjXjXjXjXjXjXjX",
"jXjXjXjXjXjXjXjXjXjXjXjXjXjXjXjXjXaXaXsXsXyXwX>X>X%XjXjXjXjXjXjXjXjXjXjXjXjXjXjXjXjXjXjXjXjXjXjXjXjXjXjXjXjXjXjXjXjXjXjXjXjXjXjX",
"jXjXjXjXjXjXjXjXjXjXjXjXjXjXjXjXaXaXaXaXrXpXgXhXyXyXrXjXjXjXjXjXjXjXjXjXjXjXjXjXjXjXjXjXjXjXjXjXjXjXjXjXjXjXjXjXjXjXjXjXjXjXjXjX",
"jXjXjXjXjXjXjXjXjXjXjXjXjXjXjXjXdXaXdX3X3XqXpXpXhXhXgXhXjXjXjXjXjXjXjXjXjXjXjXjXjXjXjXjXjXjXjXjXjXjXjXjXjXjXjXjXjXjXjXjXjXjXjXjX",
"jXjXjXjXjXjXjXjXjXjXjXjXjXjXjX0X0XdX0X8XpXrXqX}.hXhXhXgXjXjXjXjXjXjXjXjXjXjXjXjXjXjXjXjXjXjXjXjXjXjXjXjXjXjXjXjXjXjXjXjXjXjXjXjX",
"jXjXjXjXjXjXjXjXjXjXjXjXjXjXjX7X7X0X8XrX3XqXwX}.fXfXhXsXsXjXjXjXjXjXjXjXjXjXjXjXjXjXjXjXjXjXjXjXjXjXjXjXjXjXjXjXjXjXjXjXjXjXjXjX",
"jXjXjXjXjXjXjXjXjXjXjXjXjXjXjX7X2X4X{.}.wX3X|.pXpXpXiX>X@Xj.jXjXjXjXjXjXjXjXjXjXjXjXjXjXjXjXjXjXjXjXjXjXjXjXjXjXjXjXjXjXjXjXjXjX",
"jXjXjXjXjXjXjXjXjXjXjXjXjXjXjX4XL.'.`.Q.[.P.>XeXtXtXtXeXwX`.jXjXjXjXjXjXjXjXjXjXjXjXjXjXjXjXjXjXjXjXjXjXjXjXjXjXjXjXjXjXjXjXjXjX",
"jXjXjXjXjXjXjXjXjXjXjXjXjXjXjX2X'.'.].W.U.~.XX*X*X:X:X:X@X!.X.jXjXjXjXjXjXjXjXjXjXjXjXjXjXjXjXjXjXjXjXjXjXjXjXjXjXjXjXjXjXjXjXjX",
"jXjXjXjXjXjXjXjXjXjXjXjXjXjXjXL.L._.`.[.[.@X;X;X*X*X*X).^.~.^ R jXjXjXjXjXjXjXjXjXjXjXjXjXjXjXjXjXjXjXjXjXjXjXjXjXjXjXjXjXjXjXjX",
"jXjXjXjXjXjXjXjXjXjXjXjXjXjXjXK.K.J.E.W.(.(.oX*X;X;X;X*X^.x.t r jXjXjXjXjXjXjXjXjXjXjXjXjXjXjXjXjXjXjXjXjXjXjXjXjXjXjXjXjXjXjXjX",
"jXjXjXjXjXjXjXjXjXjXjXjXjXjXjXL.J.J.E.W.(.(.).XXXXXXXX^.j.@.t > 8 jXjXjXjXjXjXjXjXjXjXjXjXjXjXjXjXjXjXjXjXjXjXjXjXjXjXjXjXjXjXjX",
"jXjXjXjXjXjXjXjXjXjXjXjXjXjXjXJ.G.J.H.T.W.(./.).).oX^.n.] ^ 9 y 8 jXjXjXjXjXjXjXjXjXjXjXjXjXjXjXjXjXjXjXjXjXjXjXjXjXjXjXjXjXjXjX",
"jXjXjXjXjXjXjXjXjXjXjXjXjXjXjXjXG.G.E.Y.T.(./.^.^.~.^.x.S ^ 9 > 0 T jXjXjXjXjXjXjXjXjXjXjXjXjX[ r.jXjXjXjXjXjXjXjXjXjXjXjXjXjXjX",
"jXjXjXjXjXjXjXjXjXjXjXjXjXjXjXjX`._.J._.T.W.U.!.~.!.U.[ t ^ > > : 5 jXjXjXjXjXjXjXjXjXjXjXjX .] r.jXjXjXjXjXjXjXjXjXjXjXjXjXjXjX",
"jXjXjXjXjXjXjXjXjXjXjXjXjXjXjXjXjXI.Y._._.T.U.U.j.U.x.N r ! % # : : jXjXjXjXjXjXjXjXjXjXjXl.i.| [ jXjXjXjXjXjXjXjXjXjXjXjXjXjXjX",
"jXjXjXjXjXjXjXjXjXjXjXjXjXjXjXjXjX[ i.R.W._.T.I.j.h.[ r a ( e # # : y jXjXjXjXjXjXjXjXjX7.l.s.| I.jXjXjXjXjXjXjXjXjXjXjXjXjXjXjX",
"jXjXjXjXjXjXjXjXjXjXjXjXjXjXjXjXjXjXk.v.v.R.W.Y.P.r.! a s s r N 9 : y jXjXjXjXjXjXjXjXO.7.g.B.l.'.jXjXjXjXjXjXjXjXjXjXjXjXjXjXjX",
"jXjXjXjXjXjXjXjXjXjXjXjXjXjXjXjXjXjXp.v.b.B.k.I.F.@.z f s a 8 w g g 6 jXjXjXjXjXjXjXjX7.7.6.B.[.4X4XjXjXjXjXjXjXjXjXjXjXjXjXjXjX",
"jXjXjXjXjXjXjXjXjXjXjXjXjXjXjXjXjXjXjXp.V.V.v.s.i.@.C f s a i i 7 f 5 0 jXjXjXjXjXjXO.O.+.6.XX$X4XY.jXjXjXjXjXjXjXjXjXjXjXjXjXjX",
"jXjXjXjXjXjXjXjXjXjXjXjXjXjXjXjXjXjXjX] f.C.V.c.d.3.Z k s a i i j l 7 6 jXjXjXjXjXjX..O.+.O.:X$X'.@.jXjXjXjXjXjXjXjXjXjXjXjXjXjX",
"jXjXjXjXjXjXjXjXjXjXjXjXjXjXjXjXjXjXjXjXt.b.C.c.s.>.L B h s s j v v 7 5 5 jXjXjXjXjX~ O.o.o.`.]._.] jXjXjXjXjXjXjXjXjXjXjXjXjXjX",
"jXjXjXjXjXjXjXjXjXjXjXjXjXjXjXjXjXjXjXjX] p.b.b.v.u.I G H h h j x n v 7 5 5 jXjXjXjX~ X.) ) G._.I.jXjXjXjXjXjXjXjXjXjXjXjXjXjXjX",
"jXjXjXjXjXjXjXjXjXjXjXjXjXjXjXjXjXjXjXjX| ^ p.f.f.u.P G 5.6.H x n %.&.n p 6 7 jXjXjX~ ..) ~ D.L.F.jXjXjXjXjXjXjXjXjXjXjXjXjXjXjX",
"jXjXjXjXjXjXjXjXjXjXjXjXjXjXjXjXjXjX*XR.g.] V i.u.y.P L g.R.z.4.-.&.=.&.R p 5 jXjXr ~ ) ) ~ ~ G.jXjXjXjXjXjXjXjXjXjXjXjXjXjXjXjX",
"jXjXjXjXjXjXjXjXjXjXjXjXjXjXjXjXjXjXwXW.| ' Z ' y.I G L v..XOX.Xk.<.,.=.&.x a 0 jX8 U ~ Q Y U jXjXjXjXjXjXjXjXjXjXjXjXjXjXjXjXjX",
"jXjXjXjXjXjXjXjXjXjXjXjXjXjXjXjXjXjXrX{.+.! C C { V H >.a.k.OX:X*XZ.9.0.=.n p 6 = 8 r Q W W jXjXjXjXjXjXjXjXjXjXjXjXjXjXjXjXjXjX",
"jXjXjXjXjXjXjXjXjXjXjXjXjXjXjXjXjXjXjX#XF.( z 0 Z B G d.s.f.Z.>X1X,X X9.=.n p < & $ ; t g jXjXjXjXjXjXjXjXjXjXjXjXjXjXjXjXjXjXjX",
"jXjXjXjXjXjXjXjXjXjXjXjXjXjXjXjXjXjXjXH.W.) Z q e F L d.s.f.b.*XtXuX1XN.2.n p < < & $ 8 jXjXjXjXjXjXjXjXjXjXjXjXjXjXjXjXjXjXjXjX",
"jXjXjXjXjXjXjXjXjXjXjXjXjXjXjXjXjXjXjXjXX.X.T g q F 3.i.s.f.b.S.tXiX1X=XM.m i < < + + @ jXjXjXjXjXjXjXjXjXjXjXjXjXjXjXjXjXjXjXjX",
"jXjXjXjXjXjXjXjXjXjXjXjXjXjXjXjXjXjXjXjXjXU Y t N G { 3.p.s.b.S.1XiXuX&XM.` 1 & = +   jXjXjXjXjXjXjXjXjXjXjXjXjXjXjXjXjXjXjXjXjX",
"jXjXjXjXjXjXjXjXjXjXjXjXjXjXjXjXjXjXjXjXjXjXY U g ( F } u.p.c.S.S.uXiX Xw._ 9 = * o   jXjXjXjXjXjXjXjXjXjXjXjXjXjXjXjXjXjXjXjXjX",
"jXjXjXjXjXjXjXjXjXjXjXjXjXjXjXjXjXjXjXjXjXjXjXY r N Z A } u.f.b.S.S.uXM.q.3.N , w +   jXjXjXjXjXjXjXjXjXjXjXjXjXjXjXjXjXjXjXjXjX",
"jXjXjXjXjXjXjXjXjXjXjXjXjXjX~.jXjXjXjXjXjXjXjXjXT q d d M K 3.a.m.m.<X&Xd.I M < , - o   jXjXjXjXjXjXjXjXjXjXjXjXjXjXjXjXjXjXjXjX",
"jXjXjXjXjXjXjXjXjXjXjXjXjXjX/.Q.h.v.' jXjXjXjXjX~ q s w k c -.:.q.A.M. XB.y.J 2 & = o   jXjXjXjXjXjXjXjXjXjXjXjXjXjXjXjXjXjXjXjX",
"jXjXjXjXjXjXjXjXjXjXjXjXjXjXjXQ.j.z.@.{ 3.{ g jXjXw r w h m -.,.<.<.;.c L I I V < & X . jXjXjXjXjXjXjXjXjXjXjXjXjXjXjXjXjXjXjXjX",
"jXjXjXjXjXjXjXjXjXjXjXjXjXjXjXjXjXl.6.6.{ { Z 8 * , , , h b ;.<.<.9.<.$.3 M J J e < X . jXjXjXjXjXjXjXjXjXjXjXjXjXjXjXjXjXjXjXjX",
"jXjXjXjXjXjXjXjXjXjXjXjXjXjXjXjXjXjXjX@.` Z B d 8 $ & < u b $.,.<.<.<.;.j = M D D 3 & X . jX5.5.+X7.jXjXjXjXjXjXjXjXjXjXjXjXjXjX",
"jXjXjXjXjXjXjXjXjXjXjXjXjXjXjXjXjXjXjXjXjXg d d 3 = = & i x %.&.,.<.,.&.1 X 2 D D M < X = 0 o.5.E.jXjXjXjXjXjXjXjXjXjXjXjXjXjXjX",
"jXjXjXjXjXjXjXjXjXjXjXjXjXjXjXjXjXjXjXjXjXjXjXe q ; $ $ 5 j %.&.&.=.&.x < X = e D D M = 4 0 _ _ jXjXjXjXjXjXjXjXjXjXjXjXjXjXjXjX",
"jXjXjXjXjXjXjXjXjXjXjXjXjXjXjXjXjXjXjXjXjXjXjXjXjXjX: * 6 p x %.%.*.b i < + X 2 M D K e 4 f ` jXjXjXjXjXjXjXjXjXjXjXjXjXjXjXjXjX",
"jXjXjXjXjXjXjXjXjXjXjXjXjXjXjXjXjXjXjXjXjXjXjXjXjXjXjX; 5 p z 1.-.-.m s , + X $ M D K M 4 f jXjXjXjXjXjXjXjXjXjXjXjXjXjXjXjXjXjX",
"jXjXjXjXjXjXjXjXjXjXjXjXjXjXjXjXjXjXjXjXjXjXjXjXjXjXjXjXjXp l jXz d e 8 - + @ @ 9 V K N 5 jXjXjXjXjXjXjXjXjXjXjXjXjXjXjXjXjXjXjX",
"jXjXjXjXjXjXjXjXjXjXjXjXjXjXjXjXjXjXjXjXjXjXjXjXjXjXjXjXjXjXl jXjX5 * X   . @ $ % M K S jXjXjXjXjXjXjXjXjXjXjXjXjXjXjXjXjXjXjXjX",
"jXjXjXjXjXjXjXjXjXjXjXjXjXjXjXjXjXjXjXjXjXjXjXjXjXjXjXjXjXjXjXjXjXjX* $ X O @ @ $ 8 A A jXjXjXjXjXjXjXjXjXjXjXjXjXjXjXjXjXjXjXjX",
"jXjXjXjXjXjXjXjXjXjXjXjXjXjXjXjXjXjXjXjXjXjXjXjXjXjXjXjXjXjXjXjXjXjXjX@ O O O @ # > N jXjXjXjXjXjXjXjXjXjXjXjXjXjXjXjXjXjXjXjXjX",
"jXjXjXjXjXjXjXjXjXjXjXjXjXjXjXjXjXjXjXjXjXjXjXjXjXjXjXjXjXjXjXjXjXjXjXjX  o O @ @ ; e jXjXjXjXjXjXjXjXjXjXjXjXjXjXjXjXjXjXjXjXjX",
"jXjXjXjXjXjXjXjXjXjXjXjXjXjXjXjXjXjXjXjXjXjXjXjXjXjXjXjXjXjXjXjXjXjXjXjXjXjXo O @ $ 8 jXjXjXjXjXjXjXjXjXjXjXjXjXjXjXjXjXjXjXjXjX",
"jXjXjXjXjXjXjXjXjXjXjXjXjXjXjXjXjXjXjXjXjXjXjXjXjXjXjXjXjXjXjXjXjXjXjXjXjXjXjXjXjX# 4 jXjXjXjXjXjXjXjXjXjXjXjXjXjXjXjXjXjXjXjXjX",
"jXjXjXjXjXjXjXjXjXjXjXjXjXjXjXjXjXjXjXjXjXjXjXjXjXjXjXjXjXjXjXjXjXjXjXjXjXjXjXjXjXjXjXjXjXjXjXjXjXjXjXjXjXjXjXjXjXjXjXjXjXjXjXjX",
"jXjXjXjXjXjXjXjXjXjXjXjXjXjXjXjXjXjXjXjXjXjXjXjXjXjXjXjXjXjXjXjXjXjXjXjXjXjXjXjXjXjXjXjXjXjXjXjXjXjXjXjXjXjXjXjXjXjXjXjXjXjXjXjX",
"jXjXjXjXjXjXjXjXjXjXjXjXjXjXjXjXjXjXjXjXjXjXjXjXjXjXjXjXjXjXjXjXjXjXjXjXjXjXjXjXjXjXjXjXjXjXjXjXjXjXjXjXjXjXjXjXjXjXjXjXjXjXjXjX",
"jXjXjXjXjXjXjXjXjXjXjXjXjXjXjXjXjXjXjXjXjXjXjXjXjXjXjXjXjXjXjXjXjXjXjXjXjXjXjXjXjXjXjXjXjXjXjXjXjXjXjXjXjXjXjXjXjXjXjXjXjXjXjXjX",
"jXjXjXjXjXjXjXjXjXjXjXjXjXjXjXjXjXjXjXjXjXjXjXjXjXjXjXjXjXjXjXjXjXjXjXjXjXjXjXjXjXjXjXjXjXjXjXjXjXjXjXjXjXjXjXjXjXjXjXjXjXjXjXjX",
"jXjXjXjXjXjXjXjXjXjXjXjXjXjXjXjXjXjXjXjXjXjXjXjXjXjXjXjXjXjXjXjXjXjXjXjXjXjXjXjXjXjXjXjXjXjXjXjXjXjXjXjXjXjXjXjXjXjXjXjXjXjXjXjX"
};
