/* XPM */
static char *result[] = {
/* columns rows colors chars-per-pixel */
"64 64 226 2 ",
"   c #0B123A",
".  c #091137",
"X  c #0E1544",
"o  c #121744",
"O  c #151B4B",
"+  c #151A49",
"@  c #141C54",
"#  c #1A1C54",
"$  c #141C5C",
"%  c #192159",
"&  c #242459",
"*  c #161D63",
"=  c #161C6B",
"-  c #191C69",
";  c #1A1B74",
":  c #191B78",
">  c #231F6B",
",  c #221C7A",
"<  c #1C2363",
"1  c #1B226D",
"2  c #1E2A6C",
"3  c #152160",
"4  c #1C2374",
"5  c #1A237D",
"6  c #1F2C7C",
"7  c #262866",
"8  c #222474",
"9  c #2B2B75",
"0  c #23247B",
"q  c #262B7D",
"w  c #2B2B7A",
"e  c #282675",
"r  c #322B78",
"t  c #29327A",
"y  c #343379",
"u  c #24306E",
"i  c #43377F",
"p  c #1E1B84",
"a  c #231D85",
"s  c #261D8C",
"d  c #291F94",
"f  c #261E90",
"g  c #1C2687",
"h  c #1D2896",
"j  c #2C2385",
"k  c #2A2A85",
"l  c #252789",
"z  c #392B8A",
"x  c #24328B",
"c  c #293486",
"v  c #3B3586",
"b  c #2D2394",
"n  c #282699",
"m  c #342594",
"M  c #263798",
"N  c #3F399D",
"B  c #1F29A3",
"V  c #282BA5",
"C  c #3C2FAB",
"Z  c #3932A6",
"A  c #3034AD",
"S  c #442E99",
"D  c #433595",
"F  c #4A3493",
"G  c #4B3999",
"H  c #53399A",
"J  c #49348E",
"K  c #4A2DA5",
"L  c #5738A8",
"P  c #5A33B5",
"I  c #5832B7",
"U  c #4E36AB",
"Y  c #663BAD",
"T  c #6435B3",
"R  c #693AB6",
"E  c #743DBC",
"W  c #334689",
"Q  c #385697",
"!  c #2F4E9E",
"~  c #3844AA",
"^  c #3E60AA",
"/  c #464291",
"(  c #564598",
")  c #4F4C95",
"_  c #64479C",
"`  c #63519D",
"'  c #4D45A7",
"]  c #5748A5",
"[  c #5951A9",
"{  c #5A4CB7",
"}  c #5955B6",
"|  c #4A4EB5",
" . c #6342A9",
".. c #6957A5",
"X. c #6845B7",
"o. c #7744BC",
"O. c #6859BC",
"+. c #7759B8",
"@. c #7551AC",
"#. c #5D71AD",
"$. c #5A64BC",
"%. c #4D6DAC",
"&. c #6E65AC",
"*. c #6C64B9",
"=. c #7767B8",
"-. c #7A78B9",
";. c #4132C1",
":. c #683CD2",
">. c #713AC3",
",. c #7B46C4",
"<. c #7A5DC9",
"1. c #7C45DB",
"2. c #6659C1",
"3. c #5769C0",
"4. c #6167C6",
"5. c #796ACB",
"6. c #6C69DD",
"7. c #6C73CA",
"8. c #814EBC",
"9. c #8353BC",
"0. c #8369BB",
"q. c #8075BD",
"w. c #874BCC",
"e. c #8855CB",
"r. c #8B49D5",
"t. c #8E54D1",
"y. c #8F5FD8",
"u. c #9354D3",
"i. c #9A5CD6",
"p. c #985CD6",
"a. c #9A5CCE",
"s. c #856BC7",
"d. c #8779C7",
"f. c #977DCB",
"g. c #9568D8",
"h. c #877AD7",
"j. c #967BD6",
"k. c #8F6AD1",
"l. c #A363DC",
"z. c #AA67DD",
"x. c #A76BD8",
"c. c #A278D6",
"v. c #9648E8",
"b. c #8844E3",
"n. c #A54BEA",
"m. c #A94DF3",
"M. c #8177E6",
"N. c #D87EEC",
"B. c #C479E1",
"V. c #7686BE",
"C. c #7D8BC4",
"Z. c #6D9DCA",
"A. c #7D94CC",
"S. c #759DCC",
"D. c #7A9ACA",
"F. c #728AD8",
"G. c #6DA4CB",
"H. c #79A4CD",
"J. c #6FADD0",
"K. c #78A9D2",
"L. c #7BBADA",
"P. c #8F90B5",
"I. c #8887C8",
"U. c #9381CA",
"Y. c #9983CE",
"T. c #938BCE",
"R. c #8695CD",
"E. c #8B81D8",
"W. c #9B8AD4",
"Q. c #9A85D3",
"!. c #8798D3",
"~. c #9395D0",
"^. c #9897CF",
"/. c #A38DD9",
"(. c #A385D7",
"). c #AA93DC",
"_. c #AA9ADC",
"`. c #A496D9",
"'. c #AE88D5",
"]. c #8AA8D5",
"[. c #99A8DB",
"{. c #87B5D9",
"}. c #9BB3DC",
"|. c #A8AADC",
" X c #A7B5DA",
".X c #ADBECC",
"XX c #8D89F1",
"oX c #AF94E8",
"OX c #88A6E4",
"+X c #9CB8E4",
"@X c #9CA8EB",
"#X c #A5AEED",
"$X c #A5BAE4",
"%X c #B9BCE6",
"&X c #B4B6F2",
"*X c #CF93EC",
"=X c #C6BAF9",
"-X c #DABDFC",
";X c #E6A7F7",
":X c #E3B1F7",
">X c #84C4DE",
",X c #B6C7D8",
"<X c #BFD4DE",
"1X c #8EC7E1",
"2X c #96C8E5",
"3X c #9ED7EB",
"4X c #BAC7E6",
"5X c #A6D4E9",
"6X c #B7D7EA",
"7X c #B9CAFC",
"8X c #ACCEED",
"9X c #B9E9F4",
"0X c #C3C7EB",
"qX c #C5DAEB",
"wX c #C5D9F7",
"eX c #CFCCFA",
"rX c #E3D6FB",
"tX c #E2CAFA",
"yX c #CAEAF6",
"uX c #D3EAF6",
"iX c #C9F3FA",
"pX c #DAFCFE",
"aX c #D7F7FA",
"sX c #CCE7ED",
"dX c #E1FFFF",
"fX c None",
/* pixels */
"fXfXfXfXfXfXfXfXfXfXfXfXfXfXfXfXfXfXfXfXfXfXfXfXfXfXfXfXfXfXfXfXfXfXfXfXfXfXfXfXfXfXfXfXfXfXfXfXfXfXfXfXfXfXfXfXfXfXfXfXfXfXfXfX",
"fXfXfXfXfXfXfXfXfXfXfXfXfXfXfXfXfXfXfXfXfXfXfXfXfXfXfXfXfXfXfXfXfXfXfXfXfXfXfXfXfXfXfXfXfXfXfXfXfXfXfXfXfXfXfXfXfXfXfXfXfXfXfXfX",
"fXfXfXfXfXfXfXfXfXfXfXfXfXfXfXfXfXfXfXfXfXfXfXfXfXfXfXfXfXfXfXfXfXfXfXfXfXfXfXfXfXfXfXfXfXfXfXfXfXfXfXfXfXfXfXfXfXfXfXfXfXfXfXfX",
"fXfXfXfXfXfXfXfXfXfXfXfXfXfXfXfXfXfXfXfXfXfXfXfXfXfXfXfXfXfXfXfXfXfXfXfXfXfXfXfXfXfXfXfXfXfXfXfXfXfXfXfXfXfXfXfXfXfXfXfXfXfXfXfX",
"fXfXfXfXfXfXfXfXfXfXfXfXfXfXfXfXfXfXfXfXfXfXfXfXfXfXfXfXfXfXfXfXfXfXfXfXfXfXfXfXfXfXfXfXfXfXfXfXfXfXfXfXfXfXfXfXfXfXfXfXfXfXfXfX",
"fXfXfXfXfXfXfXfXfXfXfXfXfXfXfXfXfXfXfX*XN.fXfXfXfXfXfXfXfXfXfXfXfXfXfXfXfXfXfXfXfXfXfXfXfXfXfXfXfXfXfXfXfXfXfXfXfXfXfXfXfXfXfXfX",
"fXfXfXfXfXfXfXfXfXfXfXfXfXfXfXfXfXfXfXN.B.(.fXfXfXfXfXfXfXfXfXfXfXfXfXfXfXfXfXfXfXfXfXfXfXfXfXfXfXfXfXfXfXfXfXfXfXfXfXfXfXfXfXfX",
"fXfXfXfXfXfXfXfXfXfXfXfXfXfXfXfXfXfX*XoX_.}.}.fXfXfXfXfXfXfXfXfXfXfXfXfXfXfXfXfXfXfXfXfXfXfXfXfXfXfXfXfXfXfXfXfXfXfXfXfXfXfXfXfX",
"fXfXfXfXfXfXfXfXfXfXfXfXfXfXfXfXfXfX$X8X+X+X[.$XfXfXfXfXfXfXfXfXfXfXfXfXfXfXfXfXfXfXfXfXfXfXfXfXfXfXfXfXfXfXfXfXfXfXfXfXfXfXfXfX",
"fXfXfXfXfXfXfXfXfXfXfXfXfXfXfXfXfX6X5X5X8X$X|.$X XfXfXfXfXfXfXfXfXfXfXfXfXfXfXfXfXfXfXfXfXfXfXfXfXfXfXfXfXfXfXfXfXfXfXfXfXfXfXfX",
"fXfXfXfXfXfXfXfXfXfXfXfXfXfXfXfXfXpXiXiXyX6X%X|.#X|.fXfXfXfXfXfXfXfXfXfXfXfXfXfXfXfXfXfXfXfXfXfXfXfXfXfXfXfXfXfXfXfXfXfXfXfXfXfX",
"fXfXfXfXfXfXfXfXfXfXfXfXfXfXfXfXpXpXpXaX6XsXaXuX6X4X4XfXfXfXfXfXfXfXfXfXfXfXfXfXfXfXfXfXfXfXfXfXfXfXfXfXfXfXfXfXfXfXfXfXfXfXfXfX",
"fXfXfXfXfXfXfXfXfXfXfXfXfXfXfXfXiXiXiX,X,X<XsXuXdXpXaXaXfXfXfXfXfXfXfXfXfXfXfXfXfXfXfXfXfXfXfXfXfXfXfXfXfXfXfXfXfXfXfXfXfXfXfXfX",
"fXfXfXfXfXfXfXfXfXfXfXfXfXfXfX9X9X9X6X<XsX<X<X,XaXdXpXpXfXfXfXfXfXfXfXfXfXfXfXfXfXfXfXfXfXfXfXfXfXfXfXfXfXfXfXfXfXfXfXfXfXfXfXfX",
"fXfXfXfXfXfXfXfXfXfXfXfXfXfXfX5X5X9X6X6X,X<X,X,XqXuXuXaXsXfXfXfXfXfXfXfXfXfXfXfXfXfXfXfXfXfXfXfXfXfXfXfXfXfXfXfXfXfXfXfXfXfXfXfX",
"fXfXfXfXfXfXfXfXfXfXfXfXfXfXfX5X>X{.}.|.%X.X^.qXrXwX0X%X|.q.fXfXfXfXfXfXfXfXfXfXfXfXfXfXfXfXfXfXfXfXfXfXfXfXfXfXfXfXfXfXfXfXfXfX",
"fXfXfXfXfXfXfXfXfXfXfXfXfXfXfX1XL.K.!.I.^.P.|.%X4X=X4X=X.X~.fXfXfXfXfXfXfXfXfXfXfXfXfXfXfXfXfXfXfXfXfXfXfXfXfXfXfXfXfXfXfXfXfXfX",
"fXfXfXfXfXfXfXfXfXfXfXfXfXfXfX>XL.].].!.I.U./.(.).)._._.`.I.%.fXfXfXfXfXfXfXfXfXfXfXfXfXfXfXfXfXfXfXfXfXfXfXfXfXfXfXfXfXfXfXfXfX",
"fXfXfXfXfXfXfXfXfXfXfXfXfXfXfXJ.J.].].~.^.`.`.).`.'.(.c.f.Y.) ! fXfXfXfXfXfXfXfXfXfXfXfXfXfXfXfXfXfXfXfXfXfXfXfXfXfXfXfXfXfXfXfX",
"fXfXfXfXfXfXfXfXfXfXfXfXfXfXfXJ.J.S.A.R.~.T./.`._._._.`.Y.0.y u fXfXfXfXfXfXfXfXfXfXfXfXfXfXfXfXfXfXfXfXfXfXfXfXfXfXfXfXfXfXfXfX",
"fXfXfXfXfXfXfXfXfXfXfXfXfXfXfXJ.G.S.A.R.~.T.W.W./.W.Y.f.0.&.y & 7 fXfXfXfXfXfXfXfXfXfXfXfXfXfXfXfXfXfXfXfXfXfXfXfXfXfXfXfXfXfXfX",
"fXfXfXfXfXfXfXfXfXfXfXfXfXfXfXH.Z.Z.A.I.I.T.W.W.(.Y.Y.f._ ( 7 u 2 fXfXfXfXfXfXfXfXfXfXfXfXfXfXfXfXfXfXfXfXfXfXfXfXfXfXfXfXfXfXfX",
"fXfXfXfXfXfXfXfXfXfXfXfXfXfXfXfXZ.Z.S.A.I.T.T.T.U.U.P.0.i ( & & 2 c fXfXfXfXfXfXfXfXfXfXfXfXfXc.c.fXfXfXfXfXfXfXfXfXfXfXfXfXfXfX",
"fXfXfXfXfXfXfXfXfXfXfXfXfXfXfXfX].H.H.H.A.I.T.U.f.f.f.` y ( & & O % fXfXfXfXfXfXfXfXfXfXfXfX*Xc.0.fXfXfXfXfXfXfXfXfXfXfXfXfXfXfX",
"fXfXfXfXfXfXfXfXfXfXfXfXfXfXfXfXfXI.C.H.S.R.I.d.d.d.=.i t ( O + O o fXfXfXfXfXfXfXfXfXfXfXrX;Xc.0.fXfXfXfXfXfXfXfXfXfXfXfXfXfXfX",
"fXfXfXfXfXfXfXfXfXfXfXfXfXfXfXfXfX..+.E.!.R.C.I.-.0...y t ' r + o o & fXfXfXfXfXfXfXfXfXiXrX;Xc.I.fXfXfXfXfXfXfXfXfXfXfXfXfXfXfX",
"fXfXfXfXfXfXfXfXfXfXfXfXfXfXfXfXfXfXe.i.g.Q.R.C.-.-./ 9 q q y J & + # fXfXfXfXfXfXfXfX9XyXtX;X).{.fXfXfXfXfXfXfXfXfXfXfXfXfXfXfX",
"fXfXfXfXfXfXfXfXfXfXfXfXfXfXfXfXfXfX9.i.l.l.g.d.-.&.v q q 8 < < y & + fXfXfXfXfXfXfXfXwXwX-X:X%X3X1XfXfXfXfXfXfXfXfXfXfXfXfXfXfX",
"fXfXfXfXfXfXfXfXfXfXfXfXfXfXfXfXfXfXfX9.z.z.l.u.s.+.v c k 4 8 1 3 < o @ fXfXfXfXfXfX8X7XeX=XtXqX>XV.fXfXfXfXfXfXfXfXfXfXfXfXfXfX",
"fXfXfXfXfXfXfXfXfXfXfXfXfXfXfXfXfXfXfX_ a.z.z.i.w.,.G z k 0 4 4 1 < o   fXfXfXfXfXfX+XwXeX&XtX0X{.&.fXfXfXfXfXfXfXfXfXfXfXfXfXfX",
"fXfXfXfXfXfXfXfXfXfXfXfXfXfXfXfXfXfXfXfX@.z.z.i.t.E P S b k 6 4 1 1 X     fXfXfXfXfXOX7X&X#X4X XH.` fXfXfXfXfXfXfXfXfXfXfXfXfXfX",
"fXfXfXfXfXfXfXfXfXfXfXfXfXfXfXfXfXfXfXfX_ 8.z.l.u.,.T P U b l 4 4 4 % o .   fXfXfXfXOX7X&XOX}.{.V.fXfXfXfXfXfXfXfXfXfXfXfXfXfXfX",
"fXfXfXfXfXfXfXfXfXfXfXfXfXfXfXfXfXfXfXfX@.H 9.g.u.>.T I 2.O.U l g 4 4 * X   % fXfXfXOX8X#XF.S.{.C.fXfXfXfXfXfXfXfXfXfXfXfXfXfXfX",
"fXfXfXfXfXfXfXfXfXfXfXfXfXfXfXfXfXfXoXU.0. .F o.w.E R I 5.h.5.P j l 4 = $ X $ fXfX$.OX#X@XF.%.G.fXfXfXfXfXfXfXfXfXfXfXfXfXfXfXfX",
"fXfXfXfXfXfXfXfXfXfXfXfXfXfXfXfXfXfX4XT.=. .G  .E T I I g.E.h.s.{ m 0 > 3 * 2 c fX| F.@XXX7.! fXfXfXfXfXfXfXfXfXfXfXfXfXfXfXfXfX",
"fXfXfXfXfXfXfXfXfXfXfXfXfXfXfXfXfXfX6X|.&.( D D Y K K >.r.g.h.h.<.L j 8 1 1 4 x h A 3.XXM.4.fXfXfXfXfXfXfXfXfXfXfXfXfXfXfXfXfXfX",
"fXfXfXfXfXfXfXfXfXfXfXfXfXfXfXfXfXfXfX$XC.G D 2 H S P w.t.u.p.h.5.<.L w 4 4 g g h M ~ 6.6.fXfXfXfXfXfXfXfXfXfXfXfXfXfXfXfXfXfXfX",
"fXfXfXfXfXfXfXfXfXfXfXfXfXfXfXfXfXfXfXR.].[ D w y L P w.t.u.t.k.h.5.O.( e 0 l h B V M ~ fXfXfXfXfXfXfXfXfXfXfXfXfXfXfXfXfXfXfXfX",
"fXfXfXfXfXfXfXfXfXfXfXfXfXfXfXfXfXfXfXfX#.&.W v 9 L o.w.a.t.w.u.h.5.O.X.G l l n B h h l fXfXfXfXfXfXfXfXfXfXfXfXfXfXfXfXfXfXfXfX",
"fXfXfXfXfXfXfXfXfXfXfXfXfXfXfXfXfXfXfXfXfXQ Q y J P  .,.w.t.w.w.k.h.4.[ ] G l n h x 4 fXfXfXfXfXfXfXfXfXfXfXfXfXfXfXfXfXfXfXfXfX",
"fXfXfXfXfXfXfXfXfXfXfXfXfXfXfXfXfXfXfXfXfXfXQ W y  .H Y ,.,.,.E o.h.E.( ] { N l C g = fXfXfXfXfXfXfXfXfXfXfXfXfXfXfXfXfXfXfXfXfX",
"fXfXfXfXfXfXfXfXfXfXfXfXfXfXfXfXfXfXfXfXfXfXfXQ t J F H  .R R T Y  .5.G L X.{ Z I x 5 fXfXfXfXfXfXfXfXfXfXfXfXfXfXfXfXfXfXfXfXfX",
"fXfXfXfXfXfXfXfXfXfXfXfXfXfXW.fXfXfXfXfXfXfXfXfXc 9 z z J F H H L L O.*.T E >.V A C 5 = fXfXfXfXfXfXfXfXfXfXfXfXfXfXfXfXfXfXfXfX",
"fXfXfXfXfXfXfXfXfXfXfXfXfXfX`.h.s.g. .fXfXfXfXfX%.9 r e , j s m m m v } e.r.b.K V V 5 < fXfXfXfXfXfXfXfXfXfXfXfXfXfXfXfXfXfXfXfX",
"fXfXfXfXfXfXfXfXfXfXfXfXfXfXfXR.5.k.+.X.,.X.v fXfXw w 8 a d d m m s , > H r.n.>.A B g = fXfXfXfXfXfXfXfXfXfXfXfXfXfXfXfXfXfXfXfX",
"fXfXfXfXfXfXfXfXfXfXfXfXfXfXfXfXfXs.5.=.X.X.G 7 % $ - - a d d d d m d s ; K n.m.:.B p $ fXfXfXfXfXfXfXfXfXfXfXfXfXfXfXfXfXfXfXfX",
"fXfXfXfXfXfXfXfXfXfXfXfXfXfXfXfXfXfXfX4.[ D S z > @ @ * , , s d d d d C a , >.n.v.;.B $ X fX3.4.OX4.fXfXfXfXfXfXfXfXfXfXfXfXfXfX",
"fXfXfXfXfXfXfXfXfXfXfXfXfXfXfXfXfXfXfXfXfXv J z e @ @ @ = ; : p s s d d , ; K v.m.1.V $ $ e $.4.H.fXfXfXfXfXfXfXfXfXfXfXfXfXfXfX",
"fXfXfXfXfXfXfXfXfXfXfXfXfXfXfXfXfXfXfXfXfXfXfXr e % @ @ @ * ; : : p p l : : l 1.m.v.T 8 3 9 } } fXfXfXfXfXfXfXfXfXfXfXfXfXfXfXfX",
"fXfXfXfXfXfXfXfXfXfXfXfXfXfXfXfXfXfXfXfXfXfXfXfXfXfX% @ @ $ * = = = = = 5 g g A b.v.w.z < c | fXfXfXfXfXfXfXfXfXfXfXfXfXfXfXfXfX",
"fXfXfXfXfXfXfXfXfXfXfXfXfXfXfXfXfXfXfXfXfXfXfXfXfXfXfX# @ @ * e , > > 0 l g g M 1.v.,.S < c fXfXfXfXfXfXfXfXfXfXfXfXfXfXfXfXfXfX",
"fXfXfXfXfXfXfXfXfXfXfXfXfXfXfXfXfXfXfXfXfXfXfXfXfXfXfXfXfX# # fX# + # e w q x M | b.,.F u fXfXfXfXfXfXfXfXfXfXfXfXfXfXfXfXfXfXfX",
"fXfXfXfXfXfXfXfXfXfXfXfXfXfXfXfXfXfXfXfXfXfXfXfXfXfXfXfXfXfX% fXfX    @ % 4 h M ~ { ,.F fXfXfXfXfXfXfXfXfXfXfXfXfXfXfXfXfXfXfXfX",
"fXfXfXfXfXfXfXfXfXfXfXfXfXfXfXfXfXfXfXfXfXfXfXfXfXfXfXfXfXfXfXfXfXfXX $ 1 c x M M N X.H fXfXfXfXfXfXfXfXfXfXfXfXfXfXfXfXfXfXfXfX",
"fXfXfXfXfXfXfXfXfXfXfXfXfXfXfXfXfXfXfXfXfXfXfXfXfXfXfXfXfXfXfXfXfXfXfX* 4 6 x x M c H fXfXfXfXfXfXfXfXfXfXfXfXfXfXfXfXfXfXfXfXfX",
"fXfXfXfXfXfXfXfXfXfXfXfXfXfXfXfXfXfXfXfXfXfXfXfXfXfXfXfXfXfXfXfXfXfXfXfX2 6 x x q c y fXfXfXfXfXfXfXfXfXfXfXfXfXfXfXfXfXfXfXfXfX",
"fXfXfXfXfXfXfXfXfXfXfXfXfXfXfXfXfXfXfXfXfXfXfXfXfXfXfXfXfXfXfXfXfXfXfXfXfXfXq x q 2 u fXfXfXfXfXfXfXfXfXfXfXfXfXfXfXfXfXfXfXfXfX",
"fXfXfXfXfXfXfXfXfXfXfXfXfXfXfXfXfXfXfXfXfXfXfXfXfXfXfXfXfXfXfXfXfXfXfXfXfXfXfXfXfX< 2 fXfXfXfXfXfXfXfXfXfXfXfXfXfXfXfXfXfXfXfXfX",
"fXfXfXfXfXfXfXfXfXfXfXfXfXfXfXfXfXfXfXfXfXfXfXfXfXfXfXfXfXfXfXfXfXfXfXfXfXfXfXfXfXfXfXfXfXfXfXfXfXfXfXfXfXfXfXfXfXfXfXfXfXfXfXfX",
"fXfXfXfXfXfXfXfXfXfXfXfXfXfXfXfXfXfXfXfXfXfXfXfXfXfXfXfXfXfXfXfXfXfXfXfXfXfXfXfXfXfXfXfXfXfXfXfXfXfXfXfXfXfXfXfXfXfXfXfXfXfXfXfX",
"fXfXfXfXfXfXfXfXfXfXfXfXfXfXfXfXfXfXfXfXfXfXfXfXfXfXfXfXfXfXfXfXfXfXfXfXfXfXfXfXfXfXfXfXfXfXfXfXfXfXfXfXfXfXfXfXfXfXfXfXfXfXfXfX",
"fXfXfXfXfXfXfXfXfXfXfXfXfXfXfXfXfXfXfXfXfXfXfXfXfXfXfXfXfXfXfXfXfXfXfXfXfXfXfXfXfXfXfXfXfXfXfXfXfXfXfXfXfXfXfXfXfXfXfXfXfXfXfXfX",
"fXfXfXfXfXfXfXfXfXfXfXfXfXfXfXfXfXfXfXfXfXfXfXfXfXfXfXfXfXfXfXfXfXfXfXfXfXfXfXfXfXfXfXfXfXfXfXfXfXfXfXfXfXfXfXfXfXfXfXfXfXfXfXfX",
"fXfXfXfXfXfXfXfXfXfXfXfXfXfXfXfXfXfXfXfXfXfXfXfXfXfXfXfXfXfXfXfXfXfXfXfXfXfXfXfXfXfXfXfXfXfXfXfXfXfXfXfXfXfXfXfXfXfXfXfXfXfXfXfX"
};
