/* XPM */
static char *result[] = {
/* columns rows colors chars-per-pixel */
"64 64 234 2 ",
"   c #0A113A",
".  c #091137",
"X  c #0E1443",
"o  c #0F144A",
"O  c #111644",
"+  c #131945",
"@  c #12164C",
"#  c #131A4B",
"$  c #191C4A",
"%  c #111752",
"&  c #141B54",
"*  c #1A1B54",
"=  c #141C5B",
"-  c #1A1C5C",
";  c #12175B",
":  c #201B5F",
">  c #1A225C",
",  c #192258",
"<  c #25255A",
"1  c #141765",
"2  c #151A64",
"3  c #1C1D63",
"4  c #181B6B",
"5  c #1A1B72",
"6  c #1D1A7A",
"7  c #251D69",
"8  c #221C79",
"9  c #311F77",
"0  c #1C2363",
"q  c #1B226C",
"w  c #1B2663",
"e  c #1F2678",
"r  c #1E3074",
"t  c #242465",
"y  c #26286A",
"u  c #222474",
"i  c #262A75",
"p  c #2A2B74",
"a  c #2B2A7C",
"s  c #282577",
"d  c #35287B",
"f  c #2C3173",
"g  c #2E3875",
"h  c #33327D",
"j  c #383578",
"k  c #42367E",
"l  c #241D84",
"z  c #291F8C",
"x  c #251D88",
"c  c #2A2383",
"v  c #2D228C",
"b  c #252380",
"n  c #3A2381",
"m  c #3B2D85",
"M  c #36298A",
"N  c #3C3587",
"B  c #2E2292",
"V  c #3D2995",
"C  c #2B3996",
"Z  c #393796",
"A  c #283587",
"S  c #2C3FA8",
"D  c #44248B",
"F  c #45268B",
"G  c #45388D",
"H  c #4B2C95",
"J  c #4C2C9A",
"K  c #522D9E",
"L  c #502797",
"P  c #433594",
"I  c #4A3494",
"U  c #4B3C94",
"Y  c #46369A",
"T  c #4C389B",
"R  c #533E8F",
"E  c #552DA4",
"W  c #4D39A5",
"Q  c #5A38AA",
"!  c #5332B3",
"~  c #5A37B2",
"^  c #4A2EAD",
"/  c #633BAC",
"(  c #6C3DB9",
")  c #6539B5",
"_  c #36468A",
"`  c #385697",
"'  c #334A96",
"]  c #3253AC",
"[  c #3E60AA",
"{  c #4B438A",
"}  c #444392",
"|  c #4A439B",
" . c #524798",
".. c #48589B",
"X. c #4A529B",
"o. c #574E94",
"O. c #634E9B",
"+. c #47659F",
"@. c #5D44A5",
"#. c #5548A9",
"$. c #4C58A8",
"%. c #5857A7",
"&. c #5C45B5",
"*. c #4D42A0",
"=. c #6644A9",
"-. c #6559AA",
";. c #6C43BA",
":. c #6746B6",
">. c #7445BD",
",. c #724CB4",
"<. c #6256B9",
"1. c #675BB8",
"2. c #7753B8",
"3. c #5864AD",
"4. c #5D71AD",
"5. c #536CB4",
"6. c #4C6DB4",
"7. c #6C65AD",
"8. c #6B6FAD",
"9. c #636DBB",
"0. c #6864B9",
"q. c #7869B8",
"w. c #6B74B6",
"e. c #7B75BD",
"r. c #7B79BD",
"t. c #7577BB",
"y. c #787AA8",
"u. c #444CC7",
"i. c #555CD7",
"p. c #7948C5",
"a. c #6759C2",
"s. c #795AC6",
"d. c #7F5BD2",
"f. c #5265D8",
"g. c #6B67C4",
"h. c #7768C8",
"j. c #6674C1",
"k. c #6578C3",
"l. c #7878C7",
"z. c #7977D5",
"x. c #7975D7",
"c. c #726DD0",
"v. c #8374BF",
"b. c #824DCA",
"n. c #804CC7",
"m. c #8551CD",
"M. c #8A55CD",
"N. c #8857C7",
"B. c #8E57D1",
"V. c #955CD5",
"C. c #975ED8",
"Z. c #864FD0",
"A. c #8667CB",
"S. c #8276C2",
"D. c #827BC4",
"F. c #857EC8",
"G. c #8978C8",
"H. c #8A68D4",
"J. c #9B62DB",
"K. c #9364D6",
"L. c #8678D1",
"P. c #9667CB",
"I. c #B770D7",
"U. c #A672E4",
"Y. c #D077E5",
"T. c #7785BF",
"R. c #6F86BC",
"E. c #7F82C6",
"W. c #748BC6",
"Q. c #7C85C8",
"!. c #7A8BC9",
"~. c #7886C6",
"^. c #6D9CCA",
"/. c #6A99C7",
"(. c #739CCB",
"). c #7994CA",
"_. c #7691CD",
"`. c #6AA7CE",
"'. c #73A4CD",
"]. c #79A8D2",
"[. c #79BBDA",
"{. c #6EB0D3",
"}. c #909BBA",
"|. c #8582CA",
" X c #8B84CC",
".X c #8D8BCD",
"XX c #858EC8",
"oX c #938CCF",
"OX c #9688D3",
"+X c #8A9BD2",
"@X c #8896D2",
"#X c #969CD0",
"$X c #B084D9",
"%X c #88A6D6",
"&X c #97AAD9",
"*X c #85B5DC",
"=X c #96B5DD",
"-X c #A7B9CE",
";X c #A4ADDC",
":X c #A7B7DA",
">X c #9798EA",
",X c #978CEF",
"<X c #BF9EEC",
"1X c #95B3E8",
"2X c #A9B8E4",
"3X c #B5B7E6",
"4X c #B7AEF2",
"5X c #CE89E3",
"6X c #C7B8EA",
"7X c #81C0DC",
"8X c #AEC6D3",
"9X c #B3C8DC",
"0X c #BAD4DE",
"qX c #95CCE7",
"wX c #9BD2E8",
"eX c #89C9E0",
"rX c #ACC7E4",
"tX c #B5C8E8",
"yX c #A7D2E6",
"uX c #BCD6E9",
"iX c #BADBF2",
"pX c #BAC7F4",
"aX c #B9E8F5",
"sX c #B0E1F0",
"dX c #C9D5F1",
"fX c #CAD7EF",
"gX c #C3E5F3",
"hX c #C7EAF5",
"jX c #CBF8FC",
"kX c #D4FCFD",
"lX c #D4F8FB",
"zX c #C6E7ED",
"xX c #E4EAFB",
"cX c None",
/* pixels */
"cXcXcXcXcXcXcXcXcXcXcXcXcXcXcXcXcXcXcXcXcXcXcXcXcXcXcXcXcXcXcXcXcXcXcXcXcXcXcXcXcXcXcXcXcXcXcXcXcXcXcXcXcXcXcXcXcXcXcXcXcXcXcXcX",
"cXcXcXcXcXcXcXcXcXcXcXcXcXcXcXcXcXcXcXcXcXcXcXcXcXcXcXcXcXcXcXcXcXcXcXcXcXcXcXcXcXcXcXcXcXcXcXcXcXcXcXcXcXcXcXcXcXcXcXcXcXcXcXcX",
"cXcXcXcXcXcXcXcXcXcXcXcXcXcXcXcXcXcXcXcXcXcXcXcXcXcXcXcXcXcXcXcXcXcXcXcXcXcXcXcXcXcXcXcXcXcXcXcXcXcXcXcXcXcXcXcXcXcXcXcXcXcXcXcX",
"cXcXcXcXcXcXcXcXcXcXcXcXcXcXcXcXcXcXcXcXcXcXcXcXcXcXcXcXcXcXcXcXcXcXcXcXcXcXcXcXcXcXcXcXcXcXcXcXcXcXcXcXcXcXcXcXcXcXcXcXcXcXcXcX",
"cXcXcXcXcXcXcXcXcXcXcXcXcXcXcXcXcXcXcXcXcXcXcXcXcXcXcXcXcXcXcXcXcXcXcXcXcXcXcXcXcXcXcXcXcXcXcXcXcXcXcXcXcXcXcXcXcXcXcXcXcXcXcXcX",
"cXcXcXcXcXcXcXcXcXcXcXcXcXcXcXcXcXcXcX5XY.cXcXcXcXcXcXcXcXcXcXcXcXcXcXcXcXcXcXcXcXcXcXcXcXcXcXcXcXcXcXcXcXcXcXcXcXcXcXcXcXcXcXcX",
"cXcXcXcXcXcXcXcXcXcXcXcXcXcXcXcXcXcXcXY.I.G.cXcXcXcXcXcXcXcXcXcXcXcXcXcXcXcXcXcXcXcXcXcXcXcXcXcXcXcXcXcXcXcXcXcXcXcXcXcXcXcXcXcX",
"cXcXcXcXcXcXcXcXcXcXcXcXcXcXcXcXcXcX5X$XoX%X%XcXcXcXcXcXcXcXcXcXcXcXcXcXcXcXcXcXcXcXcXcXcXcXcXcXcXcXcXcXcXcXcXcXcXcXcXcXcXcXcXcX",
"cXcXcXcXcXcXcXcXcXcXcXcXcXcXcXcXcXcX=X*X*X%X].&XcXcXcXcXcXcXcXcXcXcXcXcXcXcXcXcXcXcXcXcXcXcXcXcXcXcXcXcXcXcXcXcXcXcXcXcXcXcXcXcX",
"cXcXcXcXcXcXcXcXcXcXcXcXcXcXcXcXcXyXqXqX1X%X@X+X%XcXcXcXcXcXcXcXcXcXcXcXcXcXcXcXcXcXcXcXcXcXcXcXcXcXcXcXcXcXcXcXcXcXcXcXcXcXcXcX",
"cXcXcXcXcXcXcXcXcXcXcXcXcXcXcXcXcXlXjXhXaXyX=X&X%X#XcXcXcXcXcXcXcXcXcXcXcXcXcXcXcXcXcXcXcXcXcXcXcXcXcXcXcXcXcXcXcXcXcXcXcXcXcXcX",
"cXcXcXcXcXcXcXcXcXcXcXcXcXcXcXcXkXkXkXlXuXzXlXhXtXrXrXcXcXcXcXcXcXcXcXcXcXcXcXcXcXcXcXcXcXcXcXcXcXcXcXcXcXcXcXcXcXcXcXcXcXcXcXcX",
"cXcXcXcXcXcXcXcXcXcXcXcXcXcXcXcXaXjXaX8X-X0XzXlXkXkXjXjXcXcXcXcXcXcXcXcXcXcXcXcXcXcXcXcXcXcXcXcXcXcXcXcXcXcXcXcXcXcXcXcXcXcXcXcX",
"cXcXcXcXcXcXcXcXcXcXcXcXcXcXcXsXaXaXsXyXzXuX0X8XlXkXkXjXcXcXcXcXcXcXcXcXcXcXcXcXcXcXcXcXcXcXcXcXcXcXcXcXcXcXcXcXcXcXcXcXcXcXcXcX",
"cXcXcXcXcXcXcXcXcXcXcXcXcXcXcXyXwXsXyX9X-XtX8X&XfXzXhXhXsXcXcXcXcXcXcXcXcXcXcXcXcXcXcXcXcXcXcXcXcXcXcXcXcXcXcXcXcXcXcXcXcXcXcXcX",
"cXcXcXcXcXcXcXcXcXcXcXcXcXcXcXwX7X7X%X&X2X-X}.uXdXpXrX;X#X8.cXcXcXcXcXcXcXcXcXcXcXcXcXcXcXcXcXcXcXcXcXcXcXcXcXcXcXcXcXcXcXcXcXcX",
"cXcXcXcXcXcXcXcXcXcXcXcXcXcXcXeX{.].).T.XXy.#X;X:X3X:X2X:X).cXcXcXcXcXcXcXcXcXcXcXcXcXcXcXcXcXcXcXcXcXcXcXcXcXcXcXcXcXcXcXcXcXcX",
"cXcXcXcXcXcXcXcXcXcXcXcXcXcXcX7X[.].].!.e.r.F. X XoXOXoX.Xr.+.cXcXcXcXcXcXcXcXcXcXcXcXcXcXcXcXcXcXcXcXcXcXcXcXcXcXcXcXcXcXcXcXcX",
"cXcXcXcXcXcXcXcXcXcXcXcXcXcXcX`.`.'.@X@XXX.XoXoX X|.G.D.v.v.` ' cXcXcXcXcXcXcXcXcXcXcXcXcXcXcXcXcXcXcXcXcXcXcXcXcXcXcXcXcXcXcXcX",
"cXcXcXcXcXcXcXcXcXcXcXcXcXcXcX{.`.^._.W.!.Q. X X.XoXoX.Xv.q.y f cXcXcXcXcXcXcXcXcXcXcXcXcXcXcXcXcXcXcXcXcXcXcXcXcXcXcXcXcXcXcXcX",
"cXcXcXcXcXcXcXcXcXcXcXcXcXcXcX].`.(./.!.Q.E.|.|. XF.v.v.7.7.f $ < cXcXcXcXcXcXcXcXcXcXcXcXcXcXcXcXcXcXcXcXcXcXcXcXcXcXcXcXcXcXcX",
"cXcXcXcXcXcXcXcXcXcXcXcXcXcXcX]./.^.W.~.Q.Q.F.F.|.D.S.q.{ { t y w cXcXcXcXcXcXcXcXcXcXcXcXcXcXcXcXcXcXcXcXcXcXcXcXcXcXcXcXcXcXcX",
"cXcXcXcXcXcXcXcXcXcXcXcXcXcXcXcX/././.~.~.Q.l.F.v.l.v.-.g o.< , w A cXcXcXcXcXcXcXcXcXcXcXcXcX-.v.cXcXcXcXcXcXcXcXcXcXcXcXcXcXcX",
"cXcXcXcXcXcXcXcXcXcXcXcXcXcXcXcX%X(.^./.W.~.E.r.r.r.e.o.f { < , # > cXcXcXcXcXcXcXcXcXcXcXcX-.-.q.cXcXcXcXcXcXcXcXcXcXcXcXcXcXcX",
"cXcXcXcXcXcXcXcXcXcXcXcXcXcXcXcXcXT.W.'.(.W.l.t.t.t.7.j f U * + $ + cXcXcXcXcXcXcXcXcXcXcXL.N.1.h.cXcXcXcXcXcXcXcXcXcXcXcXcXcXcX",
"cXcXcXcXcXcXcXcXcXcXcXcXcXcXcXcXcXO.2.F.XX/.R.t.8.q.o.f f  .f $   O < cXcXcXcXcXcXcXcXcX9.x.K.h.+XcXcXcXcXcXcXcXcXcXcXcXcXcXcXcX",
"cXcXcXcXcXcXcXcXcXcXcXcXcXcXcXcXcXcX2.B.K.L.).R.8.8.{ f i i m j y   < cXcXcXcXcXcXcXcXk.j.A.U.OXyXcXcXcXcXcXcXcXcXcXcXcXcXcXcXcX",
"cXcXcXcXcXcXcXcXcXcXcXcXcXcXcXcXcXcX2.M.C.J.P.l.w.7.N i i q w w j < + cXcXcXcXcXcXcXcXj.9.h.U.3XaXgXcXcXcXcXcXcXcXcXcXcXcXcXcXcX",
"cXcXcXcXcXcXcXcXcXcXcXcXcXcXcXcXcXcXcX,.V.J.C.M.h.7.N a i u q 0 , w O # cXcXcXcXcXcX9.9.0.h.5XdXgX2XcXcXcXcXcXcXcXcXcXcXcXcXcXcX",
"cXcXcXcXcXcXcXcXcXcXcXcXcXcXcXcXcXcXcXR N.J.J.M.p.>.Y v a u q q 0 0 +   cXcXcXcXcXcX3.9.0.9.6XfXuX>XcXcXcXcXcXcXcXcXcXcXcXcXcXcX",
"cXcXcXcXcXcXcXcXcXcXcXcXcXcXcXcXcXcXcXcX=.J.J.V.Z.( ~ H v a e q q q X     cXcXcXcXcX..0.1.9.;XdXtX,XcXcXcXcXcXcXcXcXcXcXcXcXcXcX",
"cXcXcXcXcXcXcXcXcXcXcXcXcXcXcXcXcXcXcXcX{ ,.J.V.M.( ~ ~ W M b e q 4 > O .   cXcXcXcX..3.3.6.].rX4XcXcXcXcXcXcXcXcXcXcXcXcXcXcXcX",
"cXcXcXcXcXcXcXcXcXcXcXcXcXcXcXcXcXcXcXcX-.G ,.B.Z.( ! ! a.<.Z v e 4 q = X . & cXcXcX..%.%.5.`.tX2XcXcXcXcXcXcXcXcXcXcXcXcXcXcXcX",
"cXcXcXcXcXcXcXcXcXcXcXcXcXcXcXcXcXcX$XD.N.@.G >.p.( ) ! c.x.c.W v e q 0 & X # cXcXg ..%.%.+.6.qXcXcXcXcXcXcXcXcXcXcXcXcXcXcXcXcX",
"cXcXcXcXcXcXcXcXcXcXcXcXcXcXcXcXcXcX3XXX-.o.P  .( ~ ! ! H.x.x.s.&.M u q = & > w cXy _ X.%.$.] cXcXcXcXcXcXcXcXcXcXcXcXcXcXcXcXcX",
"cXcXcXcXcXcXcXcXcXcXcXcXcXcXcXcXcXcXuX;X1. .P P ) J V ) p.d.x.x.a.W c t 0 & = > & w j }  .$.cXcXcXcXcXcXcXcXcXcXcXcXcXcXcXcXcXcX",
"cXcXcXcXcXcXcXcXcXcXcXcXcXcXcXcXcXcXcX2XE.*.P r I P ^ p.b.Z.M.x.c.a.| a 0 - & % # = > N | cXcXcXcXcXcXcXcXcXcXcXcXcXcXcXcXcXcXcX",
"cXcXcXcXcXcXcXcXcXcXcXcXcXcXcXcXcXcXcX).+X%.Y p h Q ~ p.M.M.p.h.c.g.<.U u - = ; % % & t cXcXcXcXcXcXcXcXcXcXcXcXcXcXcXcXcXcXcXcX",
"cXcXcXcXcXcXcXcXcXcXcXcXcXcXcXcXcXcXcXcX4.8._ N p E ( Z.m.m.b.b.c.g.<.#.G t = & % @ @ % cXcXcXcXcXcXcXcXcXcXcXcXcXcXcXcXcXcXcXcX",
"cXcXcXcXcXcXcXcXcXcXcXcXcXcXcXcXcXcXcXcXcX_ ` h P ~ Q p.b.m.n.>.A.z.0.#.| d - * % X X cXcXcXcXcXcXcXcXcXcXcXcXcXcXcXcXcXcXcXcXcX",
"cXcXcXcXcXcXcXcXcXcXcXcXcXcXcXcXcXcXcXcXcXcX` _ j =.T / p.>.>.;.;.G.F.| | G y ; :     cXcXcXcXcXcXcXcXcXcXcXcXcXcXcXcXcXcXcXcXcX",
"cXcXcXcXcXcXcXcXcXcXcXcXcXcXcXcXcXcXcXcXcXcXcX` p G I I Q / / / Q =.c.U H T m 3 9 + X cXcXcXcXcXcXcXcXcXcXcXcXcXcXcXcXcXcXcXcXcX",
"cXcXcXcXcXcXcXcXcXcXcXcXcXcXL.cXcXcXcXcXcXcXcXcX_ p m M m F J K E L <.<.H L n - : - O O cXcXcXcXcXcXcXcXcXcXcXcXcXcXcXcXcXcXcXcX",
"cXcXcXcXcXcXcXcXcXcXcXcXcXcXOXl.l.P. .cXcXcXcXcX[ f c s c a c v M M Z %.:.E L : @ % O @ cXcXcXcXcXcXcXcXcXcXcXcXcXcXcXcXcXcXcXcX",
"cXcXcXcXcXcXcXcXcXcXcXcXcXcXcXQ.l.A.0.;.p.;.m cXcXa a u c v B B B z 8 : d E E n % @ o % cXcXcXcXcXcXcXcXcXcXcXcXcXcXcXcXcXcXcXcX",
"cXcXcXcXcXcXcXcXcXcXcXcXcXcXcXcXcXh.g.0.:.:.T t , 0 3 3 l c x B B B B 8 % 9 L L 7 % % % cXcXcXiXcXcXcXcXcXcXcXcXcXcXcXcXcXcXcXcX",
"cXcXcXcXcXcXcXcXcXcXcXcXcXcXcXcXcXcXcX0.#.T Y n 0 & = = 5 6 l x z z z x 1 @ n D D 7 ; * = cX1XpXxX2XcXcXcXcXcXcXcXcXcXcXcXcXcXcX",
"cXcXcXcXcXcXcXcXcXcXcXcXcXcXcXcXcXcXcXcXcXN N V a & % % 4 4 5 l l x x l ; X 7 D D 9 1 = e u.>X6XxXcXcXcXcXcXcXcXcXcXcXcXcXcXcXcX",
"cXcXcXcXcXcXcXcXcXcXcXcXcXcXcXcXcXcXcXcXcXcXcXd p > % & & 2 4 5 6 6 6 4 % o o d F F V e C u.,X4XcXcXcXcXcXcXcXcXcXcXcXcXcXcXcXcX",
"cXcXcXcXcXcXcXcXcXcXcXcXcXcXcXcXcXcXcXcXcXcXcXcXcXcX, & & = ; 2 1 1 1 ; ; % o = d F Q Z S i.,XcXcXcXcXcXcXcXcXcXcXcXcXcXcXcXcXcX",
"cXcXcXcXcXcXcXcXcXcXcXcXcXcXcXcXcXcXcXcXcXcXcXcXcXcXcX, & & < s 7 7 7 3 ; @ @ & d H ~ ~ S f.cXcXcXcXcXcXcXcXcXcXcXcXcXcXcXcXcXcX",
"cXcXcXcXcXcXcXcXcXcXcXcXcXcXcXcXcXcXcXcXcXcXcXcXcXcXcXcXcX& & cX* % * * * $ + # y H ( ~ ] cXcXcXcXcXcXcXcXcXcXcXcXcXcXcXcXcXcXcX",
"cXcXcXcXcXcXcXcXcXcXcXcXcXcXcXcXcXcXcXcXcXcXcXcXcXcXcXcXcXcX* cXcX        X % & * F :.:.cXcXcXcXcXcXcXcXcXcXcXcXcXcXcXcXcXcXcXcX",
"cXcXcXcXcXcXcXcXcXcXcXcXcXcXcXcXcXcXcXcXcXcXcXcXcXcXcXcXcXcXcXcXcXcXX O X + # # , y :.s.cXcXcXcXcXcXcXcXcXcXcXcXcXcXcXcXcXcXcXcX",
"cXcXcXcXcXcXcXcXcXcXcXcXcXcXcXcXcXcXcXcXcXcXcXcXcXcXcXcXcXcXcXcXcXcXcXO X # + + & w &.cXcXcXcXcXcXcXcXcXcXcXcXcXcXcXcXcXcXcXcXcX",
"cXcXcXcXcXcXcXcXcXcXcXcXcXcXcXcXcXcXcXcXcXcXcXcXcXcXcXcXcXcXcXcXcXcXcXcXX X + # # w | cXcXcXcXcXcXcXcXcXcXcXcXcXcXcXcXcXcXcXcXcX",
"cXcXcXcXcXcXcXcXcXcXcXcXcXcXcXcXcXcXcXcXcXcXcXcXcXcXcXcXcXcXcXcXcXcXcXcXcXcXO O # > Z cXcXcXcXcXcXcXcXcXcXcXcXcXcXcXcXcXcXcXcXcX",
"cXcXcXcXcXcXcXcXcXcXcXcXcXcXcXcXcXcXcXcXcXcXcXcXcXcXcXcXcXcXcXcXcXcXcXcXcXcXcXcXcX, _ cXcXcXcXcXcXcXcXcXcXcXcXcXcXcXcXcXcXcXcXcX",
"cXcXcXcXcXcXcXcXcXcXcXcXcXcXcXcXcXcXcXcXcXcXcXcXcXcXcXcXcXcXcXcXcXcXcXcXcXcXcXcXcXcXcXcXcXcXcXcXcXcXcXcXcXcXcXcXcXcXcXcXcXcXcXcX",
"cXcXcXcXcXcXcXcXcXcXcXcXcXcXcXcXcXcXcXcXcXcXcXcXcXcXcXcXcXcXcXcXcXcXcXcXcXcXcXcXcXcXcXcXcXcXcXcXcXcXcXcXcXcXcXcXcXcXcXcXcXcXcXcX",
"cXcXcXcXcXcXcXcXcXcXcXcXcXcXcXcXcXcXcXcXcXcXcXcXcXcXcXcXcXcXcXcXcXcXcXcXcXcXcXcXcXcXcXcXcXcXcXcXcXcXcXcXcXcXcXcXcXcXcXcXcXcXcXcX",
"cXcXcXcXcXcXcXcXcXcXcXcXcXcXcXcXcXcXcXcXcXcXcXcXcXcXcXcXcXcXcXcXcXcXcXcXcXcXcXcXcXcXcXcXcXcXcXcXcXcXcXcXcXcXcXcXcXcXcXcXcXcXcXcX",
"cXcXcXcXcXcXcXcXcXcXcXcXcXcXcXcXcXcXcXcXcXcXcXcXcXcXcXcXcXcXcXcXcXcXcXcXcXcXcXcXcXcXcXcXcXcXcXcXcXcXcXcXcXcXcXcXcXcXcXcXcXcXcXcX",
"cXcXcXcXcXcXcXcXcXcXcXcXcXcXcXcXcXcXcXcXcXcXcXcXcXcXcXcXcXcXcXcXcXcXcXcXcXcXcXcXcXcXcXcXcXcXcXcXcXcXcXcXcXcXcXcXcXcXcXcXcXcXcXcX"
};
