/* XPM */
static char *result[] = {
/* columns rows colors chars-per-pixel */
"64 64 232 2 ",
"   c #0B123B",
".  c #091137",
"X  c #0E1443",
"o  c #0E1349",
"O  c #111644",
"+  c #131945",
"@  c #12164B",
"#  c #131A4C",
"$  c #181C4A",
"%  c #111654",
"&  c #141B53",
"*  c #191B55",
"=  c #151B5B",
"-  c #1B1C5A",
";  c #14175B",
":  c #201B5E",
">  c #152055",
",  c #1C2354",
"<  c #16215A",
"1  c #1B235D",
"2  c #1E285E",
"3  c #2B255E",
"4  c #141762",
"5  c #151A63",
"6  c #1C1C63",
"7  c #191B6B",
"8  c #1C1A72",
"9  c #241D68",
"0  c #2A1E72",
"q  c #231D7C",
"w  c #261C75",
"e  c #331F7A",
"r  c #1B2363",
"t  c #1C226A",
"y  c #1D2C6B",
"u  c #1F2864",
"i  c #232464",
"p  c #222965",
"a  c #22256C",
"s  c #252C6B",
"d  c #29246C",
"f  c #2A326E",
"g  c #232373",
"h  c #262B74",
"j  c #2A2B75",
"k  c #29237D",
"l  c #2A2B79",
"z  c #292375",
"x  c #34247C",
"c  c #332A7C",
"v  c #3A2F7C",
"b  c #2D3475",
"n  c #33327C",
"m  c #37367B",
"M  c #332C6F",
"N  c #42367E",
"B  c #261D82",
"V  c #281F88",
"C  c #2B2384",
"Z  c #2D228A",
"A  c #2F2886",
"S  c #332B82",
"D  c #3A2D84",
"F  c #3D2E8B",
"G  c #372488",
"H  c #2D3587",
"J  c #3D3984",
"K  c #3E368E",
"L  c #3A3483",
"P  c #3D2E97",
"I  c #3B29A1",
"U  c #432D8C",
"Y  c #41258E",
"T  c #44338B",
"R  c #453E8B",
"E  c #442692",
"W  c #492B9A",
"Q  c #462D96",
"!  c #453494",
"~  c #4C359C",
"^  c #483A96",
"/  c #54399F",
"(  c #492EAC",
")  c #4835A9",
"_  c #5939A4",
"`  c #5531AC",
"'  c #5E3BA9",
"]  c #5537A9",
"[  c #5635B5",
"{  c #4930B1",
"}  c #623DAE",
"|  c #633BB3",
" . c #374689",
".. c #375697",
"X. c #32468E",
"o. c #3C619A",
"O. c #3E60AA",
"+. c #42448C",
"@. c #47478B",
"#. c #4B4395",
"$. c #4B429A",
"%. c #464594",
"&. c #54479A",
"*. c #48589B",
"=. c #495297",
"-. c #575C9C",
";. c #62539E",
":. c #4D45A7",
">. c #5C43A5",
",. c #534BA6",
"<. c #4A5DA8",
"1. c #5858A5",
"2. c #5C54B6",
"3. c #5B56BC",
"4. c #5856B5",
"5. c #594BB2",
"6. c #6447AC",
"7. c #6C43BA",
"8. c #6849B4",
"9. c #6557B7",
"0. c #7558B8",
"q. c #6B50B4",
"w. c #5965A8",
"e. c #5971AB",
"r. c #5B65B9",
"t. c #4D7EB4",
"y. c #6364AA",
"u. c #646BAD",
"i. c #6C66AF",
"p. c #6561B4",
"a. c #696DB4",
"s. c #6564BA",
"d. c #646DBC",
"f. c #6869B6",
"g. c #6672B3",
"h. c #6A75BC",
"j. c #697CBD",
"k. c #6777B8",
"l. c #7677BC",
"z. c #6C73A3",
"x. c #7549C4",
"c. c #7B4DC6",
"v. c #7D4DCA",
"b. c #7246C4",
"n. c #695AC6",
"m. c #7956C2",
"M. c #6D44C4",
"N. c #5D62C4",
"B. c #626CCB",
"V. c #6466C8",
"C. c #7767C7",
"Z. c #6674C1",
"A. c #6A74C1",
"S. c #6E7BC3",
"D. c #6C73CC",
"F. c #6678C3",
"G. c #727CC2",
"H. c #7979C9",
"J. c #7B69D0",
"K. c #6771D1",
"L. c #656BD0",
"P. c #8353CB",
"I. c #8158CF",
"U. c #8D5AD4",
"Y. c #895CD4",
"T. c #915DD8",
"R. c #8176CD",
"E. c #906ACD",
"W. c #AA69CB",
"Q. c #9667E0",
"!. c #C975DA",
"~. c #5D88B9",
"^. c #6581B6",
"/. c #6685BD",
"(. c #6A8DBE",
"). c #7882BD",
"_. c #6983C3",
"`. c #698AC6",
"'. c #7482C3",
"]. c #7886C6",
"[. c #6694C3",
"{. c #659AC6",
"}. c #6998CA",
"|. c #7393CD",
" X c #7896CA",
".X c #6998D0",
"XX c #769ED2",
"oX c #69A6CD",
"OX c #72A5CB",
"+X c #69AAD2",
"@X c #76A6D4",
"#X c #72BCD9",
"$X c #7AB7DA",
"%X c #72C0DC",
"&X c #8796B8",
"*X c #8396CB",
"=X c #8898D4",
"-X c #9282D4",
";X c #B486D8",
":X c #98ADCD",
">X c #8BA5D3",
",X c #84A5D6",
"<X c #96AAD8",
"1X c #87B9DD",
"2X c #9AB3DC",
"3X c #9BB7D8",
"4X c #89A4CF",
"5X c #A6BAD9",
"6X c #A6BDCC",
"7X c #AE8AE5",
"8X c #84A2E0",
"9X c #A4B7E3",
"0X c #B3ADE2",
"qX c #AAC7D8",
"wX c #B5D4DE",
"eX c #86C7E1",
"rX c #98CBE5",
"tX c #98D1E7",
"yX c #A6CAE4",
"uX c #A5D9EB",
"iX c #B5D5E8",
"pX c #BADEF1",
"aX c #AED6EC",
"sX c #B8E4EE",
"dX c #B3EAF6",
"fX c #BBE7F4",
"gX c #BFF4FA",
"hX c #C3F4FB",
"jX c #CBFCFE",
"kX c #C7F5F9",
"lX c #CEF4F7",
"zX c None",
/* pixels */
"zXzXzXzXzXzXzXzXzXzXzXzXzXzXzXzXzXzXzXzXzXzXzXzXzXzXzXzXzXzXzXzXzXzXzXzXzXzXzXzXzXzXzXzXzXzXzXzXzXzXzXzXzXzXzXzXzXzXzXzXzXzXzXzX",
"zXzXzXzXzXzXzXzXzXzXzXzXzXzXzXzXzXzXzXzXzXzXzXzXzXzXzXzXzXzXzXzXzXzXzXzXzXzXzXzXzXzXzXzXzXzXzXzXzXzXzXzXzXzXzXzXzXzXzXzXzXzXzXzX",
"zXzXzXzXzXzXzXzXzXzXzXzXzXzXzXzXzXzXzXzXzXzXzXzXzXzXzXzXzXzXzXzXzXzXzXzXzXzXzXzXzXzXzXzXzXzXzXzXzXzXzXzXzXzXzXzXzXzXzXzXzXzXzXzX",
"zXzXzXzXzXzXzXzXzXzXzXzXzXzXzXzXzXzXzXzXzXzXzXzXzXzXzXzXzXzXzXzXzXzXzXzXzXzXzXzXzXzXzXzXzXzXzXzXzXzXzXzXzXzXzXzXzXzXzXzXzXzXzXzX",
"zXzXzXzXzXzXzXzXzXzXzXzXzXzXzXzXzXzXzXzXzXzXzXzXzXzXzXzXzXzXzXzXzXzXzXzXzXzXzXzXzXzXzXzXzXzXzXzXzXzXzXzXzXzXzXzXzXzXzXzXzXzXzXzX",
"zXzXzXzXzXzXzXzXzXzXzXzXzXzXzXzXzXzXzX!.!.zXzXzXzXzXzXzXzXzXzXzXzXzXzXzXzXzXzXzXzXzXzXzXzXzXzXzXzXzXzXzXzXzXzXzXzXzXzXzXzXzXzXzX",
"zXzXzXzXzXzXzXzXzXzXzXzXzXzXzXzXzXzXzX!.W.l.zXzXzXzXzXzXzXzXzXzXzXzXzXzXzXzXzXzXzXzXzXzXzXzXzXzXzXzXzXzXzXzXzXzXzXzXzXzXzXzXzXzX",
"zXzXzXzXzXzXzXzXzXzXzXzXzXzXzXzXzXzX;XQ.]..XXXzXzXzXzXzXzXzXzXzXzXzXzXzXzXzXzXzXzXzXzXzXzXzXzXzXzXzXzXzXzXzXzXzXzXzXzXzXzXzXzXzX",
"zXzXzXzXzXzXzXzXzXzXzXzXzXzXzXzXzXzX,X@X+X.X.X@XzXzXzXzXzXzXzXzXzXzXzXzXzXzXzXzXzXzXzXzXzXzXzXzXzXzXzXzXzXzXzXzXzXzXzXzXzXzXzXzX",
"zXzXzXzXzXzXzXzXzXzXzXzXzXzXzXzXzXtXeX1X$XXX`.|.XXzXzXzXzXzXzXzXzXzXzXzXzXzXzXzXzXzXzXzXzXzXzXzXzXzXzXzXzXzXzXzXzXzXzXzXzXzXzXzX",
"zXzXzXzXzXzXzXzXzXzXzXzXzXzXzXzXzXjXgXdXuXrX,X X|. XzXzXzXzXzXzXzXzXzXzXzXzXzXzXzXzXzXzXzXzXzXzXzXzXzXzXzXzXzXzXzXzXzXzXzXzXzXzX",
"zXzXzXzXzXzXzXzXzXzXzXzXzXzXzXzXjXjXjXkXiXfXkXpXrX2X3XzXzXzXzXzXzXzXzXzXzXzXzXzXzXzXzXzXzXzXzXzXzXzXzXzXzXzXzXzXzXzXzXzXzXzXzXzX",
"zXzXzXzXzXzXzXzXzXzXzXzXzXzXzXzXdXhXgXqX6XwXlXlXjXjXhXhXzXzXzXzXzXzXzXzXzXzXzXzXzXzXzXzXzXzXzXzXzXzXzXzXzXzXzXzXzXzXzXzXzXzXzXzX",
"zXzXzXzXzXzXzXzXzXzXzXzXzXzXzXsXdXdXuXqXpXiXqX5XlXjXjXkXzXzXzXzXzXzXzXzXzXzXzXzXzXzXzXzXzXzXzXzXzXzXzXzXzXzXzXzXzXzXzXzXzXzXzXzX",
"zXzXzXzXzXzXzXzXzXzXzXzXzXzXzXtXtXuXyXqX3X5X5X:XiXpXfXsXuXzXzXzXzXzXzXzXzXzXzXzXzXzXzXzXzXzXzXzXzXzXzXzXzXzXzXzXzXzXzXzXzXzXzXzX",
"zXzXzXzXzXzXzXzXzXzXzXzXzXzXzXrX#X$X@X4X2X:X&XyXiXyX9X>X Xe.zXzXzXzXzXzXzXzXzXzXzXzXzXzXzXzXzXzXzXzXzXzXzXzXzXzXzXzXzXzXzXzXzXzX",
"zXzXzXzXzXzXzXzXzXzXzXzXzXzXzXeX#X}.`.j.'.z.*X=X<X<X<X<X<X/.zXzXzXzXzXzXzXzXzXzXzXzXzXzXzXzXzXzXzXzXzXzXzXzXzXzXzXzXzXzXzXzXzXzX",
"zXzXzXzXzXzXzXzXzXzXzXzXzXzXzX%X$XOX|._.g.g.h.G.l.H.'.*X).u.o.zXzXzXzXzXzXzXzXzXzXzXzXzXzXzXzXzXzXzXzXzXzXzXzXzXzXzXzXzXzXzXzXzX",
"zXzXzXzXzXzXzXzXzXzXzXzXzXzXzX+XoX}.|.|.'.'.'.G.G.h.d.g.a.a. .zXzXzXzXzXzXzXzXzXzXzXzXzXzXzXzXzXzXzXzXzXzXzXzXzXzXzXzXzXzXzXzXzX",
"zXzXzXzXzXzXzXzXzXzXzXzXzXzXzX@XoX[.`.`.F.j.S.G.G.G.'.l.a.i.p f zXzXzXzXzXzXzXzXzXzXzXzXzXzXzXzXzXzXzXzXzXzXzXzXzXzXzXzXzXzXzXzX",
"zXzXzXzXzXzXzXzXzXzXzXzXzXzXzX@XoX{.`._._.k.h.A.h.h.f.f.-.-.s $ 2 zXzXzXzXzXzXzXzXzXzXzXzXzXzXzXzXzXzXzXzXzXzXzXzXzXzXzXzXzXzXzX",
"zXzXzXzXzXzXzXzXzXzXzXzXzXzXzX@X{.{.`./.S.j.j.h.h.f.g.y.m @.2 y 2 zXzXzXzXzXzXzXzXzXzXzXzXzXzXzXzXzXzXzXzXzXzXzXzXzXzXzXzXzXzXzX",
"zXzXzXzXzXzXzXzXzXzXzXzXzXzXzXzX}.[.[./.j.j.h.h.h.g.g.-.b @.1 , r H zXzXzXzXzXzXzXzXzXzXzXzXzX%.y.zXzXzXzXzXzXzXzXzXzXzXzXzXzXzX",
"zXzXzXzXzXzXzXzXzXzXzXzXzXzXzXzX>X}.{.[./.j.k.a.g.g.u.@.f @., $ # < zXzXzXzXzXzXzXzXzXzXzXzX1. .-.zXzXzXzXzXzXzXzXzXzXzXzXzXzXzX",
"zXzXzXzXzXzXzXzXzXzXzXzXzXzXzXzXzX).(.{.[./.k.g.u.u.w.b f R $ $ #   zXzXzXzXzXzXzXzXzXzXzXJ.0.#.=.zXzXzXzXzXzXzXzXzXzXzXzXzXzXzX",
"zXzXzXzXzXzXzXzXzXzXzXzXzXzXzXzXzX&.q.H.].(.^.g.u.y.=.s f $.M $   + , zXzXzXzXzXzXzXzXzXA.H.P.,.e.zXzXzXzXzXzXzXzXzXzXzXzXzXzXzX",
"zXzXzXzXzXzXzXzXzXzXzXzXzXzXzXzXzXzXq.P.Y.H.].^.z.y.N f s h b N 3   , zXzXzXzXzXzXzXzXZ.A.J.U.p.oXzXzXzXzXzXzXzXzXzXzXzXzXzXzXzX",
"zXzXzXzXzXzXzXzXzXzXzXzXzXzXzXzXzXzX6.0.U.Y.E.l.g.y.m s a i r u m 3 $ zXzXzXzXzXzXzXzXZ.Z.n.Q.=X#X#XzXzXzXzXzXzXzXzXzXzXzXzXzXzX",
"zXzXzXzXzXzXzXzXzXzXzXzXzXzXzXzXzXzXzX6.P.T.U.P.m.f.J l y t r 1 > 1 + # zXzXzXzXzXzXd.Z.s.C.7X9X%X~.zXzXzXzXzXzXzXzXzXzXzXzXzXzX",
"zXzXzXzXzXzXzXzXzXzXzXzXzXzXzXzXzXzXzXR 0.T.U.P.b.7.^ S l a t r < r O . zXzXzXzXzXzXw.d.s.0.0X5XoX=.zXzXzXzXzXzXzXzXzXzXzXzXzXzX",
"zXzXzXzXzXzXzXzXzXzXzXzXzXzXzXzXzXzXzXzX/ U.U.P.c.' ` P A g t t r t + .   zXzXzXzXzX*.d.r.w.*X>X{.@.zXzXzXzXzXzXzXzXzXzXzXzXzXzX",
"zXzXzXzXzXzXzXzXzXzXzXzXzXzXzXzXzXzXzXzX@.6.U.P.c.| ` [ ) A k t t t < + .   zXzXzXzX*.w.2.<.~.OX^.zXzXzXzXzXzXzXzXzXzXzXzXzXzXzX",
"zXzXzXzXzXzXzXzXzXzXzXzXzXzXzXzXzXzXzXzX1.J 8.v.x.| ` { 3.2.P k t t r = X . # zXzXzX*.1.1.<.t.oX^.zXzXzXzXzXzXzXzXzXzXzXzXzXzXzX",
"zXzXzXzXzXzXzXzXzXzXzXzXzXzXzXzXzXzX;XG.0.&.S 6.| | [ { V.K.n.) A g t - & X # zXzXb *.1.,.....{.zXzXzXzXzXzXzXzXzXzXzXzXzXzXzXzX",
"zXzXzXzXzXzXzXzXzXzXzXzXzXzXzXzXzXzX0X].;.>.K >.} ` { { J.K.K.n.] C a - > # < p zXf  .=.#.%.X.zXzXzXzXzXzXzXzXzXzXzXzXzXzXzXzXzX",
"zXzXzXzXzXzXzXzXzXzXzXzXzXzXzXzXzXzXiX<Xy.,.K K 6.W I [ b.n.K.L.3.:.j r < & & = & r n %.@.+.zXzXzXzXzXzXzXzXzXzXzXzXzXzXzXzXzXzX",
"zXzXzXzXzXzXzXzXzXzXzXzXzXzXzXzXzXzXzX9X*X~ ! g ^ P ( M.c.v.n.B.V.3.^ p 1 * $ @ @ & r L J zXzXzXzXzXzXzXzXzXzXzXzXzXzXzXzXzXzXzX",
"zXzXzXzXzXzXzXzXzXzXzXzXzXzXzXzXzXzXzX X=X1.! l v _ [ x.P.v.b.n.B.N.2.^ i * & # o # # i zXzXzXzXzXzXzXzXzXzXzXzXzXzXzXzXzXzXzXzX",
"zXzXzXzXzXzXzXzXzXzXzXzXzXzXzXzXzXzXzXzXe.g.%.L j ) | c.P.P.x.x.V.r.4.,.T i - % @ @ @ @ zXzXzXzXzXzXzXzXzXzXzXzXzXzXzXzXzXzXzXzX",
"zXzXzXzXzXzXzXzXzXzXzXzXzXzXzXzXzXzXzXzXzX ...m T ] ' 7.c.c.x.7.C.D.r.,.#.v - # @ O   zXzXzXzXzXzXzXzXzXzXzXzXzXzXzXzXzXzXzXzXzX",
"zXzXzXzXzXzXzXzXzXzXzXzXzXzXzXzXzXzXzXzXzXzX..X.m >.~ } 7.7.7.} } R.H.$.$.R d * : O . zXzXzXzXzXzXzXzXzXzXzXzXzXzXzXzXzXzXzXzXzX",
"zXzXzXzXzXzXzXzXzXzXzXzXzXzXzXzXzXzXzXzXzXzXzX..b T ! ! / } ' _ / ' H.^ Q W D 9 9 @   zXzXzXzXzXzXzXzXzXzXzXzXzXzXzXzXzXzXzXzXzX",
"zXzXzXzXzXzXzXzXzXzXzXzXzXzXR.zXzXzXzXzXzXzXzXzXX.d F S G U U W ~ W 2.2.W E e * * : O   zXzXzXzXzXzXzXzXzXzXzXzXzXzXzXzXzXzXzXzX",
"zXzXzXzXzXzXzXzXzXzXzXzXzXzX-XA.f.E.$.zXzXzXzXzXO.l c z k k k C G G K ,.5.W E * @ @ X O zXzXzXzXzXzXzXzXzXzXzXzXzXzXzXzXzXzXzXzX",
"zXzXzXzXzXzXzXzXzXzXzXzXzXzXzX_.h.C.9.7.x.7.D zXzXl l g C C Z Z Z V w - S W W e @ O X X zXzXzXzXzXzXzXzXzXzXzXzXzXzXzXzXzXzXzXzX",
"zXzXzXzXzXzXzXzXzXzXzXzXzXzXzXzXzXC.f.s.8.7.~ i < r 6 7 8 q Z Z V Z V w % 0 E Y 9 o o X zXzXzXzXzXzXzXzXzXzXzXzXzXzXzXzXzXzXzXzX",
"zXzXzXzXzXzXzXzXzXzXzXzXzXzXzXzXzXzXzXs.,.! W D r & = = 8 8 B B V V V B ; o 0 G e * O     zXN.B.,XD.zXzXzXzXzXzXzXzXzXzXzXzXzXzX",
"zXzXzXzXzXzXzXzXzXzXzXzXzXzXzXzXzXzXzXzXzXK F F l & & & 7 7 8 8 B B q q ; o 6 G e 0 * o * l r.V.=XzXzXzXzXzXzXzXzXzXzXzXzXzXzXzX",
"zXzXzXzXzXzXzXzXzXzXzXzXzXzXzXzXzXzXzXzXzXzXzXc z 1 & % & ; 5 7 8 8 8 8 % o @ 0 x x z & r l 4.3.zXzXzXzXzXzXzXzXzXzXzXzXzXzXzXzX",
"zXzXzXzXzXzXzXzXzXzXzXzXzXzXzXzXzXzXzXzXzXzXzXzXzXzX< > & & = 4 4 4 4 % % % o & 0 x ! g r H :.zXzXzXzXzXzXzXzXzXzXzXzXzXzXzXzXzX",
"zXzXzXzXzXzXzXzXzXzXzXzXzXzXzXzXzXzXzXzXzXzXzXzXzXzXzX* & & 6 z 0 9 9 - - & # % x D U S r H zXzXzXzXzXzXzXzXzXzXzXzXzXzXzXzXzXzX",
"zXzXzXzXzXzXzXzXzXzXzXzXzXzXzXzXzXzXzXzXzXzXzXzXzXzXzXzXzX& , zX* @ * * * @ # # 9 U U D y zXzXzXzXzXzXzXzXzXzXzXzXzXzXzXzXzXzXzX",
"zXzXzXzXzXzXzXzXzXzXzXzXzXzXzXzXzXzXzXzXzXzXzXzXzXzXzXzXzXzX, zXzX        X # # & c T v zXzXzXzXzXzXzXzXzXzXzXzXzXzXzXzXzXzXzXzX",
"zXzXzXzXzXzXzXzXzXzXzXzXzXzXzXzXzXzXzXzXzXzXzXzXzXzXzXzXzXzXzXzXzXzX  X X + @ & > 2 T T zXzXzXzXzXzXzXzXzXzXzXzXzXzXzXzXzXzXzXzX",
"zXzXzXzXzXzXzXzXzXzXzXzXzXzXzXzXzXzXzXzXzXzXzXzXzXzXzXzXzXzXzXzXzXzXzXX O @ + + & < D zXzXzXzXzXzXzXzXzXzXzXzXzXzXzXzXzXzXzXzXzX",
"zXzXzXzXzXzXzXzXzXzXzXzXzXzXzXzXzXzXzXzXzXzXzXzXzXzXzXzXzXzXzXzXzXzXzXzXX X O $ # , j zXzXzXzXzXzXzXzXzXzXzXzXzXzXzXzXzXzXzXzXzX",
"zXzXzXzXzXzXzXzXzXzXzXzXzXzXzXzXzXzXzXzXzXzXzXzXzXzXzXzXzXzXzXzXzXzXzXzXzXzXO + # > p zXzXzXzXzXzXzXzXzXzXzXzXzXzXzXzXzXzXzXzXzX",
"zXzXzXzXzXzXzXzXzXzXzXzXzXzXzXzXzXzXzXzXzXzXzXzXzXzXzXzXzXzXzXzXzXzXzXzXzXzXzXzXzX& u zXzXzXzXzXzXzXzXzXzXzXzXzXzXzXzXzXzXzXzXzX",
"zXzXzXzXzXzXzXzXzXzXzXzXzXzXzXzXzXzXzXzXzXzXzXzXzXzXzXzXzXzXzXzXzXzXzXzXzXzXzXzXzXzXzXzXzXzXzXzXzXzXzXzXzXzXzXzXzXzXzXzXzXzXzXzX",
"zXzXzXzXzXzXzXzXzXzXzXzXzXzXzXzXzXzXzXzXzXzXzXzXzXzXzXzXzXzXzXzXzXzXzXzXzXzXzXzXzXzXzXzXzXzXzXzXzXzXzXzXzXzXzXzXzXzXzXzXzXzXzXzX",
"zXzXzXzXzXzXzXzXzXzXzXzXzXzXzXzXzXzXzXzXzXzXzXzXzXzXzXzXzXzXzXzXzXzXzXzXzXzXzXzXzXzXzXzXzXzXzXzXzXzXzXzXzXzXzXzXzXzXzXzXzXzXzXzX",
"zXzXzXzXzXzXzXzXzXzXzXzXzXzXzXzXzXzXzXzXzXzXzXzXzXzXzXzXzXzXzXzXzXzXzXzXzXzXzXzXzXzXzXzXzXzXzXzXzXzXzXzXzXzXzXzXzXzXzXzXzXzXzXzX",
"zXzXzXzXzXzXzXzXzXzXzXzXzXzXzXzXzXzXzXzXzXzXzXzXzXzXzXzXzXzXzXzXzXzXzXzXzXzXzXzXzXzXzXzXzXzXzXzXzXzXzXzXzXzXzXzXzXzXzXzXzXzXzXzX",
"zXzXzXzXzXzXzXzXzXzXzXzXzXzXzXzXzXzXzXzXzXzXzXzXzXzXzXzXzXzXzXzXzXzXzXzXzXzXzXzXzXzXzXzXzXzXzXzXzXzXzXzXzXzXzXzXzXzXzXzXzXzXzXzX"
};
