/* XPM */
static char *_61022b60d6d488485986f8fa873be3bCoOombfqt0N2LjCw[] = {
/* columns rows colors chars-per-pixel */
"64 64 8 1 ",
"  c #1A1E1C",
". c #241F1C",
"X c #342823",
"o c #3C2F2C",
"O c #231917",
"+ c #454238",
"@ c #140E0E",
"# c white",
/* pixels */
"                                                                ",
" ...XXXXXXXXXXXX..XXX..XXXXXXXXXXXXX....    .XXXX....    .XXXXX ",
" .XXooooooooooooXXoooXXooooooooooooo.oooooooXXXXo.oooooooXXXXXX ",
" ..OOoXOOOOXX.OO.OOoX.OOoXOOOOXX.OOOXXOOOOXXOOOOOXXOOOOXXOOOOXo ",
" oXXXooXooXXXXXXXXXooXXXooXooXXXXXXXXXXXXXXXoooXXXXXXXXXXoooXXo ",
" o.OOXX.OO.XXOOOOOXX..OOXX.OO.XXOOOOOXOOO.XX.OOOOOXOOO.XX.OOOXo ",
" X..OXoO...XX....OXoO..OXoO...XX....OXO...Xo.....OXO...Xo....oo ",
" X..OXo....XX....OXo...OXo....XX....oXO...Xo.....oXO...Xo....oo ",
" X.XoXoooXXXXXXXXoXoooXoXoooXXXXXXXooXoooooooXXXooXoooooooXXXXX ",
" XX++ooX+++XX++X++ooX+++ooX+++XX++XXXXX+++XX...XXXXX+++XX...XXX ",
" X...XX....XX.....XX....XX....XX.....X....XX.@....X....XX.@...X ",
" X.@@XX.@@@Xo..@@@XX.@@@XX.@@@Xo..@@.X@@@@X+@@..@.X@@@@X+@@..+X ",
" X.@@XX@@@@Xo@@@@@XX@@@@XX@@@@Xo@@@@.+@@@@X+@@@.@.+@@@@X+@@@.oX ",
" XXXXoXX+++XooooXXoXX+XXoXX+++XoooooX++++XX++oXXoX++++XX++oXXoX ",
" XXooooooXXXXXXXooooooooooooXXXXXXXXXXXXXXoXXXXXXXXXXXXoXXXXXoX ",
" X.@@XX@@@@XX@@@@@XX@@@@XX@@@@XX@@@@XX@@@@oX@@@.@XX@@@@oX@@@.oX ",
" X.@@XX@@@@Xo@@@@@XX@@@@XX@@@@Xo@@@@Xo@@@@oX@@@.@Xo@@@@oX@@@.oX ",
" X.@@XX@@@@Xo@@@@@XX@@@@XX@@@@Xo@@@@Xo@@@@oX@@@.@Xo@@@@oX@@@.oX ",
" XXXooooXXXooX++XooooXXooooXXXooX+++Xooo++oXXXXX+Xooo++oXXXXXoX ",
" XX+++X+++XXXXXX+++X+++++X+++XXXXXXXXXXXXXoXXXXXXXXXXXXoXXXXX.X ",
" X.@@+X@@@@XXOOOO@+XOOOO+X@@@@XX@@@@XX@@@@oX@@@@@XX@@@@oX@@@@.X ",
" X.@@+o@@@@XXO@@@@+o@@@O+o@@@@XXXXXXX+@@@@XXX@@@@X+@@@@XX@@@@.X ",
" X.@@Xo@@@@++@@@@@Xo@@@@XoXXXX++X.@@X+@@@@X+XXXXXX+@@@@X+@@@@+o ",
" XXXXXoXX+++X@@@@@Xo@@@@XoXX+++X..@@X++++Xoo@@@@@X++++Xoo++XXXo ",
" XoooooXXXXXX@@@@@oo@@@@oo@@@@XX@@@@X++XXXoo@@@@@X++XXXoooooooo ",
" X..@XX@@@@XX@@@@@XX@@@@XX@@@@XX@@@@X+@@@@XX@@@@@X+@@@@XX@@@.Xo ",
" X.XXoXX+++XooooXXoXX+++XooooXXoXX+++XoooooX++++XX++oXXX++oX.Xo ",
" X.ooooooXXXXXXXooooooXXXXXXXooooooXXXXXXXXXXXXXXoXXXXXoXXXX.+X ",
" .o@@XX@@@@XX@@@@@XX@@@@XX@@@@@XX@...XX@@@@XX@@@@oXOOOOoX@@@++X ",
" ..@@XX@@@@Xo@@@@@XX@@@@Xo@@@@@XX@@..Xo@@@@Xo@@@@oX@@@.oX@@@ooX ",
" XX@@XX@@@@Xo@@@@@XX@@@@Xo@@@@@XX@@@@Xo@@@@Xo@@@@oX@@@.oX@@@XXX ",
" XXXooooXXXooX++XooooXXXooX++XooooXXXooX+++Xooo++oXXXXXoXXXXXXX ",
" XX+++X+++XXXXXX+++X+++XXXXXX+++X+++XXXXXXXXXXXXXoXXXXXoXXXXXXX ",
" .X@@+X@@@@XX@@@@@+X@@@@XX@@@@@+X@@.@XX..@@XX@@@@oX@@@@oXOOOOXX ",
" .X@@+o@@@@XX@@@@@+o@@@@XX@@@@@+o@@@@XX@@@@X+@@@@XX@@@@XX@@@OXX ",
" .X@@Xo@@@@++@@@@@Xo@@@@++@@@@@Xo@@@@++@@@@X+@@@@X+@@@@X+@@@OXo ",
" oXXXXoXX+++X++XXXXoXX+++X++XXXXoXX+++X++XoX++++Xoo++XXoo++XXXo ",
" o.ooooXXXXXXXooooooXXXXXXXooooooXXXXXXXoooX++XXXoooooooooooOXo ",
" X..@XX@@@@XX@@@.@XX@@@@XX@@@.@XX@@@@XX@@@@X+@@@@XX@@@.XX@@@.oo ",
" X.@@+o@@@@Xo@@@@@+o@@@@Xo@@@@@+o@@@@Xo@@@@XX@@@@.+@@@..+@@@.oo ",
" X.+++o@@@@+o@@@+++o@@@@+o@@@+++o@@@@+o@@@@+X@@@@X+@@@.X+@@@XXX ",
" XX++ooX+++XX++X++ooX+++XX++X++ooX+++XX++XXXXX+++XX...XXX...XXX ",
" X...XX....XX.....XX....XX.....XX....XX.....X....XX.@..XX.@...X ",
" X.@@XX.@@@Xo..@@@XX.@@@Xo..@@@XX.@@@Xo..@@.X@@@@X+@@..X+@@..+X ",
" X.@@XX@@@@Xo@@@@@XX@@@@Xo@@@@@XX@@@@Xo@@@@.+@@@@X+@@@.X+@@@.oX ",
" XXXXoXX+++XooooXXoXX+++XooooXXoXX+++XoooooX++++XX+@@@XX++oXXoX ",
" XXooooooXXXXXXXooooooXXXXXXXooooooXXXXXXXXXXXXXXoX@@@@oXXXXXoX ",
" X.@@XX@@@@XX@@@@@XX@@@@XX@@@@@XX@@@@XX..@@XX@@@@oX@@@.oX@@@.oX ",
" X.@@XX@@@@Xo@@@@@XX@@@@Xo@@@@@XX@@@@Xo@@@@Xo@@@@oX@@@.oX@@@.oX ",
" X.@@XX@@@@Xo@@@@@XX@@@@Xo@@@@@XXXXXXXo@@@@Xo@@@@oX@@@.oX@@@.oX ",
" XXXooooXXXooX++XooooXXXooX++Xooo@...ooX+++Xooo++oXXXXXoXXXXXoX ",
" XX+++X+++XXXXXX+++X+++XXXXXX+++X@@@.XXXXXXXXXXXXoXXXXXoXXXXX.X ",
" X.@@+X@@@@XX@@@@@+X@@@@XX@@@@@+X@@@.XX@@@@XX@@@@oX@@@@oX@@@@.X ",
" X.@@+o@@@@XX@@@@@+o@@@@XX@@@@@+o@@@@XX@@@@X+@@@@XX@@@@XX@@@@.X ",
" X.@@Xo@@@@++@@@@@Xo@@@@++@@@@@Xo@@@@++@@@@X+@@@@X+@@@@X+@@@@+o ",
" XXXXXoXX+++X++XXXXoXX+++X++XXXXoXX+++X++XoX++++Xoo++XXoo++XXXo ",
" XoooooXXXXXXXooooooXXXXXXXooooooXXXXXXXoooX++XXXoooooooooooooo ",
" X..@XX@@@@XX@@@.@XX@@@@XX@@@.@XX@@@@XX@@@@X+@@@@XX@@@.XX@@@.Xo ",
" X.@@+o@@@@Xo@@@@@+o@@@@Xo@@@@@+o@@@@Xo@@@@XX@@@@.+@@@..+@@@.Xo ",
" X.+++o@@@@+o@@@+++o@@@@+o@@@+++o@@@@+o@@@@+X@@@@X+@@@.X+@@@.+X ",
" .oooooXooooooooooooXooooooooooooXooooooooo+XXXXXoooo++oooo+++X ",
" ..ooooooXXXXX..ooooooXXXXX..ooooooXXXXX.......XooXXXoooXXXoooX ",
" XXXXXXXXXXX..XXXXXXXXXXX..XXXXXXXXXXX..XXXXXXXXXXXXXXXXXXXXXXX ",
"                                                                "
};
