/* XPM */
static char *_27e01545b4a4e19fa9b0de44cc298a3Pdk3S9kg2SYX09H8[] = {
/* columns rows colors chars-per-pixel */
"64 64 6 1 ",
"  c #25201F",
". c #2A2626",
"X c #1C1918",
"o c #151315",
"O c #181616",
"+ c white",
/* pixels */
"  .... XX...  oo  ....XXX...OOoo  ....Xooooooooooo.... XX...  oo",
"...XXXXXXXXXX  o .XXXXXXXXX   Oo .XXXXXooooooooooooXXXXXXXXXX  o",
".XXXXXXXXXXXXX.o..XXXXXXXXXXX Oo..XXXXXooooooooooooXXXXXXXXXXX.o",
"XXXXXXXXXXXXXXXo.XXXXXXXXXXXX  o.XXXXXXooooooooooooXXXXXXXXXXXXo",
"XXXXXOXXXXXXXXOoXXXOOOXXXXXXXX oXXXXXOXooooooooooooXXOXXXXXXXXOo",
"OXXOOOXXOOOOOOOoOOOOOOOOOOOOOO oOOXOXOXooooooooooooOOOXXOOOOOOOo",
"OOOOOOOoooooOOOoOOOOOOOOOOOOOOoooOOOOOOooooooooooooOOOOoooooOOOo",
"OOOOOOOooooooooooooooooooooooooooooooooooooooooOOOOOOOOooooooooo",
"    ........ooooooooooooooo..      XXXX  ...o...    ........oooo",
"XXXXXXXXXXXXXooooX    XXXXXXXXXX      XXXXXXoXXXXXXXXXXXXXXXXooo",
"XXXXXXXXXXXXXOoo   XXXXXXXXXXXXXXXXXXXXXXXXXooXXXXXXXXXXXXXXXOoo",
"XXXXXXXXXXXXXXOoXXXXXXXXXXXXXXXXXXXXXXXXXXXXXoXXXXXXXXXXXXXXXXOo",
"OOXXXXXXXXXOOOOoOXXXXXXXXXXXXOOOOOXXXXXXXXXXXooOOOXXXXXXXXXOOOOo",
"OOOOXXXXXXOOOOooOOOOOXXXXXOOOOOOOOOOXXXXXXOOOOooOOOOXXXXXXOOOOoo",
"OOOOOOXOOOOOOoooooOOXXXXXOOOOOOOOOOOOOXXXOOOOOOOooOOOOXOOOOOOooo",
"ooooooooo       .......ooooooooooooooooooooooooooooooooooooooooo",
"ooOOOOX ........ XXXX    ...  oooOO    XooooooooooOOOOX oooooooo",
"oO    XXXXXXXXXXXXXXXXXXXXXXX  oOO XXXXXXXoooooooO    XXoooooooo",
"O    XXXXXXXXXXXXXXXXXXXXXXXXX.oOO XXXXXXXooooooO    XXXoooooooo",
"O XXXXXXXXXXXXXXXXXXXXXXXXXXXOXoO XXXXXXXXooooooO XXXXXXoooooooo",
"OXXXXOXXXOOOOOXXXXXXXXXXXXXXOOOoOOOOXOXXXXooooooOXXXXOXXoooooooo",
"OOXOOOXXXOOOOOOOOOOOOXXXOOOOOOOoOOOOOOXXOOOoooooOOXOOOXXooooOOOX",
"OOOOOOOOOOOOOOOOOOOOOOOOOOOOOOOoOOOOOOOOOOooooooOOOOOOOOOooOOOOO",
"oooooooooooooooooooooooooooooooooooooooooooooooooooooooooooooooo",
".......X....   ooooX......XooooOOOOOOOo  oooo..........X..oooooo",
"XXXXXXXXXXXXX.     XXXXXXXXXXXX  OOOOOoXXXoXXXXXXXXXXXXXXXooooo ",
"XXXXXXXXXXXXXXXXXXXXXXXXXXXXXXXX     OoXXXoXXXXXXXXXXXXXXXXXXXoo",
"XXXXXXXXXXXXXXXXXXXXXXXXXXXXXXXXXXXX OoXXXoXXXXXXXXXXXXXXXXXXXXo",
"OOXXXXXXXXXXXXXXXXXOXXXXXXOXXXXXXXXXXOoXXXoXXOOOOOXXXXXXXXXXXXoo",
"OOOOXXXXXOOOOOOOOXXOOXXXXOOXXXXXXXXXOOoXXXooOOOOOOOOXXXXXOOOOOoo",
"OOOOOOXOOOOOOOOOOOOOOXXXXOOOOOOOXXXOOooXXOooooOOOOOOOOXOOOOOOOOo",
"oooooooooooooooooooooooooooooooooooooooooooooooooooooooooooooooo",
"oo....XX.....oooo....XX  ....ooo    ooo  ...  oooo....XX.....ooo",
"o.XXXXXXXX....oo..XXXXXXXXXX.OooXXX  ooXXXXXX  oo.XXXXXXXX...ooo",
"..XXXXXXXXXXX..o.XXXXXXXXXXXXOoXXXX   oXXXXXXX.o..XXXXXXXXXXo..o",
".XXXXXXXXXXXXXXoXXXXXXXXXXXXXOoXXXXXX oXXXXXXXXo.XXXXXXXXXXooXXo",
"XXXXXOXXXXXXXXOoXXXXOXXXXOXXXOoXXXXXXXoXXXXXXXOoXXXXXOXXXXXoXXOo",
"OXXOOOXXOOOXXOOoXXXOOOXXOOOXOOoXXXXXXXoXOOOOOOooOXXOOOXXOOOoXOOo",
"OOOOOOOOOOOOOOOoXOOOOOXXOOOOOOoOOOOOOOoOOOOOOOooOOOOOOOOOOOoOOOo",
"oooooooooooooooooooooooooooooooooooooooooooooooooooooooooooooooo",
"    ......     oooooooooooooooooo   ...  ......o    ......     o",
"XXXXXXXXXXXXXOOoo......   XXXXXXXXXXXXXXXXXXXXXoXXXXXXXXXXXXXOOo",
"XXXXXXXXXXXXXOOo.XXXXXXXXXXXXXXXXXXXXXXXXXXXXXXooXXXXXXXXXXXXOOo",
"XXXXXXXXXXXXXOOo.XXXXXXXXXXXXXXXXXXXXXXXXXXXXXXXXoXXXXXXXXXXXOOo",
"OOXXXXXXXXXOOOooOXXXXXXXXXXXXOOOOOXXXXXXXXXXXOOOOoXXXXXXXXXOOOoo",
"OOOOXXXXXXOOOOoOOOOOOOXXXXXOOOOOOOOOOOXXXXOOOOOOOoOOXXXXXXOOOOoO",
"OOOOOOXXXOOOOOoOOOOOOOOOOOOOOOOOOOOOOOXXXOOOOOOOOoOOOOXXXOOOOOoO",
"ooooooooooooooooooooooooo             oooooooooooooooooooooooooo",
"oo....XX....          oo  XXXXXXXXXXXXX  ...  oooo....XX....   o",
"o.XXXXXXXXXXXXXXXXXXX  o XXXXXXXXXXXXXXXXXXXX  oo.XXXXXXXXXXXXXo",
"..XXXXXXXXXXXXXXXXXXXXXoXXXXXXXXXXXXXXXXXXXXXX.o..XXXXXXXXXXXXXo",
".XXXXXXXXXXXXXXXXXXXXXOoXXXXXXXXXXXXXXXXXXXXXXXo.XXXXXXXXXXXXXXX",
"XXXXXOXXOOOOOXXXXXXXXOOoOOOXXXXXXXXOOOXXXXXXXXOoXXXXXOXXOOOOOXXX",
"OXXOOOXXXOOOOOXXXOOOOOooOOOOXXXXOOOOOOXXOOOOOOOoOXXOOOXXXOOOOOXX",
"OOOOOOOOOOOOOOOOOOOOOoooooOOOOOOOOOOOOOOOOOOOOOoOOOOOOOOOOOOOOOO",
"oooooooOOOOOOOOOOOOOOooooooooooooooooooooooooooooooooooOOOOOOOOO",
"    ...o..     o         .......    ...  ....... o  ...o..     o",
"XXXXXXXoXXXXX..o XXXXXXXXXXXXXXXXXXXXXX      .ooooXXXXXoXXXXX..o",
"XXXXXXXoXXXXXX.oXXXXXXXXXXXXXXXXXXXXXXXXXXXXXXoXXXXXXXXoXXXXXX.o",
"XXXXXXXoXXXXXXXoXXXXXXXXXXXXXXXXXXXXXXXXXXXXXooXXXXXXXXoXXXXXXXo",
"OOXXXXXooXXOOOooOXXXXXXXXXXXXOOOOOXXXXXXXXXXXoOOOOXXXXXooXXOOOoo",
"OOOXXXXXoXOOoooOOOXXXXXXXXXXXOOOOOOXXXXXXXXXXOOOOOOXXXXXoXOOoooO",
"oooXOOXXoooooooOOOOOOOOOOOOOOOOOOOOOOOXXXOOoOOOOoooXOOXXoooooooO",
"ooooooooooooooooooooooooooOOOOOOOOOOOOOooooooooooooooooooooooooo"
};
