/* XPM */
static char *result[] = {
/* columns rows colors chars-per-pixel */
"64 64 37 1 ",
"  c #070707",
". c #080707",
"X c #080807",
"o c #080708",
"O c #0B0A09",
"+ c #130E0E",
"@ c #13110F",
"# c #161210",
"$ c #1A1513",
"% c #1D1915",
"& c #1E1C19",
"* c #201616",
"= c #211A17",
"- c #231E1A",
"; c #291E1C",
": c #25211D",
"> c #2C221E",
", c #30211F",
"< c #272420",
"1 c #2B2621",
"2 c #2E2A25",
"3 c #312220",
"4 c #332C26",
"5 c #382C27",
"6 c #342F28",
"7 c #392F28",
"8 c #353027",
"9 c #363129",
"0 c #3C332B",
"q c #3E382E",
"w c #40352F",
"e c #40382E",
"r c #453D33",
"t c #474036",
"y c #484136",
"u c #494338",
"i c None",
/* pixels */
"iiiiiiiiiiiiiiiiiiiiiiiiiiiiiiiiiiiiiiiiiiiiiiiiiiiiiiiiiiiiiiii",
"iiiiiiiiiiiiiiiiiiiiiiiiiiiiiiiiiiiiiiiiiiiiiiiiiiiiiiiiiiiiiiii",
"iiiiiiiiiiiiiiiiiiiiiiiiiiiiiiiiiiiiiiiiiiiiiiiiiiiiiiiiiiiiiiii",
"iiiiiiiiiiiiiiiiiiiiiiiiiiiiiiiiiiiiiiiiiiiiiiiiiiiiiiiiiiiiiiii",
"iiiiiiiiiiiiiiiiii$%:112iiiiiiii5412iiii$$::-:&#$$iiiiiiiiiiiiii",
"iiiiiiiiiiiiiiii2<:2227656774756576674477566622<:1<$iiiiiiiiiiii",
"iiiiiiiiiiiiiii222<42222467422222222224466622214:222-iiiiiiiiiii",
"iiiiiiiiiiiiii2221>62222222222222422222222222244<2222iiiiiiiiiii",
"iiiiiiiiiiiii22471>42246077424484709084480844424<6642<iiiiiiiiii",
"iiiiiiiiiiii224904>700000007444,4480004000000064;606221iiiiiiiii",
"iiiiiiiiiii42243,,;,>333>,,,,5848>>28,,,,313,3,>-3334241iiiiiiii",
"iiiiiiiiiii221;>,;-,3,333,,,5uyyttttyt,,33,333,>;13;<222iiiiiiii",
"iiiiiiiiii44433;,:-,>>333>1,2q0q070008>,,;333>>>=1>;33429iiiiiii",
"iiiiiiiiii003333>%-;::>>;;;,>2>,,>2>>>>>>;:>>::>%=,,33400iiiiiii",
"iiiiiiiiii73,>>>:*#@$$$$$$$$#$$$%%$$$$$#$$$$$$@@$-;>>,,79iiiiiii",
"iiiiiiiii-;>>>>-::XXXX XX..o  X XXXXXXXXXXXXXXXX+1=>,;>>:$iiiiii",
"iiiiiiiii=>>>,>->>XXX                           +4%>,,:>;=iiiiii",
"iiiiiiiii=>>>>>->>XXX                           +9&>>,>>;>iiiiii",
"iiiiiiiii:>,,,3;>2XX                            @8=>,,,>=:iiiiii",
"iiiiiiiii00eeeeqq:XX                            O0qeeeeee0iiiiii",
"iiiiiiii,00777779&X                             @2777e7705iiiiii",
"iiiiiiii=::->:>::$X                             O&:--;::::iiiiii",
"iiiiiiii+$%=%=%%@X                              XO%%%%==%@iiiiii",
"iiiiiiii+#>,:>;-@X                              XX%>>:>,=@iiiiii",
"iiiiiiii#$>,,,,>@XXX                            XO*,,,>4=$iiiiii",
"iiiiiiii+=>5e0,>@X X                            .X=,4ee>,$iiiiii",
"iiiiiiii+*;7tt2>@                                X=,7ry>=#iiiiii",
"iiiiiiii+*160e>,@           X                   XX-;7wq>,$iiiiii",
"iiiiiiii#$-70q>>$X                              XO:>8ee>=#iiiiii",
"iiiiiiii#$-70q>>$X                              XO->800>=$iiiiii",
"iiiiiiii+$;70e>,$XX                             XX-,8ee,=$iiiiii",
"iiiiiiii+*;6ee>>@XXX                          .XXX*>80q,=$iiiiii",
"iiiiiiii+*>4ee>:@                                X%>80q>:$iiiiii",
"iiiiiiii+$>8ee>:@                                .%;8qq>:@#iiiii",
"iiiiiiii+$-8ee>>@                               .X$>8qq>-@@iiiii",
"iiiiiiii+=>4e0>>#                               .O=;8qq>>@+iiiii",
"iiiiiiii+=,80e>:@                               .X%>40q>,$+iiiii",
"iiiiiiii+=-80e>:@                               XX%>80q>=$+iiiii",
"iiiiiiii@$-8ee>:@                               .O%-80e>=$#iiiii",
"iiiiiiii+*;8ee>=#                               .O%;8eq>;$#iiiii",
"iiiiiiii+=,4ee,-#                               XO*:9qq>;#+iiiii",
"iiiiiiii#=,40e>-$                               XO%:9qq>,$#iiiii",
"iiiiiiii+=>40e>%@                               XX$:8qq>,#+iiiii",
"iiiiiiii@$>4e7:-@                               XO%:,7q>;#+iiiii",
"iiiiiiii@$;7e7>-@                               XX%>,ee>*##iiiii",
"iiiiiiii+*;7e7>>@                               XX%>47q>;$+iiiii",
"iiiiiiii@=;707>>@                               ..*,47e>;$+iiiii",
"iiiiiiii+$>7ee11O             oo                ..*>80e,;#+iiiii",
"iiiiiiii$=>40q>:+           ooOOooooOoOOoooooooo X$>8eq>>@#iiiii",
"iiiiiiii#$;8ee>,+         OO+++OooooO+#O+ooooooo X*>80q>=##iiiii",
"iiiiiiii+$;50q>>@ oo    oOoo    ooOOOOooo oOoooo.X*>80q>=@+iiiii",
"iiiiiiii+=,4qq>>@ ooo++O++++o  oO+++++ooO++#+Ooo.X%>8qq>>$+iiiii",
"iiiiiiii@=>80e>>@ooooOOO+OoooooooOOOOOOoOOOOoooo.X%>400>,$+iiiii",
"iiiiiiii@-,>7e>>@oO++++++o+@+@++++O+@O@++++oo+@+OX%>,e8>,$+iiiii",
"iiiiiiii+$>>>>>=+oO++#+#$@$&$$$#$$$$%&$$$$#O####+O%;>>>>=#+iiiii",
"iiiiiiii$$%=%%=$&#OO++@$#O@$$&&&&&$$%%&&&$$++#+OO*$%:%%:$$$iiiii",
"iiiiiiii4,2121249<O++++@+##+O####+#+##++##+++OoO#966222<454iiiii",
"iiiiiiiieeqtttrtt1$::&:::-&#&&:::<::::*&-:-:::::&qrrrrrreeriiiii",
"iiiiiiii099qqq090<&<<<222<1&<11112221<&:<111<<<<&6q9qq9q699iiiii",
"iiiiiiii2>2<<<<12&<22222666<<666666662:1666622<&&<2<<<11<32iiiii",
"iiiiiiii<:--&:::<&%&&----:-&&-----::::&&::&:&:&&&::&--&:-::iiiii",
"iiiiiiiiiiiiiiiiiiiiiiiiiiiiiiiiiiiiiiiiiiiiiiiiiiiiiiiiiiiiiiii",
"iiiiiiiiiiiiiiiiiiiiiiiiiiiiiiiiiiiiiiiiiiiiiiiiiiiiiiiiiiiiiiii",
"iiiiiiiiiiiiiiiiiiiiiiiiiiiiiiiiiiiiiiiiiiiiiiiiiiiiiiiiiiiiiiii"
};
